<svg width="135" height="154" viewBox="0 0 135 154" fill="none" xmlns="http://www.w3.org/2000/svg">
<g clip-path="url(#clip0_401_1037)">
<path d="M88.3818 0.0914307H15.0568C13.6612 0.0914307 12.5298 1.22444 12.5298 2.62207V105.036C12.5298 106.433 13.6612 107.566 15.0568 107.566H88.3818C89.7775 107.566 90.9088 106.433 90.9088 105.036V2.62207C90.9088 1.22444 89.7775 0.0914307 88.3818 0.0914307Z" fill="white"/>
<path d="M88.3854 107.566C88.7018 107.561 89.0146 107.498 89.3084 107.38C89.6708 107.234 89.9932 107.004 90.249 106.709C90.6071 106.306 90.8283 105.801 90.8808 105.264C90.8983 102.804 90.8808 99.2047 90.8808 94.5546C90.8808 85.2545 90.8632 71.7964 90.8527 55.168C90.8527 46.852 90.8527 37.7452 90.8527 27.9671C90.8527 23.0792 90.8527 18.0273 90.8527 12.8114V2.88215C90.9007 2.21589 90.6837 1.55764 90.249 1.05095C90.0373 0.797784 89.7761 0.590531 89.4817 0.441866C89.1872 0.2932 88.8655 0.206246 88.5363 0.186318C87.8659 0.186318 87.1745 0.186318 86.4901 0.186318H15.0603C14.678 0.187543 14.3013 0.278097 13.9601 0.450777C13.6189 0.623456 13.3226 0.873494 13.0949 1.181C12.8636 1.49096 12.7117 1.85302 12.6527 2.23543C12.6144 2.62315 12.6027 3.01303 12.6176 3.40234V17.4333C12.6176 23.6123 12.6176 29.6964 12.6176 35.6856C12.6176 47.6358 12.6176 59.1924 12.6176 70.1866C12.6176 81.1809 12.6176 91.6268 12.6176 101.412V105.046C12.6231 105.632 12.8357 106.198 13.2177 106.642C13.5956 107.082 14.1187 107.371 14.6918 107.457C14.9795 107.49 15.2693 107.502 15.5587 107.493H21.6024H34.634L73.9639 107.521L84.6581 107.538H87.4378H88.3854H87.4378H84.6581H73.9639L34.634 107.57H15.5482C15.2518 107.58 14.9551 107.57 14.6602 107.538C14.0497 107.443 13.4929 107.133 13.0897 106.664C12.6865 106.196 12.4631 105.598 12.4596 104.979C12.4596 103.777 12.4596 102.566 12.4596 101.345C12.4596 91.5635 12.4596 81.1176 12.4596 70.1199C12.4596 59.1221 12.4596 47.5831 12.4596 35.6188V3.37422C12.4447 2.97547 12.4576 2.57615 12.4982 2.1792C12.5632 1.77257 12.7258 1.38782 12.972 1.05798C13.2165 0.729779 13.5342 0.463459 13.8999 0.280355C14.2656 0.0972511 14.669 0.00245106 15.0779 0.00354948H86.5077C87.2096 0.00354948 87.873 0.00354948 88.5644 0.00354948C88.9156 0.0264485 89.2586 0.120125 89.5728 0.278965C89.887 0.437805 90.166 0.658539 90.3929 0.927937C90.8419 1.46999 91.0623 2.16598 91.0071 2.86809V4.88558C91.0071 7.56384 91.0071 10.2046 91.0071 12.8079C91.0071 18.0168 91.0071 23.0687 91.0071 27.9636C91.0071 37.7417 91.0071 46.8485 91.0071 55.1645C91.0071 71.7929 90.9826 85.251 90.9755 94.5511C90.9755 99.2047 90.9755 102.811 90.9475 105.264C90.8937 105.809 90.666 106.321 90.2982 106.726C90.0368 107.018 89.7095 107.244 89.3435 107.384C89.119 107.473 88.8824 107.527 88.6416 107.545L88.3854 107.566Z" fill="#263238"/>
<path d="M76.575 32.0548H41.8288C40.6076 32.0548 39.6177 33.0462 39.6177 34.2691V34.4835C39.6177 35.7065 40.6076 36.6978 41.8288 36.6978H76.575C77.7962 36.6978 78.7861 35.7065 78.7861 34.4835V34.2691C78.7861 33.0462 77.7962 32.0548 76.575 32.0548Z" fill="#E0E0E0"/>
<path d="M33.5915 29.2887H26.4598C25.4634 29.2887 24.6558 30.0975 24.6558 31.0953V38.2373C24.6558 39.2351 25.4634 40.0439 26.4598 40.0439H33.5915C34.5878 40.0439 35.3955 39.2351 35.3955 38.2373V31.0953C35.3955 30.0975 34.5878 29.2887 33.5915 29.2887Z" fill="#FF725E"/>
<path d="M26.3159 34.8209L27.3969 33.7384L29.4852 35.5942L32.9703 32.0934L33.9741 33.176L29.3308 37.6855L26.3159 34.8209Z" fill="white"/>
<path d="M76.575 48.743H41.8288C40.6076 48.743 39.6177 49.7344 39.6177 50.9573V51.1717C39.6177 52.3946 40.6076 53.386 41.8288 53.386H76.575C77.7962 53.386 78.7861 52.3946 78.7861 51.1717V50.9573C78.7861 49.7344 77.7962 48.743 76.575 48.743Z" fill="#E0E0E0"/>
<path d="M33.5915 45.9733H26.4598C25.4634 45.9733 24.6558 46.7822 24.6558 47.7799V54.9219C24.6558 55.9197 25.4634 56.7285 26.4598 56.7285H33.5915C34.5878 56.7285 35.3955 55.9197 35.3955 54.9219V47.7799C35.3955 46.7822 34.5878 45.9733 33.5915 45.9733Z" fill="#FF725E"/>
<path d="M26.3159 51.5091L27.3969 50.4231L29.4852 52.2824L32.9703 48.7781L33.9741 49.8607L29.3308 54.3702L26.3159 51.5091Z" fill="white"/>
<path d="M76.575 65.4276H41.8288C40.6076 65.4276 39.6177 66.419 39.6177 67.6419V67.8563C39.6177 69.0793 40.6076 70.0706 41.8288 70.0706H76.575C77.7962 70.0706 78.7861 69.0793 78.7861 67.8563V67.6419C78.7861 66.419 77.7962 65.4276 76.575 65.4276Z" fill="#E0E0E0"/>
<path d="M33.5915 62.6615H26.4598C25.4634 62.6615 24.6558 63.4703 24.6558 64.4681V71.6101C24.6558 72.6079 25.4634 73.4167 26.4598 73.4167H33.5915C34.5878 73.4167 35.3955 72.6079 35.3955 71.6101V64.4681C35.3955 63.4703 34.5878 62.6615 33.5915 62.6615Z" fill="#FF725E"/>
<path d="M26.3159 68.1938L27.3969 67.1112L29.4852 68.967L32.9703 65.4663L33.9741 66.5489L29.3308 71.0583L26.3159 68.1938Z" fill="white"/>
<path d="M76.575 82.1158H41.8288C40.6076 82.1158 39.6177 83.1072 39.6177 84.3301V84.5445C39.6177 85.7674 40.6076 86.7588 41.8288 86.7588H76.575C77.7962 86.7588 78.7861 85.7674 78.7861 84.5445V84.3301C78.7861 83.1072 77.7962 82.1158 76.575 82.1158Z" fill="#E0E0E0"/>
<path d="M33.5915 79.3461H26.4598C25.4634 79.3461 24.6558 80.155 24.6558 81.1527V88.2948C24.6558 89.2925 25.4634 90.1014 26.4598 90.1014H33.5915C34.5878 90.1014 35.3955 89.2925 35.3955 88.2948V81.1527C35.3955 80.155 34.5878 79.3461 33.5915 79.3461Z" fill="#FF725E"/>
<path d="M26.3159 84.8819L27.3969 83.7959L29.4852 85.6552L32.9703 82.1509L33.9741 83.2335L29.3308 87.743L26.3159 84.8819Z" fill="white"/>
<path d="M31.7106 7.76773C31.5422 7.22294 31.3035 6.60082 30.5208 6.60082C30.4116 6.59629 30.3027 6.6146 30.201 6.6546C30.0992 6.6946 30.0069 6.7554 29.93 6.83313C29.853 6.91085 29.7931 7.00379 29.754 7.10601C29.715 7.20823 29.6976 7.31748 29.7031 7.42679C29.7031 7.89777 30.0189 8.17896 30.756 8.55152C31.6685 9.00493 32.2441 9.44779 32.2441 10.3089C32.2441 11.3141 31.4123 12.0452 30.1944 12.0452C29.7079 12.0287 29.2265 11.9399 28.766 11.7816C28.7168 11.5848 28.5694 10.6991 28.5098 10.2984L28.8432 10.221C29.0117 10.7588 29.489 11.6867 30.3243 11.6867C30.4386 11.6946 30.5533 11.6773 30.6602 11.6359C30.7671 11.5946 30.8636 11.5302 30.9429 11.4474C31.0223 11.3646 31.0825 11.2654 31.1193 11.1567C31.1561 11.0481 31.1687 10.9326 31.1561 10.8186C31.1561 10.3265 30.8508 10.0348 30.1348 9.65165C29.2503 9.17364 28.6747 8.74835 28.6747 7.86263C28.6747 6.9769 29.3767 6.25989 30.6472 6.25989C31.056 6.27195 31.4627 6.32374 31.8615 6.41454C31.8966 6.73087 31.9563 7.17373 32.023 7.71149L31.7106 7.76773Z" fill="black"/>
<path d="M37.1331 11.6972C36.6207 11.764 36.0802 11.873 35.5151 12.003V11.4231C35.2065 11.7511 34.7905 11.9569 34.3429 12.003C33.6409 12.003 33.2268 11.5426 33.2268 10.7834V9.02601C33.2268 8.63236 33.1776 8.59018 32.946 8.53043L32.7705 8.48122V8.20707C33.2022 8.18949 33.8761 8.12974 34.3499 8.06296C34.3499 8.41444 34.3253 8.86433 34.3253 9.34937V10.5936C34.3253 11.1454 34.6061 11.3317 34.9044 11.3317C35.0182 11.3398 35.1323 11.3219 35.2381 11.2793C35.3439 11.2366 35.4387 11.1704 35.5151 11.0857V9.02953C35.5151 8.63939 35.473 8.56909 35.2343 8.52691L34.9816 8.47771V8.20355C35.473 8.18598 36.196 8.12623 36.6207 8.05945V10.8361C36.6207 11.279 36.6733 11.3739 36.9471 11.3985H37.1331V11.6972Z" fill="black"/>
<path d="M39.2951 8.1789C39.4823 8.08211 39.6882 8.02696 39.8987 8.01722C40.1311 8.01754 40.361 8.06471 40.5747 8.15593C40.7885 8.24715 40.9817 8.38055 41.1428 8.54817C41.304 8.71578 41.4298 8.91418 41.5127 9.13154C41.5956 9.34889 41.634 9.58075 41.6255 9.81327C41.6228 10.1042 41.5627 10.3917 41.4488 10.6594C41.3348 10.927 41.1693 11.1695 40.9616 11.3729C40.7539 11.5763 40.5081 11.7367 40.2384 11.8448C39.9687 11.9529 39.6803 12.0067 39.3898 12.003C38.8695 11.9996 38.3547 11.8958 37.8736 11.6972C37.8736 11.4898 37.8736 11.2543 37.8736 11.0399V7.09635C37.8736 6.61131 37.821 6.54101 37.3472 6.50938V6.21766C37.895 6.1602 38.438 6.06389 38.9722 5.92944V8.32301L39.2951 8.1789ZM38.9827 10.9626C38.9828 11.0619 38.9994 11.1605 39.0318 11.2543C39.0898 11.3664 39.176 11.4614 39.2819 11.5298C39.3877 11.5982 39.5097 11.6378 39.6355 11.6445C40.0883 11.6445 40.4182 11.1419 40.4182 10.0945C40.4182 9.04705 39.8812 8.57959 39.3653 8.57959C39.233 8.57806 39.1014 8.59825 38.9757 8.63934L38.9827 10.9626Z" fill="black"/>
<path d="M44.5876 9.22635C44.3665 8.62884 44.0787 8.3582 43.6786 8.3582C43.6182 8.35475 43.5578 8.36394 43.5011 8.38518C43.4445 8.40643 43.3929 8.43926 43.3496 8.4816C43.3063 8.52393 43.2724 8.57482 43.2498 8.63104C43.2273 8.68726 43.2168 8.74756 43.2188 8.80809C43.2188 9.10685 43.4294 9.26853 43.8716 9.46536C44.5736 9.77114 45.0298 10.0594 45.0298 10.7342C45.0298 11.5848 44.2191 12.003 43.482 12.003C43.1083 11.9896 42.741 11.9024 42.401 11.7464C42.3659 11.5496 42.2887 10.9627 42.2642 10.6639L42.5449 10.6147C42.7239 11.1489 43.0714 11.6691 43.6259 11.6691C43.6881 11.6768 43.7512 11.6709 43.8108 11.6517C43.8704 11.6326 43.9252 11.6007 43.9713 11.5582C44.0173 11.5157 44.0536 11.4637 44.0776 11.4058C44.1017 11.3479 44.1128 11.2854 44.1103 11.2227C44.1103 10.9591 43.9839 10.7658 43.454 10.5198C42.924 10.2738 42.3484 9.95039 42.3484 9.24041C42.3484 8.53042 42.9029 8.04187 43.8049 8.04187C44.1142 8.04768 44.4217 8.09015 44.721 8.1684C44.749 8.39686 44.8263 8.94517 44.8578 9.17363L44.5876 9.22635Z" fill="black"/>
<path d="M48.9534 11.0751C48.7951 11.3341 48.5789 11.5526 48.3219 11.7136C48.0649 11.8747 47.7741 11.9737 47.4723 12.003C47.2283 12.0122 46.9849 11.9713 46.7572 11.8829C46.5295 11.7946 46.3222 11.6605 46.148 11.4891C45.9738 11.3176 45.8365 11.1123 45.7443 10.8858C45.6522 10.6593 45.6072 10.4164 45.6122 10.1718C45.6182 9.85133 45.6999 9.53681 45.8506 9.25397C46.0013 8.97113 46.2166 8.72802 46.4791 8.5445C46.9018 8.21107 47.4222 8.02585 47.9602 8.01728C48.2241 8.0088 48.4845 8.07981 48.7078 8.22114C48.7598 8.25446 48.8021 8.30092 48.8304 8.35584C48.8588 8.41076 48.8721 8.4722 48.8692 8.53396C48.8577 8.6408 48.8149 8.74185 48.7462 8.82441C48.6775 8.90696 48.586 8.96732 48.4831 8.99791C48.447 8.99613 48.4117 8.98713 48.3791 8.97144C48.3466 8.95574 48.3175 8.93367 48.2936 8.90652C48.0611 8.67185 47.7575 8.52104 47.4302 8.47772C47.1003 8.47772 46.7002 8.80108 46.7002 9.71843C46.7002 10.8537 47.525 11.2192 47.89 11.2192C48.2287 11.2279 48.5569 11.1015 48.8025 10.8678L48.9534 11.0751Z" fill="black"/>
<path d="M51.5157 11.901H49.2695V11.6093C49.7223 11.5601 49.7644 11.5179 49.7644 11.0048V9.14194C49.7644 8.71313 49.7293 8.67096 49.3292 8.5866V8.32299C49.8485 8.26461 50.3609 8.15632 50.8594 7.99963V8.92051C51.2455 8.33002 51.5614 8.01721 51.9123 8.01721C51.9827 8.01192 52.0534 8.02113 52.12 8.04427C52.1867 8.06742 52.2479 8.104 52.2998 8.15176C52.3518 8.19953 52.3934 8.25746 52.4222 8.32197C52.4509 8.38648 52.4661 8.45621 52.4669 8.52685C52.4665 8.67568 52.4259 8.82162 52.3492 8.94913C52.2726 9.07664 52.1628 9.18093 52.0317 9.2509C51.9889 9.27239 51.9405 9.27988 51.8933 9.27232C51.846 9.26475 51.8024 9.2425 51.7684 9.20872C51.6246 9.08921 51.5122 8.95214 51.3683 8.95214C51.2244 8.95214 51.0174 9.06461 50.8735 9.38797V11.0048C50.8735 11.5179 50.9331 11.5425 51.5298 11.6093L51.5157 11.901Z" fill="black"/>
<path d="M52.8706 11.9011V11.6094C53.3304 11.5496 53.3795 11.518 53.3795 10.9064V9.25094C53.3795 8.68155 53.3374 8.6464 52.9373 8.59368V8.3125C53.4586 8.25469 53.9741 8.15239 54.4781 8.00671V10.9134C54.4781 11.4899 54.5132 11.5496 55.0045 11.6164V11.9081L52.8706 11.9011ZM53.8674 7.48652C53.7077 7.48571 53.5546 7.42303 53.4401 7.31164C53.3256 7.20025 53.2586 7.04878 53.2532 6.88901C53.2541 6.8084 53.2709 6.72876 53.3027 6.65468C53.3344 6.5806 53.3805 6.51354 53.4382 6.45735C53.496 6.40117 53.5642 6.35697 53.6391 6.3273C53.7139 6.29763 53.7939 6.28307 53.8744 6.28447C53.9545 6.28257 54.0342 6.29686 54.1087 6.32649C54.1832 6.35611 54.2509 6.40045 54.3079 6.45687C54.3649 6.5133 54.41 6.58064 54.4404 6.65489C54.4709 6.72913 54.486 6.80876 54.4851 6.88901C54.4837 6.96887 54.4666 7.04767 54.4349 7.12092C54.4031 7.19416 54.3572 7.26042 54.2998 7.31591C54.2425 7.3714 54.1747 7.41502 54.1005 7.4443C54.0263 7.47357 53.9471 7.48792 53.8674 7.48652Z" fill="black"/>
<path d="M55.338 8.31253C55.8678 8.2207 56.3917 8.09746 56.9069 7.94348V8.55857C56.9069 8.55857 57.479 8.20709 57.5035 8.20709C57.6669 8.09691 57.8578 8.03481 58.0546 8.02784C58.9917 8.02784 59.5287 8.88544 59.5287 9.70438C59.5287 10.9486 58.5389 11.7746 57.4439 12.0136C57.2617 12.0201 57.0798 11.9939 56.9069 11.9363V12.9591C56.9069 13.4371 56.949 13.4863 57.5351 13.5636V13.8448H55.2573V13.5671C55.7768 13.5144 55.8119 13.4406 55.8119 12.9696V9.15608C55.8119 8.69564 55.7592 8.64644 55.3416 8.59371L55.338 8.31253ZM56.9069 11.279C57.0986 11.4606 57.346 11.572 57.6088 11.5953C58.0581 11.5953 58.3915 11.04 58.3915 10.1191C58.3915 9.0647 57.8721 8.67104 57.4474 8.67104C57.2526 8.67458 57.0642 8.74116 56.9104 8.86084L56.9069 11.279Z" fill="black"/>
<path d="M63.4911 11.0751C63.3323 11.3337 63.1161 11.552 62.8591 11.7129C62.6022 11.8739 62.3116 11.9732 62.01 12.003C61.7657 12.0121 61.5222 11.9713 61.2943 11.8829C61.0664 11.7946 60.8589 11.6606 60.6845 11.4892C60.51 11.3178 60.3723 11.1126 60.2798 10.8861C60.1873 10.6596 60.1418 10.4165 60.1463 10.1718C60.1525 9.85095 60.2346 9.53612 60.3859 9.25322C60.5372 8.97031 60.7534 8.72741 61.0167 8.54448C61.4385 8.21177 61.9575 8.02659 62.4943 8.01726C62.7583 8.00812 63.0189 8.07919 63.2419 8.22112C63.2945 8.254 63.3375 8.30028 63.3665 8.35523C63.3955 8.41018 63.4094 8.47185 63.4068 8.53394C63.3952 8.6402 63.3527 8.74072 63.2848 8.82315C63.2168 8.90558 63.1263 8.96632 63.0243 8.99789C62.9882 8.99611 62.9528 8.98711 62.9203 8.97142C62.8877 8.95572 62.8586 8.93365 62.8347 8.9065C62.5988 8.66247 62.2868 8.50626 61.9503 8.46364C61.6204 8.46364 61.2203 8.787 61.2203 9.70436C61.2203 10.8396 62.0451 11.2052 62.4101 11.2052C62.5772 11.2096 62.7436 11.1808 62.8997 11.1204C63.0557 11.0601 63.1982 10.9695 63.3191 10.8537L63.4911 11.0751Z" fill="black"/>
<path d="M63.8491 11.9011V11.6094C64.3089 11.5496 64.358 11.518 64.358 10.9064V9.25094C64.358 8.68155 64.3159 8.6464 63.9158 8.59368V8.31249C64.4372 8.25469 64.9526 8.15239 65.4566 8.00671V10.9134C65.4566 11.4899 65.4917 11.5496 65.983 11.6164V11.9081L63.8491 11.9011ZM64.8459 7.48652C64.6865 7.48484 64.5339 7.42189 64.4196 7.31067C64.3052 7.19946 64.238 7.04849 64.2317 6.88901C64.2326 6.80839 64.2494 6.72876 64.2812 6.65468C64.3129 6.5806 64.359 6.51353 64.4167 6.45735C64.4745 6.40117 64.5427 6.35697 64.6176 6.3273C64.6924 6.29763 64.7724 6.28307 64.8529 6.28447C64.9332 6.28258 65.013 6.29686 65.0877 6.32644C65.1624 6.35602 65.2304 6.40031 65.2876 6.45668C65.3449 6.51305 65.3903 6.58036 65.4211 6.65463C65.452 6.72889 65.4676 6.80859 65.4671 6.88901C65.4634 7.0506 65.396 7.20416 65.2796 7.31612C65.1632 7.42809 65.0073 7.48935 64.8459 7.48652Z" fill="black"/>
<path d="M68.4887 8.0173C68.745 8.00821 69.0005 8.05144 69.2397 8.14434C69.4789 8.23724 69.6967 8.37789 69.8798 8.55772C70.063 8.73755 70.2078 8.95282 70.3053 9.19043C70.4028 9.42804 70.451 9.68302 70.4471 9.93988C70.4596 10.4722 70.2606 10.9876 69.8936 11.3729C69.5267 11.7582 69.0219 11.9817 68.4904 11.9943C67.9589 12.0069 67.4442 11.8075 67.0595 11.44C66.6747 11.0725 66.4515 10.5671 66.439 10.0348C66.438 9.76659 66.4906 9.5009 66.5937 9.25338C66.6968 9.00585 66.8483 8.78148 67.0393 8.59348C67.2303 8.40548 67.4569 8.25765 67.7058 8.1587C67.9547 8.05975 68.2209 8.01167 68.4887 8.0173ZM68.3869 8.36878C68.0359 8.36878 67.6639 8.75189 67.6639 9.79929C67.6639 10.8467 68.0148 11.6656 68.5483 11.6656C68.8712 11.6656 69.2222 11.4407 69.2222 10.2C69.2187 8.99792 68.9098 8.35823 68.3834 8.35823L68.3869 8.36878Z" fill="black"/>
<path d="M73.4022 11.9011V11.6093C73.7532 11.5601 73.7848 11.525 73.7848 10.938V9.47938C73.7848 8.87484 73.4865 8.68856 73.1881 8.68856C72.9532 8.6983 72.7288 8.78893 72.5529 8.94513V11.0048C72.5529 11.525 72.5845 11.5601 72.9354 11.6093V11.9011H70.9595V11.6093C71.4017 11.5355 71.4543 11.525 71.4543 10.9732V9.21577C71.4543 8.70261 71.3842 8.67801 71.0121 8.60069V8.32653C71.5391 8.2662 72.0595 8.15797 72.5669 8.00317C72.5669 8.12268 72.5669 8.42143 72.5669 8.61826C72.7354 8.49876 72.9179 8.37223 73.1109 8.26678C73.3036 8.12546 73.5355 8.04804 73.7743 8.04535C74.4762 8.04535 74.8974 8.54796 74.8974 9.41611V11.0259C74.8974 11.5531 74.9465 11.5777 75.3572 11.6375V11.9292L73.4022 11.9011Z" fill="black"/>
<path d="M79.2074 11.0645C79.0443 11.336 78.8173 11.5634 78.5464 11.727C78.2754 11.8906 77.9686 11.9853 77.6526 12.003C77.4096 12.0119 77.1674 11.9696 76.9417 11.8787C76.7161 11.7878 76.5121 11.6504 76.3429 11.4753C76.1738 11.3003 76.0433 11.0916 75.9599 10.8628C75.8766 10.634 75.8423 10.3901 75.8592 10.1472C75.8679 9.57217 76.0965 9.02242 76.4979 8.61121C76.844 8.24487 77.3212 8.0312 77.8246 8.01721C78.1939 8.01718 78.5484 8.16289 78.8112 8.42276C79.0739 8.68263 79.2239 9.03573 79.2285 9.40555C79.2285 9.54966 79.2285 9.69376 79.1162 9.71836C78.9547 9.76054 77.7544 9.82029 76.9296 9.85544C76.9647 10.7587 77.4666 11.2192 78.0773 11.2192C78.4373 11.2149 78.7832 11.0786 79.0495 10.8361L79.2074 11.0645ZM77.6597 8.36518C77.3087 8.36518 77.0314 8.76586 76.9788 9.41961L78.0106 9.39501C78.13 9.39501 78.1791 9.3704 78.1791 9.2263C78.1896 8.81507 77.9931 8.36518 77.6597 8.36518Z" fill="black"/>
<path d="M82.1382 9.22635C81.9171 8.62884 81.6258 8.3582 81.2292 8.3582C81.1692 8.35578 81.1094 8.3657 81.0534 8.38736C80.9974 8.40902 80.9465 8.44196 80.9037 8.48413C80.8609 8.5263 80.8272 8.5768 80.8048 8.63253C80.7823 8.68825 80.7714 8.74801 80.7729 8.80809C80.7729 9.10685 80.987 9.26853 81.4292 9.46536C82.1312 9.77114 82.5839 10.0594 82.5839 10.7342C82.5839 11.5848 81.7767 12.003 81.0361 12.003C80.6625 11.9896 80.2951 11.9024 79.9551 11.7464C79.9236 11.5496 79.8463 10.9627 79.8218 10.6639L80.1026 10.6147C80.278 11.1489 80.629 11.6691 81.18 11.6691C81.2423 11.6768 81.3056 11.6708 81.3654 11.6517C81.4252 11.6325 81.4801 11.6007 81.5265 11.5583C81.5728 11.5159 81.6094 11.4639 81.6338 11.406C81.6583 11.3481 81.6699 11.2856 81.6679 11.2227C81.6679 10.9591 81.538 10.7658 81.0116 10.5198C80.4851 10.2738 79.906 9.95039 79.906 9.24041C79.906 8.53042 80.457 8.04187 81.359 8.04187C81.6695 8.04773 81.9781 8.0902 82.2786 8.1684C82.3031 8.39686 82.3804 8.94517 82.4155 9.17363L82.1382 9.22635Z" fill="black"/>
</g>
<path d="M129.548 97H112.459C109.879 97 107.788 99.0945 107.788 101.678V118.792C107.788 121.375 109.879 123.47 112.459 123.47H129.548C132.128 123.47 134.219 121.375 134.219 118.792V101.678C134.219 99.0945 132.128 97 129.548 97Z" fill="#E0E0E0"/>
<path d="M124.803 97H107.714C105.134 97 103.042 99.0945 103.042 101.678V118.792C103.042 121.375 105.134 123.47 107.714 123.47H124.803C127.383 123.47 129.474 121.375 129.474 118.792V101.678C129.474 99.0945 127.383 97 124.803 97Z" fill="#EBEBEB"/>
<path d="M107.131 110.616L109.795 107.952L114.93 112.521L123.504 103.9L125.979 106.567L114.551 117.663L107.131 110.616Z" fill="white"/>
<path d="M68.5175 102.683H57.3531C54.7731 102.683 52.6816 104.778 52.6816 107.362V118.542C52.6816 121.126 54.7731 123.22 57.3531 123.22H68.5175C71.0975 123.22 73.1889 121.126 73.1889 118.542V107.362C73.1889 104.778 71.0975 102.683 68.5175 102.683Z" fill="#E0E0E0"/>
<path d="M64.8359 102.683H53.6714C51.0915 102.683 49 104.778 49 107.362V118.542C49 121.126 51.0915 123.22 53.6714 123.22H64.8359C67.4158 123.22 69.5073 121.126 69.5073 118.542V107.362C69.5073 104.778 67.4158 102.683 64.8359 102.683Z" fill="#EBEBEB"/>
<path d="M52.1729 113.245L54.2401 111.179L58.2236 114.725L64.8745 108.036L66.7943 110.103L57.9288 118.714L52.1729 113.245Z" fill="white"/>
<path d="M87.3538 98.8242H72.9429C70.363 98.8242 68.2715 100.919 68.2715 103.502V117.934C68.2715 120.518 70.363 122.612 72.9429 122.612H87.3538C89.9338 122.612 92.0253 120.518 92.0253 117.934V103.502C92.0253 100.919 89.9338 98.8242 87.3538 98.8242Z" fill="#FF725E"/>
<g opacity="0.3">
<path d="M87.3538 98.8242H72.9429C70.363 98.8242 68.2715 100.919 68.2715 103.502V117.934C68.2715 120.518 70.363 122.612 72.9429 122.612H87.3538C89.9338 122.612 92.0253 120.518 92.0253 117.934V103.502C92.0253 100.919 89.9338 98.8242 87.3538 98.8242Z" fill="black"/>
</g>
<path d="M83.0863 98.8242H68.6753C66.0954 98.8242 64.0039 100.919 64.0039 103.502V117.934C64.0039 120.518 66.0954 122.612 68.6753 122.612H83.0863C85.6662 122.612 87.7577 120.518 87.7577 117.934V103.502C87.7577 100.919 85.6662 98.8242 83.0863 98.8242Z" fill="#FF725E"/>
<path d="M67.6821 111.059L70.0758 108.666L74.6875 112.771L82.3949 105.024L84.6165 107.421L74.3471 117.393L67.6821 111.059Z" fill="white"/>
<path d="M99.8275 107.397H90.411C88.8157 107.397 87.5225 108.692 87.5225 110.289V119.72C87.5225 121.317 88.8157 122.612 90.411 122.612H99.8275C101.423 122.612 102.716 121.317 102.716 119.72V110.289C102.716 108.692 101.423 107.397 99.8275 107.397Z" fill="#263238"/>
<path d="M97.1005 107.397H87.6839C86.0886 107.397 84.7954 108.692 84.7954 110.289V119.72C84.7954 121.317 86.0886 122.612 87.6839 122.612H97.1005C98.6958 122.612 99.989 121.317 99.989 119.72V110.289C99.989 108.692 98.6958 107.397 97.1005 107.397Z" fill="#455A64"/>
<path d="M87.147 115.224L88.6772 113.692L91.6289 116.317L96.5565 111.361L97.978 112.897L91.4113 119.273L87.147 115.224Z" fill="white"/>
<defs>
<clipPath id="clip0_401_1037">
<rect width="91" height="154" fill="white"/>
</clipPath>
</defs>
</svg>
