<svg width="97" height="131" viewBox="0 0 97 131" fill="none" xmlns="http://www.w3.org/2000/svg">
<g clip-path="url(#clip0_44_2903)">
<path d="M39.9789 2.60132L5.23822 22.6961C4.87172 22.938 4.56674 23.2623 4.34767 23.6434C4.1286 24.0244 4.00151 24.4515 3.97656 24.8905V103.395C3.97656 104.2 4.55664 104.529 5.23822 104.125L39.9789 84.0298C40.3458 83.7885 40.6512 83.4643 40.8703 83.0831C41.0894 82.702 41.2162 82.2747 41.2405 81.8355V3.33373C41.2405 2.52575 40.6721 2.19733 39.9789 2.60132ZM39.4249 74.6015C39.4249 75.2932 38.9405 75.7321 38.3402 76.0779L6.75222 94.3504C6.17214 94.6963 5.67038 94.4173 5.67038 93.7227V32.2291C5.69134 31.8523 5.80011 31.4857 5.98798 31.1586C6.17586 30.8316 6.4376 30.5532 6.75222 30.3458L38.3373 12.0762C38.9376 11.7303 39.422 12.0122 39.422 12.701L39.4249 74.6015Z" fill="#37474F"/>
<path d="M5.08139 104.203C4.70447 104.363 4.2972 104.439 3.88795 104.426C3.4787 104.412 3.07732 104.309 2.71179 104.125L1.2616 103.288C0.892473 103.049 0.585131 102.726 0.364804 102.345C0.144476 101.964 0.0174467 101.536 -0.00585938 101.096V22.5973C0.00172778 22.2699 0.07574 21.9475 0.211668 21.6498C0.257042 21.5504 0.307378 21.4534 0.362487 21.3591V21.3591L4.33889 23.6581C4.25495 23.8079 4.18131 23.9633 4.11847 24.1231C4.02271 24.3729 3.97071 24.6374 3.96475 24.9049V103.395C3.97635 104.133 4.46071 104.476 5.08139 104.203Z" fill="#263238"/>
<path d="M22.9071 87.1774C24.0092 86.5409 24.9026 87.0583 24.9026 88.34C24.8652 89.0336 24.6649 89.7085 24.3182 90.31C23.9715 90.9115 23.488 91.4225 22.9071 91.8015C21.8079 92.4409 20.9146 91.9236 20.9146 90.6389C20.9526 89.9458 21.1527 89.2713 21.4988 88.67C21.845 88.0687 22.3274 87.5574 22.9071 87.1774Z" fill="#27DEBF"/>
<path d="M22.6028 14.3431C23.0697 14.0728 23.4497 14.2907 23.4497 14.8313C23.434 15.126 23.3491 15.4127 23.2019 15.6682C23.0547 15.9238 22.8495 16.1409 22.6028 16.302C22.1358 16.5723 21.7559 16.3543 21.7559 15.8137C21.7716 15.5191 21.8565 15.2323 22.0036 14.9768C22.1508 14.7212 22.3561 14.5041 22.6028 14.3431Z" fill="black"/>
<path d="M19.34 19.5049L25.8774 15.7266C26.269 15.5028 26.5851 15.6626 26.5851 16.087C26.5657 16.3226 26.4916 16.5504 26.3688 16.7523C26.2459 16.9541 26.0777 17.1244 25.8774 17.2495L19.34 21.0278C18.9485 21.2516 18.6323 21.0918 18.6323 20.6674C18.6517 20.4318 18.7258 20.204 18.8487 20.0021C18.9716 19.8003 19.1398 19.63 19.34 19.5049Z" fill="black"/>
<path d="M39.4249 74.5375C39.4249 75.2292 38.9406 75.668 38.3402 76.0139L6.75225 94.2864C6.17217 94.6323 5.67041 94.3533 5.67041 93.6586V32.1651C5.69137 31.7883 5.80014 31.4217 5.98801 31.0946C6.17589 30.7676 6.43763 30.4892 6.75225 30.2818L38.3373 12.0005C38.9377 11.6518 39.422 11.9337 39.422 12.6254L39.4249 74.5375Z" fill="#27DEBF" stroke="white" stroke-miterlimit="10"/>
<path d="M41.2262 3.1304C41.1363 2.47355 40.6113 2.23523 39.979 2.60144L5.2384 22.6963C4.86495 22.9298 4.55819 23.2562 4.34799 23.6437L0.371582 21.3448C0.584944 20.9592 0.893536 20.6349 1.2678 20.4031L35.9997 0.305383C36.3916 0.106228 36.8249 0.00244141 37.2643 0.00244141C37.7037 0.00244141 38.137 0.106228 38.5289 0.305383L39.979 1.13952C40.3171 1.36248 40.6034 1.65562 40.8186 1.99911C41.0338 2.34259 41.1728 2.7284 41.2262 3.1304V3.1304Z" fill="#455A64"/>
<path d="M15.085 40.4832C15.3834 40.294 15.7245 40.1831 16.0769 40.1606C16.3563 40.1467 16.6313 40.2344 16.8513 40.4077C17.0911 40.6141 17.268 40.884 17.3618 41.1866C17.4946 41.588 17.565 42.0076 17.5706 42.4305C17.5706 42.5991 17.5706 42.7531 17.5706 42.8955V43.7006C17.5706 43.8401 17.5706 43.9912 17.5706 44.154C17.5553 44.6569 17.4863 45.1568 17.3647 45.645C17.2496 46.1147 17.0823 46.57 16.8658 47.0023C16.662 47.4121 16.4066 47.794 16.1059 48.1387C15.8252 48.4633 15.493 48.7392 15.1227 48.9554L12.9996 50.1848C12.9791 50.2026 12.9528 50.2124 12.9256 50.2124C12.8985 50.2124 12.8722 50.2026 12.8517 50.1848C12.8281 50.1586 12.8102 50.1277 12.7992 50.0942C12.7882 50.0606 12.7844 50.0252 12.7879 49.99V42.1428C12.7886 42.0499 12.8104 41.9585 12.8517 41.8754C12.8817 41.801 12.9332 41.7372 12.9996 41.6923L15.085 40.4832ZM16.1146 43.224C16.0827 42.3142 15.726 42.0614 15.0444 42.4479L14.2439 42.913V47.5167L15.085 47.0313C15.7463 46.6438 16.0895 45.9802 16.1146 45.0404C16.1146 44.8661 16.1146 44.7062 16.1146 44.5551V43.6832C16.1204 43.5417 16.1204 43.3867 16.1146 43.2181V43.224Z" fill="white"/>
<path d="M21.2427 36.9143C21.3472 36.8562 21.4284 36.8533 21.4835 36.9143C21.5387 36.9696 21.5778 37.039 21.5966 37.1149L23.3136 43.7676C23.331 43.8202 23.3407 43.875 23.3426 43.9304C23.3415 44.0057 23.3247 44.0799 23.2933 44.1483C23.2687 44.209 23.2262 44.2607 23.1715 44.2966L22.1796 44.8778C22.0751 44.9389 21.9997 44.9476 21.9562 44.904C21.9119 44.8635 21.8823 44.8093 21.8721 44.75L21.6517 43.878L19.5605 45.0871L19.3401 46.2235C19.3237 46.309 19.2965 46.3921 19.2589 46.4706C19.2089 46.5693 19.13 46.6505 19.0327 46.7031L18.0436 47.2843C18.0274 47.3003 18.0055 47.3093 17.9827 47.3093C17.9599 47.3093 17.9381 47.3003 17.9218 47.2843C17.9026 47.2633 17.8881 47.2385 17.8791 47.2114C17.8701 47.1844 17.8669 47.1558 17.8696 47.1274C17.8741 47.0597 17.8848 46.9926 17.9015 46.9269L19.6156 38.289C19.6407 38.1747 19.6786 38.0635 19.7287 37.9577C19.7777 37.8431 19.8621 37.7474 19.9695 37.6845L21.2427 36.9143ZM19.9695 42.9567L21.2427 42.2185L20.6076 39.6754L19.9695 42.9567Z" fill="white"/>
<path d="M27.4727 33.3102C27.4939 33.2928 27.5206 33.2832 27.5481 33.2832C27.5756 33.2832 27.6022 33.2928 27.6235 33.3102C27.646 33.337 27.663 33.368 27.6734 33.4015C27.6839 33.4349 27.6876 33.4701 27.6844 33.505V34.7896C27.6839 34.8821 27.6631 34.9734 27.6235 35.057C27.5931 35.1321 27.5405 35.196 27.4727 35.2401L26.0834 36.0539V42.2794C26.0827 42.3722 26.0609 42.4636 26.0196 42.5468C25.9895 42.6212 25.938 42.6849 25.8717 42.7299L24.8391 43.3257C24.8186 43.3435 24.7923 43.3533 24.7652 43.3533C24.738 43.3533 24.7117 43.3435 24.6912 43.3257C24.6676 43.2995 24.6497 43.2686 24.6387 43.2351C24.6277 43.2015 24.6239 43.1661 24.6274 43.1309V36.8967L23.2439 37.696C23.2229 37.714 23.1962 37.7239 23.1685 37.7239C23.1409 37.7239 23.1141 37.714 23.0931 37.696C23.0482 37.6415 23.0263 37.5716 23.0322 37.5013V36.2137C23.033 36.1212 23.0537 36.03 23.0931 35.9463C23.1251 35.8722 23.1774 35.8088 23.2439 35.7632L27.4727 33.3102Z" fill="white"/>
<path d="M30.7529 31.4124C30.8573 31.3542 30.9385 31.3513 30.9936 31.4124C31.0488 31.4677 31.0879 31.537 31.1067 31.6129L32.8208 38.2656C32.8388 38.3182 32.8496 38.3729 32.8527 38.4284C32.852 38.5041 32.8342 38.5786 32.8005 38.6464C32.7778 38.7082 32.7349 38.7605 32.6787 38.7946L31.6897 39.3759C31.5853 39.4379 31.5099 39.4466 31.4635 39.4021C31.4213 39.3602 31.393 39.3065 31.3822 39.248L31.1618 38.3761L29.0706 39.5852L28.8502 40.7216C28.8345 40.8076 28.8062 40.8909 28.7661 40.9686C28.7181 41.0679 28.6399 41.1493 28.5428 41.2011L27.5508 41.7824C27.5342 41.7977 27.5125 41.8062 27.4899 41.8062C27.4674 41.8062 27.4456 41.7977 27.429 41.7824C27.3925 41.7387 27.3748 41.6822 27.3797 41.6254C27.3829 41.5578 27.3926 41.4906 27.4087 41.4249L29.1258 32.7871C29.1508 32.6727 29.1888 32.5616 29.2389 32.4558C29.2878 32.3412 29.3722 32.2454 29.4796 32.1826L30.7529 31.4124ZM29.4796 37.4548L30.7529 36.7049L30.1148 34.1618L29.4796 37.4548Z" fill="white"/>
<path d="M7.7002 59.2439L38.7052 41.3057V45.61L7.7002 63.5512V59.2439Z" fill="#455A64"/>
<path d="M8.93896 59.962V61.3978L37.467 44.8923V43.4595L8.93896 59.962Z" fill="#263238"/>
<path d="M7.70034 59.244L6.45898 58.5262L37.4668 40.5879L38.7053 41.3058L7.70034 59.244Z" fill="#37474F"/>
<path d="M6.45898 58.5261L7.70034 59.244V63.5513L6.45898 62.8334V58.5261Z" fill="#263238"/>
<path d="M97 115.221L69.7104 131V130.3L96.9971 114.521L97 115.221Z" fill="#37474F"/>
<path d="M43.668 72.0961L37.6555 75.5838L33.9605 77.7171C33.8415 77.7781 33.7255 77.8478 33.6124 77.9205C32.8914 78.3622 32.2965 78.9831 31.8854 79.723C31.4743 80.4629 31.2609 81.2967 31.266 82.1435V99.4511C31.2685 100.222 31.0893 100.982 30.743 101.671C30.3968 102.359 29.8933 102.956 29.2735 103.412C28.414 104.062 27.3684 104.417 26.2919 104.424C25.4236 104.422 24.5711 104.19 23.8208 103.753C21.5589 102.443 19.6808 100.56 18.3749 98.2929C17.0691 96.0257 16.3815 93.4542 16.3813 90.8365V72.8779C16.3818 70.259 15.6943 67.686 14.3879 65.4178C13.0815 63.1495 11.2022 61.2658 8.93896 59.9561L36.2344 44.1772C38.4971 45.4877 40.3762 47.3715 41.683 49.6395C42.9898 51.9076 43.6783 54.4801 43.6796 57.0991V64.9173C43.6709 67.1552 43.668 72.0961 43.668 72.0961Z" fill="#F5F5F5"/>
<path d="M53.5902 120.97C51.3279 119.662 49.449 117.781 48.1426 115.514C46.8362 113.248 46.1482 110.677 46.1478 108.06V90.7406C46.1513 88.7515 45.7568 86.7819 44.9877 84.9482C43.7269 81.9528 41.524 79.4524 38.7142 77.8275C37.9598 77.3917 37.1043 77.1627 36.2336 77.1633C35.363 77.164 34.5078 77.3943 33.7541 77.8311C33.0004 78.2679 32.3747 78.8959 31.94 79.6519C31.5053 80.4079 31.2768 81.2652 31.2776 82.1377V99.4336C31.2777 100.307 31.0487 101.164 30.6134 101.92C30.1782 102.676 29.5521 103.305 28.7981 103.742C28.044 104.179 27.1885 104.409 26.3174 104.41C25.4463 104.411 24.5903 104.182 23.8353 103.747C21.5734 102.437 19.6953 100.554 18.3894 98.2871C17.0836 96.0199 16.396 93.4484 16.3958 90.8307V72.8779C16.3948 70.2575 15.7051 67.6836 14.3961 65.4152C13.0871 63.1468 11.2049 61.2639 8.93896 59.9561V60.671C11.0236 61.9512 12.746 63.7454 13.9418 65.8824C15.1376 68.0194 15.7668 70.4279 15.7693 72.8779V90.8307C15.7742 93.555 16.4921 96.2303 17.8515 98.5896C19.2109 100.949 21.1642 102.909 23.5162 104.276C24.3612 104.772 25.3228 105.033 26.302 105.033C27.2813 105.033 28.2429 104.772 29.0878 104.276C29.1952 104.215 29.2996 104.151 29.404 104.081C30.1698 103.576 30.7977 102.887 31.2307 102.077C31.6638 101.267 31.8882 100.361 31.8838 99.4423V82.1348C31.8833 81.3693 32.084 80.6171 32.4656 79.954C32.8473 79.2909 33.3964 78.7401 34.0579 78.3571C34.7193 77.9742 35.4697 77.7725 36.2337 77.7724C36.9976 77.7723 37.7481 77.9737 38.4096 78.3564C40.5768 79.6133 42.3765 81.4185 43.6287 83.5914C44.8808 85.7642 45.5415 88.2286 45.5445 90.7377V108.057C45.549 110.781 46.2669 113.456 47.6263 115.815C48.9858 118.174 50.9392 120.134 53.2914 121.499L69.7162 130.997V130.291L53.5902 120.97Z" fill="#455A64"/>
<path d="M96.9972 114.524L69.7105 130.291L53.5902 120.961C51.3279 119.654 49.4491 117.772 48.1427 115.506C46.8362 113.239 46.1483 110.668 46.1479 108.051V90.7408C46.1514 88.7517 45.7569 86.782 44.9877 84.9483C44.7456 84.3772 44.4695 83.8211 44.1611 83.2829C42.8547 81.017 40.9762 79.1356 38.7142 77.8276C37.9978 77.4078 37.1868 77.1766 36.3571 77.1558C35.5273 77.135 34.7058 77.3251 33.9692 77.7085L37.6643 75.5752L45.098 71.2737L61.0094 62.0692L61.0471 62.0459C61.7987 61.6059 62.6535 61.374 63.524 61.374C64.3945 61.374 65.2493 61.6059 66.0009 62.0459C68.2631 63.3544 70.1417 65.2366 71.4476 67.5034C72.7535 69.7702 73.4408 72.3416 73.4404 74.959V92.2753C73.4406 94.893 74.1282 97.4645 75.434 99.7317C76.7398 101.999 78.618 103.882 80.8798 105.191L96.9972 114.524Z" fill="#FAFAFA"/>
<path d="M45.5355 90.7407C45.5325 88.2316 44.8718 85.7673 43.6196 83.5944C42.3675 81.4215 40.5678 79.6163 38.4006 78.3595C37.739 77.9767 36.9886 77.7753 36.2246 77.7754C35.4607 77.7755 34.7103 77.9772 34.0488 78.3602C33.3874 78.7431 32.8382 79.2939 32.4566 79.957C32.075 80.6201 31.8743 81.3723 31.8748 82.1378V99.4454C31.88 100.361 31.6579 101.263 31.2286 102.072C30.7992 102.88 30.1761 103.568 29.4153 104.075V104.075C29.3109 104.145 29.2064 104.209 29.0991 104.27L45.5471 94.7515L45.5355 90.7407Z" fill="#E0E0E0"/>
<path opacity="0.15" d="M45.5355 90.7407C45.5325 88.2316 44.8718 85.7673 43.6196 83.5944C42.3675 81.4215 40.5678 79.6163 38.4006 78.3595C37.739 77.9767 36.9886 77.7753 36.2246 77.7754C35.4607 77.7755 34.7103 77.9772 34.0488 78.3602C33.3874 78.7431 32.8382 79.2939 32.4566 79.957C32.075 80.6201 31.8743 81.3723 31.8748 82.1378V99.4454C31.88 100.361 31.6579 101.263 31.2286 102.072C30.7992 102.88 30.1761 103.568 29.4153 104.075V104.075C29.3109 104.145 29.2064 104.209 29.0991 104.27L45.5471 94.7515L45.5355 90.7407Z" fill="black"/>
<path d="M13.7851 60.049C14.113 60.3013 14.5072 60.4521 14.9193 60.4831C15.3315 60.5141 15.7437 60.4238 16.1054 60.2234L35.5756 48.9611C36.3065 48.5368 36.4776 47.7463 35.9063 47.2522C35.3349 46.7581 34.2415 46.7523 33.5106 47.1737L14.0288 58.4447C13.2979 58.8661 13.2109 59.5579 13.7851 60.049Z" fill="#27DEBF"/>
<path opacity="0.4" d="M29.4849 55.7882C29.4377 55.7876 29.3921 55.7715 29.3548 55.7426C29.3175 55.7136 29.2906 55.6733 29.2782 55.6278C29.2658 55.5822 29.2685 55.5338 29.2859 55.4899C29.3032 55.4459 29.3344 55.4089 29.3747 55.3843L38.4789 50.1179C38.5279 50.0903 38.5857 50.0831 38.6399 50.0978C38.6942 50.1124 38.7405 50.1478 38.769 50.1963C38.7957 50.2456 38.8025 50.3032 38.7879 50.3574C38.7733 50.4115 38.7385 50.4579 38.6907 50.487L29.5922 55.7592C29.5596 55.7781 29.5226 55.7882 29.4849 55.7882V55.7882Z" fill="black"/>
<path opacity="0.4" d="M30.1867 56.9625C30.1486 56.9626 30.1112 56.9528 30.0781 56.9339C30.045 56.9151 30.0175 56.8878 29.9982 56.8549C29.9721 56.8055 29.9657 56.7481 29.9803 56.6942C29.9948 56.6403 30.0292 56.5938 30.0765 56.5643L39.1808 51.2979C39.2298 51.2757 39.2854 51.2725 39.3367 51.2889C39.388 51.3054 39.4313 51.3403 39.4584 51.387C39.4855 51.4336 39.4943 51.4887 39.4832 51.5415C39.4721 51.5943 39.4418 51.6411 39.3983 51.6728L30.294 56.9334C30.2616 56.9528 30.2245 56.9628 30.1867 56.9625V56.9625Z" fill="black"/>
<path opacity="0.4" d="M30.7755 58.1859C30.7286 58.1847 30.6834 58.1682 30.6466 58.139C30.6098 58.1099 30.5834 58.0696 30.5713 58.0241C30.5592 57.9787 30.5621 57.9305 30.5796 57.8869C30.5971 57.8433 30.6282 57.8064 30.6682 57.782L39.7725 52.5156C39.8215 52.488 39.8793 52.4808 39.9335 52.4955C39.9877 52.5101 40.034 52.5455 40.0625 52.594C40.089 52.6436 40.0954 52.7016 40.0802 52.7557C40.0651 52.8099 40.0296 52.8561 39.9813 52.8847L30.8799 58.1511C30.8487 58.1715 30.8127 58.1835 30.7755 58.1859Z" fill="black"/>
<path opacity="0.4" d="M31.2512 59.4589C31.2131 59.4591 31.1756 59.4493 31.1426 59.4304C31.1095 59.4115 31.0819 59.3843 31.0626 59.3514C31.0366 59.302 31.0302 59.2446 31.0447 59.1906C31.0593 59.1367 31.0936 59.0903 31.1409 59.0608L40.2452 53.7944C40.2942 53.7668 40.352 53.7596 40.4062 53.7743C40.4604 53.789 40.5068 53.8243 40.5352 53.8728C40.562 53.9221 40.5688 53.9798 40.5542 54.0339C40.5396 54.088 40.5048 54.1344 40.4569 54.1635L31.3527 59.4299C31.3219 59.4482 31.2869 59.4583 31.2512 59.4589V59.4589Z" fill="black"/>
<path opacity="0.4" d="M31.5935 60.7058C31.5558 60.706 31.5187 60.6962 31.4861 60.6773C31.4534 60.6584 31.4264 60.6311 31.4078 60.5983C31.3804 60.5492 31.3732 60.4913 31.3878 60.4369C31.4024 60.3826 31.4377 60.3362 31.4862 60.3076L40.5846 55.0354C40.6088 55.0214 40.6355 55.0123 40.6632 55.0086C40.6908 55.005 40.719 55.0069 40.7459 55.0142C40.7729 55.0215 40.7981 55.034 40.8202 55.0511C40.8423 55.0683 40.8608 55.0896 40.8747 55.1139C40.9021 55.163 40.9093 55.2209 40.8947 55.2752C40.8801 55.3296 40.8447 55.376 40.7963 55.4045L31.695 60.6709C31.6646 60.6909 31.6297 60.7028 31.5935 60.7058Z" fill="black"/>
<path opacity="0.4" d="M31.8313 62.0457C31.7832 62.0468 31.7361 62.0316 31.6976 62.0026C31.6591 61.9737 31.6314 61.9326 31.619 61.886C31.6067 61.8394 31.6103 61.7899 31.6293 61.7456C31.6483 61.7013 31.6817 61.6647 31.724 61.6417L40.8253 56.3753C40.8744 56.3531 40.9299 56.3499 40.9812 56.3663C41.0325 56.3828 41.0759 56.4177 41.103 56.4644C41.13 56.511 41.1389 56.5661 41.1278 56.6189C41.1167 56.6717 41.0864 56.7185 41.0428 56.7502L31.9386 62.0166C31.9063 62.0363 31.8691 62.0463 31.8313 62.0457V62.0457Z" fill="black"/>
<path opacity="0.4" d="M31.9587 63.4756C31.9106 63.4767 31.8635 63.4615 31.825 63.4326C31.7865 63.4036 31.7589 63.3625 31.7465 63.3159C31.7341 63.2693 31.7377 63.2199 31.7567 63.1756C31.7758 63.1313 31.8091 63.0947 31.8514 63.0716L40.9528 57.8052C41.0018 57.783 41.0574 57.7798 41.1087 57.7963C41.16 57.8127 41.2033 57.8477 41.2304 57.8943C41.2575 57.941 41.2663 57.996 41.2552 58.0488C41.2441 58.1016 41.2138 58.1484 41.1703 58.1802L32.066 63.4436C32.0339 63.464 31.9967 63.4751 31.9587 63.4756V63.4756Z" fill="black"/>
<path opacity="0.4" d="M18.9797 73.6742C18.9526 73.6738 18.9261 73.6664 18.9027 73.6526C18.8793 73.6389 18.8599 73.6192 18.8463 73.5957C18.8265 73.5602 18.8214 73.5183 18.8323 73.4791C18.8431 73.4399 18.869 73.4066 18.9043 73.3865L40.9907 60.5983C41.0257 60.5782 41.0673 60.5726 41.1064 60.583C41.1455 60.5933 41.1789 60.6187 41.1995 60.6535C41.2098 60.6708 41.2166 60.69 41.2195 60.71C41.2223 60.73 41.2211 60.7503 41.216 60.7698C41.2108 60.7893 41.2018 60.8076 41.1895 60.8236C41.1773 60.8395 41.1619 60.8529 41.1444 60.8628L19.0552 73.6509C19.0326 73.6655 19.0065 73.6736 18.9797 73.6742V73.6742Z" fill="black"/>
<path opacity="0.4" d="M18.9797 75.0402C18.9526 75.0398 18.9261 75.0323 18.9027 75.0186C18.8793 75.0048 18.8599 74.9852 18.8463 74.9617C18.8265 74.9262 18.8214 74.8843 18.8323 74.8451C18.8431 74.8059 18.869 74.7726 18.9043 74.7524L40.9907 61.9643C41.0261 61.9444 41.0679 61.9393 41.107 61.9502C41.1462 61.9611 41.1794 61.9871 41.1995 62.0224C41.2098 62.0395 41.2165 62.0585 41.2193 62.0782C41.2221 62.098 41.2209 62.1181 41.2157 62.1373C41.2106 62.1566 41.2016 62.1746 41.1894 62.1903C41.1771 62.2061 41.1618 62.2191 41.1444 62.2288L19.0552 75.0169C19.0322 75.0304 19.0063 75.0384 18.9797 75.0402V75.0402Z" fill="black"/>
<path opacity="0.4" d="M18.9797 76.4063C18.9526 76.4059 18.9261 76.3985 18.9027 76.3847C18.8793 76.371 18.8599 76.3513 18.8463 76.3278C18.8265 76.2923 18.8214 76.2504 18.8323 76.2112C18.8431 76.172 18.869 76.1387 18.9043 76.1186L40.9907 63.3304C41.026 63.31 41.0681 63.3045 41.1075 63.3151C41.1469 63.3257 41.1806 63.3516 41.2009 63.3871C41.2213 63.4225 41.2268 63.4647 41.2162 63.5042C41.2056 63.5437 41.1798 63.5774 41.1444 63.5978L19.0552 76.3859C19.0319 76.3985 19.0061 76.4054 18.9797 76.4063V76.4063Z" fill="black"/>
<path opacity="0.4" d="M18.9797 77.7722C18.9526 77.7718 18.926 77.7644 18.9026 77.7506C18.8792 77.7369 18.8598 77.7173 18.8463 77.6937C18.8361 77.6765 18.8295 77.6573 18.8269 77.6375C18.8243 77.6176 18.8258 77.5974 18.8312 77.5781C18.8366 77.5588 18.8459 77.5409 18.8585 77.5253C18.871 77.5097 18.8866 77.4968 18.9043 77.4874L40.9906 64.6992C41.0252 64.6841 41.0641 64.6821 41.1 64.6939C41.1358 64.7056 41.1662 64.7301 41.1851 64.7628C41.2041 64.7955 41.2105 64.834 41.2029 64.8711C41.1954 64.9081 41.1745 64.9411 41.1443 64.9637L19.0551 77.7519C19.0324 77.7657 19.0062 77.7728 18.9797 77.7722V77.7722Z" fill="black"/>
<path opacity="0.4" d="M18.9795 71.6862C18.9429 71.6914 18.9056 71.6829 18.8748 71.6623C18.844 71.6418 18.8218 71.6105 18.8125 71.5746C18.8032 71.5387 18.8073 71.5006 18.8242 71.4676C18.8411 71.4346 18.8696 71.409 18.9041 71.3956L30.5955 64.6295C30.6129 64.6165 30.6328 64.6073 30.6539 64.6026C30.6751 64.5979 30.697 64.5976 30.7182 64.602C30.7394 64.6063 30.7595 64.6151 30.7771 64.6277C30.7947 64.6404 30.8094 64.6566 30.8204 64.6754C30.8313 64.6942 30.8381 64.715 30.8404 64.7366C30.8427 64.7582 30.8404 64.78 30.8337 64.8007C30.827 64.8213 30.816 64.8403 30.8014 64.8564C30.7869 64.8725 30.7691 64.8853 30.7492 64.894L19.0549 71.6601C19.0329 71.676 19.0067 71.6851 18.9795 71.6862Z" fill="black"/>
<path d="M18.649 63.8419C19.5784 65.6469 20.1198 67.6271 20.2384 69.6547C20.2348 69.6979 20.2441 69.7413 20.2649 69.7793C20.2858 69.8174 20.3174 69.8484 20.3558 69.8686C20.3941 69.8887 20.4376 69.8971 20.4807 69.8927C20.5238 69.8882 20.5646 69.8711 20.5981 69.8436L21.2478 69.4687C21.3415 69.4045 21.4173 69.3174 21.468 69.2157C21.5188 69.114 21.5428 69.001 21.5378 68.8874C21.4658 67.8326 21.288 66.7878 21.007 65.7688C20.7339 64.8476 20.3836 63.9512 19.96 63.0891C19.9365 63.0452 19.9043 63.0064 19.8654 62.9753C19.8265 62.9441 19.7817 62.9212 19.7337 62.9079C19.6857 62.8946 19.6355 62.8912 19.5862 62.8978C19.5369 62.9045 19.4894 62.9211 19.4466 62.9467L18.8057 63.3158C18.7192 63.3685 18.6554 63.4515 18.6264 63.5487C18.5975 63.6458 18.6056 63.7503 18.649 63.8419V63.8419Z" fill="#27DEBF"/>
<path d="M20.5721 61.136C21.2252 62.1836 21.751 63.3057 22.1383 64.4784C22.527 65.663 22.7619 66.8928 22.8372 68.1375C22.8327 68.1805 22.841 68.2238 22.8611 68.2621C22.8812 68.3003 22.9122 68.3317 22.9501 68.3522C22.988 68.3728 23.0311 68.3816 23.074 68.3775C23.117 68.3734 23.1577 68.3567 23.1911 68.3294L23.8408 67.9515C23.9377 67.8894 24.0169 67.8033 24.0708 67.7014C24.1247 67.5996 24.1513 67.4855 24.1482 67.3703C24.0589 66.1345 23.8223 64.9138 23.4434 63.7344C23.0633 62.5673 22.5412 61.4515 21.8888 60.4124C21.8313 60.3264 21.7438 60.265 21.6435 60.2403C21.5432 60.2156 21.4372 60.2293 21.3465 60.2787L20.6997 60.6391C20.6573 60.6618 20.62 60.6932 20.5903 60.7311C20.5606 60.7691 20.5391 60.8128 20.5271 60.8595C20.5151 60.9062 20.5129 60.9549 20.5206 61.0025C20.5284 61.0501 20.5459 61.0956 20.5721 61.136V61.136Z" fill="#27DEBF"/>
<path d="M25.7114 62.4148L25.0733 62.7839C24.9828 62.8412 24.9132 62.926 24.8745 63.026C24.8359 63.1259 24.8303 63.2357 24.8587 63.3391C25.175 64.4123 25.3696 65.5179 25.4387 66.6349C25.4348 66.6776 25.4436 66.7205 25.464 66.7583C25.4843 66.796 25.5153 66.8269 25.5531 66.8471C25.5909 66.8672 25.6337 66.8758 25.6763 66.8716C25.7189 66.8675 25.7594 66.8509 25.7926 66.8238L26.4423 66.4489C26.539 66.3866 26.6181 66.3004 26.6719 66.1986C26.7257 66.0968 26.7525 65.9828 26.7497 65.8676C26.6684 64.7537 26.4681 63.6516 26.1522 62.5805C26.1402 62.536 26.1177 62.495 26.0868 62.461C26.0558 62.4269 26.0172 62.4007 25.9741 62.3845C25.9311 62.3683 25.8848 62.3626 25.8391 62.3679C25.7934 62.3732 25.7496 62.3892 25.7114 62.4148Z" fill="#27DEBF"/>
<path d="M28.3102 59.8166C28.2925 59.7707 28.2647 59.7294 28.2289 59.6958C28.193 59.6623 28.15 59.6373 28.1031 59.6227C28.0562 59.6082 28.0067 59.6045 27.9581 59.6119C27.9096 59.6193 27.8634 59.6376 27.8229 59.6655L27.1791 60.0317C27.0898 60.0865 27.0225 60.1708 26.9886 60.27C26.9547 60.3692 26.9564 60.4771 26.9934 60.5752C27.1094 60.8658 27.2197 61.1565 27.3299 61.4878C27.7189 62.6712 27.9529 63.9003 28.026 65.1441C28.0223 65.1871 28.0312 65.2302 28.0518 65.2681C28.0723 65.3061 28.1034 65.3372 28.1414 65.3576C28.1793 65.378 28.2224 65.3868 28.2653 65.3829C28.3082 65.3791 28.349 65.3627 28.3827 65.3359L29.0324 64.961C29.1287 64.8982 29.2075 64.812 29.2613 64.7102C29.3151 64.6085 29.3421 64.4948 29.3398 64.3797C29.2496 63.1388 29.011 61.9132 28.6292 60.7292C28.5393 60.4125 28.4291 60.1102 28.3102 59.8166Z" fill="#27DEBF"/>
<path opacity="0.4" d="M19.4292 69.0617C19.4146 69.037 19.391 69.019 19.3634 69.0114C19.3358 69.0038 19.3063 69.0073 19.2812 69.0211L19.0086 69.178C18.9477 68.8031 18.8781 68.4311 18.794 68.0648L19.1623 67.8527C19.1833 67.8362 19.1976 67.8127 19.2025 67.7865C19.2075 67.7602 19.2029 67.7331 19.1894 67.7101C19.176 67.687 19.1547 67.6696 19.1294 67.6611C19.1042 67.6526 19.0767 67.6536 19.0521 67.6638L18.7389 67.8469C18.6461 67.4778 18.5445 67.1116 18.4256 66.7541L18.7766 66.5535C18.8016 66.5393 18.8199 66.5156 18.8275 66.4878C18.8351 66.46 18.8314 66.4303 18.8172 66.4053C18.8029 66.3802 18.7794 66.3619 18.7516 66.3543C18.7239 66.3466 18.6943 66.3503 18.6693 66.3646L18.3531 66.5477C18.2313 66.1989 18.1037 65.8531 17.9558 65.5159C17.9569 65.5073 17.9569 65.4985 17.9558 65.4898L18.3038 65.2892C18.3163 65.2823 18.3273 65.2729 18.3361 65.2617C18.3449 65.2504 18.3514 65.2375 18.3552 65.2237C18.359 65.2099 18.36 65.1955 18.3581 65.1813C18.3563 65.1671 18.3516 65.1534 18.3444 65.141C18.3299 65.1163 18.3063 65.0982 18.2787 65.0907C18.2511 65.0831 18.2216 65.0865 18.1965 65.1003L17.8688 65.2892C17.7179 64.9492 17.5497 64.612 17.367 64.2749L17.7121 64.0744C17.7246 64.0674 17.7356 64.058 17.7444 64.0468C17.7533 64.0355 17.7598 64.0226 17.7635 64.0088C17.7673 63.995 17.7683 63.9806 17.7665 63.9664C17.7646 63.9522 17.7599 63.9385 17.7527 63.9261C17.7382 63.9014 17.7146 63.8834 17.687 63.8758C17.6594 63.8682 17.6299 63.8717 17.6048 63.8855L17.2626 64.086C17.077 63.7605 16.8797 63.4379 16.6651 63.1182L17.0567 62.8944C17.0692 62.8875 17.0802 62.8781 17.089 62.8667C17.0978 62.8554 17.1041 62.8424 17.1076 62.8285C17.1112 62.8146 17.1118 62.8001 17.1095 62.7859C17.1073 62.7718 17.1021 62.7582 17.0944 62.7461C17.0874 62.7336 17.0781 62.7226 17.0668 62.7138C17.0556 62.7049 17.0427 62.6984 17.0289 62.6946C17.0152 62.6908 17.0008 62.6898 16.9866 62.6917C16.9724 62.6936 16.9588 62.6982 16.9464 62.7055L16.5462 62.9409C16.3142 62.6066 16.0734 62.2753 15.8124 61.9469C15.7932 61.928 15.7678 61.9168 15.7409 61.9154C15.714 61.914 15.6876 61.9225 15.6665 61.9393C15.6455 61.9561 15.6313 61.9801 15.6267 62.0066C15.622 62.0332 15.6272 62.0605 15.6413 62.0835C15.8965 62.4003 16.1343 62.7229 16.3577 63.0484L15.9864 63.2635C15.9661 63.2753 15.9502 63.2934 15.9412 63.3151C15.9322 63.3368 15.9305 63.3609 15.9364 63.3836C15.9424 63.4064 15.9556 63.4266 15.974 63.4411C15.9925 63.4556 16.0152 63.4637 16.0386 63.464C16.0566 63.4696 16.0758 63.4696 16.0937 63.464L16.4795 63.2431C16.6912 63.5628 16.8913 63.8825 17.0741 64.2081L16.6419 64.458C16.6214 64.4699 16.6054 64.4883 16.5964 64.5103C16.5875 64.5323 16.586 64.5567 16.5923 64.5796C16.5986 64.6025 16.6123 64.6227 16.6312 64.6369C16.6502 64.6512 16.6733 64.6588 16.697 64.6585C16.714 64.6641 16.7323 64.6641 16.7492 64.6585L17.1785 64.4115C17.3612 64.7487 17.5294 65.0887 17.6802 65.4287L17.2336 65.6874C17.2131 65.6993 17.1971 65.7177 17.1881 65.7397C17.1791 65.7617 17.1777 65.7861 17.184 65.809C17.1903 65.8319 17.204 65.8521 17.2229 65.8663C17.2418 65.8806 17.265 65.8882 17.2887 65.888C17.3072 65.8886 17.3254 65.8835 17.3409 65.8734L17.7672 65.6264C17.9152 65.9693 18.0573 66.3239 18.1704 66.6814L17.715 66.9459C17.6947 66.9577 17.6789 66.9758 17.6698 66.9975C17.6608 67.0192 17.6591 67.0433 17.665 67.066C17.671 67.0888 17.6842 67.109 17.7026 67.1235C17.7211 67.138 17.7438 67.1461 17.7672 67.1464C17.7852 67.152 17.8044 67.152 17.8224 67.1464L18.2429 66.9023C18.3618 67.2627 18.4633 67.626 18.5532 67.998L18.1008 68.2596C18.0883 68.2665 18.0773 68.2759 18.0685 68.2872C18.0597 68.2984 18.0532 68.3113 18.0494 68.3251C18.0456 68.3389 18.0446 68.3534 18.0465 68.3676C18.0483 68.3818 18.053 68.3954 18.0602 68.4078C18.0695 68.4241 18.0831 68.4375 18.0994 68.4467C18.1158 68.4559 18.1343 68.4605 18.153 68.4601C18.1709 68.4657 18.1902 68.4657 18.2081 68.4601L18.6084 68.2305C18.6925 68.5967 18.7592 68.9716 18.8172 69.3466L18.327 69.6372C18.3065 69.6491 18.2905 69.6675 18.2815 69.6895C18.2726 69.7115 18.2711 69.7359 18.2774 69.7588C18.2837 69.7817 18.2974 69.8019 18.3163 69.8161C18.3353 69.8304 18.3584 69.838 18.3821 69.8377C18.4006 69.8384 18.4188 69.8333 18.4343 69.8232L18.852 69.582C18.9158 70.0383 18.9593 70.5033 18.9854 70.9742C18.9869 71.0017 18.9988 71.0275 19.0188 71.0465C19.0388 71.0654 19.0652 71.0759 19.0927 71.0759V71.0759C19.1068 71.0751 19.1206 71.0716 19.1334 71.0655C19.1461 71.0594 19.1575 71.0508 19.1669 71.0403C19.1764 71.0298 19.1836 71.0175 19.1883 71.0041C19.193 70.9908 19.195 70.9767 19.1942 70.9625C19.1681 70.4568 19.1188 69.9569 19.0492 69.4657L19.3915 69.2681C19.4158 69.2671 19.4391 69.2578 19.4574 69.2418C19.4758 69.2258 19.4882 69.204 19.4926 69.18C19.497 69.156 19.4931 69.1312 19.4816 69.1097C19.47 69.0882 19.4516 69.0713 19.4292 69.0617V69.0617Z" fill="black"/>
<g opacity="0.15">
<path d="M20.5372 90.3048C20.445 89.4867 20.412 88.663 20.4386 87.8401C20.5256 87.5233 21.8424 82.9923 24.2671 81.5827C24.4145 81.4899 24.5762 81.4221 24.7457 81.3821C24.8102 81.3663 24.8764 81.3585 24.9429 81.3589C25.5868 81.3589 25.8739 82.254 26.1523 83.1201C26.2573 83.4749 26.3852 83.8225 26.5352 84.1606C26.7005 84.5094 26.9818 84.9715 27.5155 84.9715C27.7507 84.962 27.9794 84.892 28.1797 84.7681C29.3398 84.1025 29.6792 82.3005 30.0359 80.3939C30.1786 79.5402 30.3723 78.6958 30.616 77.8654C30.9698 76.7522 31.4281 76.0634 32.0662 75.6972C32.2282 75.5933 32.4138 75.5323 32.6057 75.5199C33.2814 75.5199 33.5367 76.7261 33.7832 77.8915C33.8899 78.5018 34.0551 79.1004 34.2763 79.679C34.5228 80.2399 34.8563 80.5131 35.2653 80.5131C35.5058 80.5011 35.7393 80.4281 35.944 80.3009C37.3739 79.4755 37.806 78.0717 38.2237 76.7174C38.5804 75.5548 38.914 74.4794 39.8566 73.9301C40.0668 73.7953 40.3091 73.719 40.5585 73.7092C40.6641 73.7089 40.7691 73.7266 40.8688 73.7615C40.8948 73.9776 40.9093 74.1949 40.9123 74.4126L40.9297 77.1562C40.9529 77.6823 40.9906 78.095 41.037 78.4496L20.5372 90.3048Z" fill="#27DEBF"/>
<path d="M41.2051 78.5222C41.1442 78.1124 41.1094 77.6502 41.0833 77.1474L41.0688 74.4038C41.0647 74.151 41.0453 73.8986 41.0108 73.6481C40.8707 73.58 40.7169 73.5452 40.5612 73.5464C40.2853 73.5557 40.0168 73.639 39.7839 73.7876C37.6783 75.0141 38.4817 78.65 35.8684 80.1614C35.6821 80.2801 35.4683 80.3482 35.2478 80.359C34.8562 80.359 34.5952 80.0684 34.398 79.615C33.7831 78.2257 33.7976 75.3687 32.5881 75.3687C32.3694 75.3794 32.1573 75.4475 31.9732 75.5664C31.225 75.9994 30.7754 76.8277 30.4622 77.8217C29.682 80.2689 29.7284 83.7072 28.1042 84.6343C27.9295 84.7443 27.73 84.8083 27.5241 84.8203C27.1383 84.8203 26.8831 84.5297 26.6801 84.0966C26.1783 83.0387 26.0014 81.2048 24.9398 81.2048C24.8628 81.2053 24.786 81.2141 24.7107 81.2309C24.5264 81.2757 24.3502 81.3493 24.1887 81.4489C21.6044 82.9544 20.2819 87.8168 20.2819 87.8168C20.2529 88.7303 20.2946 89.6447 20.4066 90.5517L20.6966 90.3803C20.674 90.2718 20.6575 90.1622 20.6473 90.0518C20.5782 89.3245 20.554 88.5936 20.5748 87.8633C20.6966 87.4332 21.9931 83.0765 24.3308 81.7134C24.4652 81.6296 24.612 81.5678 24.7658 81.5303C24.8189 81.5169 24.8735 81.5101 24.9282 81.5099C25.459 81.5099 25.7316 82.3528 25.9927 83.1666C26.0988 83.5284 26.2286 83.8828 26.3813 84.2274C26.4886 84.4483 26.8077 85.1255 27.5009 85.1255C27.7631 85.1171 28.0184 85.0389 28.2405 84.8988C29.4673 84.2013 29.8096 82.3644 30.1692 80.42C30.3129 79.5732 30.5066 78.7357 30.7493 77.9118C31.0915 76.8394 31.5266 76.168 32.1241 75.8308C32.2617 75.7394 32.4205 75.6854 32.5852 75.6739C33.1363 75.6739 33.3915 76.8684 33.6149 77.9234C33.7226 78.5436 33.8897 79.1519 34.1137 79.7399C34.3835 80.3532 34.7634 80.6671 35.2449 80.6671C35.5198 80.657 35.7871 80.5738 36.0193 80.4259C37.5014 79.5685 37.9625 78.0717 38.3686 76.7522C38.7166 75.6303 39.0414 74.5724 39.9348 74.0521C40.1211 73.9309 40.3364 73.8617 40.5583 73.8516V73.8516C40.6151 73.851 40.6716 73.8579 40.7266 73.8719C40.7585 74.18 40.7614 74.4009 40.7614 74.4038V77.162C40.7846 77.6357 40.8165 78.0339 40.8571 78.3594C40.8696 78.4673 40.89 78.5742 40.918 78.6791L41.1877 78.5222" fill="black"/>
</g>
<g opacity="0.4">
<path d="M20.282 86.4303V87.8166C20.2528 88.7301 20.2945 89.6445 20.4067 90.5515L41.2024 78.522C41.1415 78.1122 41.1037 77.6501 41.0805 77.1444L41.066 74.4036C41.066 74.4036 41.066 70.3027 38.4557 71.8082C35.7236 73.3893 36.4951 78.4057 34.5576 79.5276C32.6202 80.6495 33.2582 76.1794 30.6595 77.6849C28.0608 79.1904 29.3601 82.5357 26.7614 84.0383C24.1627 85.5409 25.462 77.9581 22.8633 79.4607C20.2646 80.9633 20.282 84.701 20.282 86.4303Z" fill="#27DEBF"/>
</g>
<path opacity="0.4" d="M19.3335 92.6676C19.3146 92.6675 19.296 92.6623 19.2797 92.6526C19.2634 92.6429 19.2499 92.629 19.2407 92.6124C19.2335 92.6 19.2288 92.5864 19.227 92.5722C19.2251 92.558 19.2261 92.5435 19.2299 92.5297C19.2337 92.5159 19.2402 92.503 19.249 92.4918C19.2578 92.4805 19.2688 92.4711 19.2813 92.4642L41.3995 79.7719C41.4242 79.7583 41.4532 79.7549 41.4804 79.7625C41.5075 79.7701 41.5306 79.7881 41.5446 79.8126C41.5519 79.8248 41.5567 79.8384 41.5588 79.8524C41.5608 79.8665 41.5601 79.8809 41.5566 79.8946C41.5531 79.9084 41.5469 79.9214 41.5383 79.9327C41.5298 79.9441 41.5191 79.9537 41.5068 79.9609L19.3886 92.6531C19.3717 92.6623 19.3528 92.6673 19.3335 92.6676V92.6676Z" fill="black"/>
<path d="M22.8925 80.1933C22.8637 80.1934 22.8361 80.1821 22.8156 80.162C22.795 80.1419 22.783 80.1146 22.7823 80.0858V79.8678C22.7819 79.8536 22.7844 79.8394 22.7896 79.8262C22.7949 79.813 22.8028 79.801 22.8128 79.7909C22.8229 79.7808 22.8348 79.7729 22.848 79.7677C22.8612 79.7624 22.8754 79.7599 22.8896 79.7603C22.918 79.7603 22.9453 79.7716 22.9655 79.7918C22.9856 79.812 22.9969 79.8393 22.9969 79.8678V80.0858C22.9962 80.1136 22.9851 80.1401 22.9657 80.1601C22.9464 80.18 22.9202 80.1919 22.8925 80.1933V80.1933Z" fill="white"/>
<path d="M22.9388 88.5288C22.912 88.5282 22.8863 88.5179 22.8665 88.4997C22.8468 88.4815 22.8343 88.4567 22.8315 88.43C22.8315 88.2905 22.8083 88.1393 22.7996 88.0115C22.7988 87.9973 22.8008 87.9832 22.8055 87.9698C22.8102 87.9565 22.8175 87.9442 22.8269 87.9337C22.8363 87.9231 22.8477 87.9146 22.8605 87.9085C22.8732 87.9024 22.887 87.8989 22.9011 87.8981C22.9152 87.896 22.9296 87.897 22.9433 87.901C22.957 87.905 22.9697 87.912 22.9804 87.9214C22.9912 87.9308 22.9998 87.9424 23.0056 87.9554C23.0114 87.9685 23.0144 87.9826 23.0142 87.9969C23.0142 88.1364 23.0345 88.273 23.0461 88.4096C23.0477 88.4238 23.0465 88.4381 23.0426 88.4518C23.0386 88.4654 23.032 88.4782 23.0231 88.4892C23.0142 88.5003 23.0032 88.5095 22.9907 88.5163C22.9782 88.5231 22.9645 88.5274 22.9504 88.5288H22.9388ZM22.8895 87.6976C22.8608 87.6976 22.8332 87.6863 22.8126 87.6663C22.792 87.6462 22.7801 87.6188 22.7793 87.59C22.7793 87.4709 22.7793 87.3314 22.7793 87.1715C22.7793 87.143 22.7906 87.1156 22.8107 87.0955C22.8309 87.0753 22.8581 87.064 22.8866 87.064C22.9504 87.064 22.9939 87.1105 22.9968 87.1715C22.9968 87.3285 22.9968 87.4622 22.9968 87.5871C22.9972 87.6015 22.9947 87.6158 22.9895 87.6292C22.9843 87.6426 22.9764 87.6548 22.9664 87.665C22.9564 87.6753 22.9445 87.6835 22.9313 87.6891C22.918 87.6947 22.9039 87.6976 22.8895 87.6976V87.6976ZM22.8895 86.8634C22.8613 86.8627 22.8344 86.8511 22.8144 86.8311C22.7945 86.8111 22.7829 86.7842 22.7822 86.7559V86.3374C22.7829 86.3091 22.7945 86.2822 22.8144 86.2622C22.8344 86.2421 22.8613 86.2306 22.8895 86.2298C22.9177 86.2306 22.9446 86.2421 22.9646 86.2622C22.9845 86.2822 22.9961 86.3091 22.9968 86.3374V86.7559C22.9961 86.7847 22.9841 86.812 22.9635 86.8321C22.9429 86.8522 22.9153 86.8634 22.8866 86.8634H22.8895ZM22.8895 86.0293C22.8611 86.0293 22.8338 86.018 22.8136 85.9978C22.7935 85.9776 22.7822 85.9503 22.7822 85.9218V85.5032C22.783 85.4745 22.7949 85.4471 22.8155 85.427C22.8361 85.4069 22.8637 85.3957 22.8924 85.3957C22.9206 85.3964 22.9475 85.408 22.9675 85.428C22.9875 85.448 22.999 85.475 22.9997 85.5032V85.9218C22.9997 85.9503 22.9884 85.9776 22.9683 85.9978C22.9482 86.018 22.9209 86.0293 22.8924 86.0293H22.8895ZM22.8895 85.1952C22.8613 85.1944 22.8344 85.1829 22.8144 85.1628C22.7945 85.1428 22.7829 85.1159 22.7822 85.0876V84.6604C22.7864 84.6345 22.7997 84.611 22.8196 84.5941C22.8395 84.5771 22.8648 84.5678 22.891 84.5678C22.9171 84.5678 22.9424 84.5771 22.9623 84.5941C22.9822 84.611 22.9955 84.6345 22.9997 84.6604V85.0789C23.0007 85.0952 22.9981 85.1115 22.9921 85.1267C22.986 85.1418 22.9767 85.1555 22.9648 85.1666C22.9529 85.1777 22.9386 85.186 22.9231 85.191C22.9076 85.1959 22.8912 85.1973 22.875 85.1952H22.8895ZM22.8895 84.361C22.8611 84.361 22.8338 84.3497 22.8136 84.3295C22.7935 84.3094 22.7822 84.282 22.7822 84.2535V83.8379C22.7822 83.8094 22.7935 83.782 22.8136 83.7618C22.8338 83.7417 22.8611 83.7303 22.8895 83.7303C22.918 83.7303 22.9453 83.7417 22.9654 83.7618C22.9855 83.782 22.9968 83.8094 22.9968 83.8379V84.2535C22.9983 84.2696 22.9961 84.2859 22.9904 84.3011C22.9847 84.3163 22.9757 84.33 22.964 84.3411C22.9522 84.3523 22.9382 84.3607 22.9228 84.3656C22.9074 84.3706 22.891 84.372 22.875 84.3697L22.8895 84.361ZM22.8895 83.5269C22.8753 83.5273 22.8612 83.5248 22.848 83.5195C22.8348 83.5143 22.8228 83.5064 22.8127 83.4963C22.8027 83.4862 22.7948 83.4742 22.7896 83.461C22.7843 83.4477 22.7818 83.4336 22.7822 83.4194V83.0037C22.7822 82.9752 22.7935 82.9479 22.8136 82.9277C22.8338 82.9075 22.8611 82.8962 22.8895 82.8962C22.918 82.8962 22.9453 82.9075 22.9654 82.9277C22.9855 82.9479 22.9968 82.9752 22.9968 83.0037V83.4194C22.9975 83.4349 22.9946 83.4505 22.9885 83.4648C22.9824 83.4791 22.9732 83.4919 22.9615 83.5023C22.9498 83.5126 22.936 83.5201 22.921 83.5244C22.9061 83.5286 22.8904 83.5295 22.875 83.5269H22.8895ZM22.8895 82.6928C22.8753 82.6932 22.8612 82.6907 22.848 82.6854C22.8348 82.6801 22.8228 82.6722 22.8127 82.6622C22.8027 82.6521 22.7948 82.6401 22.7896 82.6268C22.7843 82.6136 22.7818 82.5994 22.7822 82.5852V82.1696C22.7822 82.1408 22.7934 82.1131 22.8134 82.0925C22.8335 82.0719 22.8608 82.0599 22.8895 82.0592C22.9039 82.0592 22.918 82.062 22.9313 82.0676C22.9445 82.0732 22.9564 82.0814 22.9664 82.0917C22.9764 82.102 22.9843 82.1142 22.9895 82.1276C22.9947 82.1409 22.9972 82.1552 22.9968 82.1696V82.5852C22.9975 82.6008 22.9946 82.6163 22.9885 82.6307C22.9824 82.645 22.9732 82.6578 22.9615 82.6681C22.9498 82.6784 22.936 82.686 22.921 82.6902C22.9061 82.6945 22.8904 82.6954 22.875 82.6928H22.8895ZM22.8895 81.8615C22.8608 81.8608 22.8335 81.8488 22.8134 81.8282C22.7934 81.8075 22.7822 81.7799 22.7822 81.7511V81.3355C22.7864 81.3096 22.7997 81.2861 22.8196 81.2692C22.8395 81.2522 22.8648 81.2429 22.891 81.2429C22.9171 81.2429 22.9424 81.2522 22.9623 81.2692C22.9822 81.2861 22.9955 81.3096 22.9997 81.3355V81.754C22.999 81.7694 22.9952 81.7845 22.9884 81.7984C22.9817 81.8123 22.9722 81.8246 22.9605 81.8347C22.9488 81.8448 22.9352 81.8523 22.9205 81.857C22.9058 81.8616 22.8903 81.8631 22.875 81.8615H22.8895ZM22.8895 81.0274C22.8613 81.0267 22.8344 81.0151 22.8144 80.9951C22.7945 80.9751 22.7829 80.9481 22.7822 80.9199V80.5042C22.7822 80.475 22.7938 80.4469 22.8145 80.4261C22.8351 80.4054 22.8632 80.3938 22.8924 80.3938V80.3938C22.9209 80.3938 22.9482 80.4051 22.9683 80.4253C22.9884 80.4455 22.9997 80.4728 22.9997 80.5013V80.9199C22.9994 80.9354 22.9959 80.9507 22.9893 80.9648C22.9827 80.9789 22.9732 80.9915 22.9614 81.0016C22.9496 81.0118 22.9359 81.0193 22.921 81.0238C22.9061 81.0282 22.8904 81.0294 22.875 81.0274H22.8895Z" fill="white"/>
<path d="M23.0086 89.1566C22.9826 89.1562 22.9576 89.1467 22.938 89.1297C22.9183 89.1127 22.9053 89.0893 22.9012 89.0636L22.8751 88.8456C22.8736 88.8315 22.8749 88.8172 22.8789 88.8036C22.8828 88.79 22.8895 88.7772 22.8984 88.7662C22.9073 88.7551 22.9182 88.7459 22.9307 88.7391C22.9431 88.7323 22.9568 88.728 22.9709 88.7265C22.9849 88.7249 22.9992 88.7262 23.0128 88.7302C23.0264 88.7342 23.0391 88.7408 23.0501 88.7497C23.0612 88.7586 23.0704 88.7696 23.0772 88.7821C23.084 88.7946 23.0882 88.8082 23.0898 88.8224L23.1159 89.0345C23.1179 89.0487 23.1171 89.0631 23.1135 89.0769C23.11 89.0907 23.1037 89.1037 23.095 89.1151C23.0864 89.1264 23.0756 89.136 23.0632 89.1431C23.0509 89.1502 23.0372 89.1548 23.0231 89.1566H23.0086Z" fill="white"/>
<path d="M38.473 72.134C38.4438 72.134 38.4157 72.1223 38.3951 72.1016C38.3744 72.0809 38.3628 72.0528 38.3628 72.0235V71.8084C38.3628 71.7792 38.3744 71.7511 38.3951 71.7303C38.4157 71.7096 38.4438 71.698 38.473 71.698C38.5017 71.6988 38.529 71.7107 38.5491 71.7314C38.5691 71.752 38.5803 71.7796 38.5803 71.8084V72.0235C38.5803 72.0523 38.5691 72.08 38.5491 72.1006C38.529 72.1212 38.5017 72.1332 38.473 72.134Z" fill="white"/>
<path d="M38.534 80.4693C38.5072 80.4687 38.4815 80.4584 38.4617 80.4402C38.442 80.422 38.4295 80.3972 38.4267 80.3705C38.4122 80.2309 38.4035 80.0798 38.3948 79.9519C38.3932 79.9231 38.4029 79.8948 38.4219 79.8731C38.4409 79.8513 38.4676 79.8379 38.4963 79.8357C38.5105 79.8345 38.5248 79.8362 38.5383 79.8407C38.5518 79.8453 38.5642 79.8525 38.5748 79.8621C38.5854 79.8716 38.5939 79.8832 38.5999 79.8961C38.6058 79.9091 38.6091 79.9231 38.6094 79.9374C38.6094 80.0769 38.6297 80.2135 38.6413 80.3501C38.6429 80.3645 38.6416 80.379 38.6375 80.3928C38.6334 80.4067 38.6265 80.4196 38.6173 80.4307C38.6081 80.4418 38.5967 80.451 38.5839 80.4576C38.5711 80.4642 38.5571 80.4682 38.5427 80.4693H38.534ZM38.4847 79.638C38.456 79.6381 38.4284 79.6268 38.4078 79.6067C38.3872 79.5866 38.3753 79.5593 38.3745 79.5305C38.3745 79.4113 38.3745 79.2718 38.3745 79.112C38.3745 79.0835 38.3858 79.0561 38.4059 79.0359C38.4261 79.0158 38.4533 79.0044 38.4818 79.0044V79.0044C38.5103 79.0044 38.5376 79.0158 38.5577 79.0359C38.5778 79.0561 38.5891 79.0835 38.5891 79.112C38.5891 79.2689 38.5891 79.4026 38.5891 79.5276C38.5895 79.542 38.587 79.5563 38.5818 79.5696C38.5766 79.583 38.5687 79.5952 38.5587 79.6055C38.5487 79.6158 38.5368 79.624 38.5236 79.6296C38.5103 79.6352 38.4962 79.638 38.4818 79.638H38.4847ZM38.4847 78.8039C38.4706 78.8039 38.4567 78.8011 38.4436 78.7957C38.4306 78.7903 38.4188 78.7824 38.4088 78.7724C38.3989 78.7624 38.391 78.7506 38.3856 78.7375C38.3802 78.7245 38.3774 78.7105 38.3774 78.6964V78.2662C38.3774 78.2377 38.3887 78.2104 38.4088 78.1902C38.429 78.17 38.4562 78.1587 38.4847 78.1587C38.5134 78.1587 38.541 78.1699 38.5616 78.19C38.5822 78.2101 38.5942 78.2374 38.5949 78.2662V78.6818C38.5953 78.6962 38.5928 78.7105 38.5876 78.7239C38.5824 78.7373 38.5745 78.7495 38.5645 78.7598C38.5545 78.7701 38.5426 78.7782 38.5294 78.7838C38.5161 78.7894 38.502 78.7923 38.4876 78.7923L38.4847 78.8039ZM38.4847 77.9698C38.456 77.9698 38.4284 77.9585 38.4078 77.9385C38.3872 77.9184 38.3753 77.891 38.3745 77.8622V77.4437C38.3752 77.4154 38.3868 77.3885 38.4067 77.3685C38.4267 77.3485 38.4536 77.3369 38.4818 77.3362V77.3362C38.5105 77.3362 38.5381 77.3474 38.5587 77.3675C38.5793 77.3876 38.5913 77.4149 38.592 77.4437V77.8622C38.5913 77.8905 38.5797 77.9175 38.5598 77.9375C38.5398 77.9575 38.5129 77.969 38.4847 77.9698ZM38.4847 77.1356C38.4565 77.1349 38.4296 77.1233 38.4096 77.1033C38.3897 77.0833 38.3781 77.0564 38.3774 77.0281V76.6096C38.3774 76.5811 38.3887 76.5537 38.4088 76.5335C38.429 76.5134 38.4562 76.502 38.4847 76.502C38.5132 76.502 38.5405 76.5134 38.5606 76.5335C38.5807 76.5537 38.592 76.5811 38.592 76.6096V77.0281C38.5922 77.0435 38.589 77.0588 38.5827 77.0729C38.5764 77.087 38.5672 77.0996 38.5557 77.1098C38.5441 77.12 38.5305 77.1276 38.5157 77.132C38.501 77.1365 38.4855 77.1377 38.4702 77.1356H38.4847ZM38.4847 76.3015C38.456 76.3015 38.4284 76.2903 38.4078 76.2702C38.3872 76.2501 38.3753 76.2227 38.3745 76.194V75.7754C38.3787 75.7496 38.392 75.7261 38.4119 75.7091C38.4318 75.6922 38.4571 75.6829 38.4833 75.6829C38.5094 75.6829 38.5347 75.6922 38.5546 75.7091C38.5745 75.7261 38.5878 75.7496 38.592 75.7754V76.194C38.5917 76.2093 38.5882 76.2243 38.5818 76.2382C38.5754 76.2521 38.5661 76.2644 38.5547 76.2745C38.5432 76.2847 38.5298 76.2923 38.5153 76.2969C38.5007 76.3016 38.4854 76.3031 38.4702 76.3015H38.4847ZM38.4847 75.4674C38.4704 75.4677 38.4561 75.4653 38.4428 75.46C38.4294 75.4548 38.4172 75.4469 38.4069 75.4369C38.3967 75.4269 38.3885 75.4149 38.3829 75.4017C38.3774 75.3884 38.3745 75.3742 38.3745 75.3598V74.9442C38.3719 74.9284 38.3728 74.9122 38.3771 74.8968C38.3813 74.8814 38.3889 74.8671 38.3993 74.8549C38.4096 74.8426 38.4225 74.8328 38.437 74.8261C38.4515 74.8194 38.4673 74.8159 38.4833 74.8159C38.4992 74.8159 38.515 74.8194 38.5295 74.8261C38.544 74.8328 38.5569 74.8426 38.5673 74.8549C38.5776 74.8671 38.5852 74.8814 38.5895 74.8968C38.5937 74.9122 38.5946 74.9284 38.592 74.9442V75.3598C38.5922 75.3753 38.589 75.3905 38.5827 75.4046C38.5764 75.4187 38.5672 75.4313 38.5557 75.4415C38.5441 75.4517 38.5305 75.4593 38.5157 75.4638C38.501 75.4682 38.4855 75.4694 38.4702 75.4674H38.4847ZM38.4847 74.6332C38.4704 74.6336 38.4561 74.6311 38.4428 74.6259C38.4294 74.6207 38.4172 74.6128 38.4069 74.6028C38.3967 74.5928 38.3885 74.5808 38.3829 74.5675C38.3774 74.5543 38.3745 74.5401 38.3745 74.5257V74.1101C38.3741 74.0957 38.3766 74.0814 38.3818 74.068C38.387 74.0546 38.3949 74.0424 38.4049 74.0322C38.4149 74.0219 38.4269 74.0137 38.4401 74.0081C38.4533 74.0025 38.4675 73.9996 38.4818 73.9996C38.5105 74.0004 38.5378 74.0124 38.5579 74.033C38.5779 74.0536 38.5891 74.0813 38.5891 74.1101V74.5257C38.5892 74.5408 38.5861 74.5559 38.58 74.5697C38.5739 74.5836 38.5649 74.596 38.5537 74.6062C38.5425 74.6163 38.5292 74.624 38.5148 74.6286C38.5005 74.6333 38.4852 74.6349 38.4702 74.6332H38.4847ZM38.4847 73.802C38.4704 73.802 38.4562 73.7991 38.443 73.7935C38.4297 73.788 38.4178 73.7798 38.4078 73.7695C38.3978 73.7592 38.3899 73.747 38.3847 73.7336C38.3795 73.7202 38.377 73.7059 38.3774 73.6916V73.2759C38.3774 73.2474 38.3887 73.2201 38.4088 73.1999C38.429 73.1797 38.4562 73.1684 38.4847 73.1684C38.5132 73.1684 38.5405 73.1797 38.5606 73.1999C38.5807 73.2201 38.592 73.2474 38.592 73.2759V73.6916C38.5921 73.7071 38.5889 73.7225 38.5827 73.7367C38.5764 73.7509 38.5673 73.7636 38.5558 73.7741C38.5443 73.7845 38.5307 73.7924 38.516 73.7972C38.5012 73.802 38.4856 73.8036 38.4702 73.802H38.4847ZM38.4847 72.9679C38.456 72.9671 38.4287 72.9551 38.4086 72.9345C38.3886 72.9139 38.3774 72.8862 38.3774 72.8574V72.4534C38.3816 72.4276 38.3949 72.4041 38.4148 72.3871C38.4347 72.3702 38.46 72.3608 38.4862 72.3608C38.5123 72.3608 38.5376 72.3702 38.5575 72.3871C38.5774 72.4041 38.5907 72.4276 38.5949 72.4534V72.872C38.5931 72.8865 38.5885 72.9006 38.5812 72.9133C38.574 72.926 38.5642 72.9372 38.5526 72.9461C38.541 72.955 38.5278 72.9616 38.5136 72.9653C38.4995 72.969 38.4847 72.9699 38.4702 72.9679H38.4847Z" fill="white"/>
<path d="M38.6037 81.0973C38.5778 81.0969 38.5528 81.0874 38.5332 81.0704C38.5135 81.0534 38.5005 81.0299 38.4964 81.0043L38.4703 80.7863C38.4683 80.7723 38.4691 80.7581 38.4727 80.7444C38.4763 80.7308 38.4827 80.718 38.4913 80.7068C38.5 80.6957 38.5108 80.6864 38.5232 80.6796C38.5355 80.6728 38.5491 80.6685 38.5631 80.6671C38.5772 80.6651 38.5916 80.6659 38.6054 80.6695C38.6192 80.673 38.6322 80.6793 38.6435 80.688C38.6549 80.6967 38.6644 80.7075 38.6715 80.7199C38.6786 80.7323 38.6832 80.7459 38.685 80.7601L38.7111 80.9752C38.7131 80.9893 38.7123 81.0037 38.7087 81.0176C38.7051 81.0314 38.6988 81.0444 38.6902 81.0557C38.6816 81.0671 38.6707 81.0766 38.6584 81.0838C38.646 81.0909 38.6324 81.0955 38.6182 81.0973H38.6037Z" fill="white"/>
<path d="M30.6742 78.3854C30.6454 78.3854 30.6178 78.3742 30.5973 78.3541C30.5767 78.334 30.5647 78.3066 30.564 78.2779V78.0599C30.5682 78.034 30.5815 78.0105 30.6014 77.9936C30.6213 77.9766 30.6466 77.9673 30.6727 77.9673C30.6989 77.9673 30.7242 77.9766 30.7441 77.9936C30.764 78.0105 30.7773 78.034 30.7815 78.0599V78.2662C30.7827 78.2812 30.7808 78.2963 30.776 78.3105C30.7712 78.3247 30.7635 78.3378 30.7534 78.349C30.7434 78.3601 30.7312 78.3691 30.7176 78.3754C30.7039 78.3816 30.6892 78.385 30.6742 78.3854Z" fill="white"/>
<path d="M30.7235 84.0792C30.6965 84.0793 30.6705 84.0692 30.6506 84.0509C30.6307 84.0326 30.6184 84.0074 30.6162 83.9804C30.6162 83.8467 30.593 83.7101 30.5843 83.5735C30.5827 83.5447 30.5924 83.5164 30.6114 83.4947C30.6304 83.4729 30.6571 83.4595 30.6858 83.4573C30.7002 83.4556 30.7148 83.4571 30.7287 83.4614C30.7425 83.4658 30.7553 83.4729 30.7662 83.4825C30.7771 83.4921 30.7859 83.5038 30.7921 83.517C30.7982 83.5302 30.8015 83.5445 30.8018 83.559C30.8018 83.6927 30.8192 83.8264 30.8308 83.9601C30.8324 83.9742 30.8312 83.9885 30.8273 84.0022C30.8233 84.0159 30.8167 84.0286 30.8078 84.0397C30.7989 84.0508 30.7879 84.06 30.7754 84.0668C30.7629 84.0735 30.7492 84.0778 30.7351 84.0792H30.7235ZM30.6742 83.2684C30.6455 83.2684 30.6179 83.2571 30.5973 83.237C30.5767 83.217 30.5648 83.1896 30.564 83.1608V82.7539C30.5636 82.7396 30.5661 82.7253 30.5713 82.7119C30.5765 82.6985 30.5844 82.6863 30.5944 82.676C30.6044 82.6657 30.6164 82.6575 30.6296 82.6519C30.6428 82.6463 30.657 82.6435 30.6713 82.6435V82.6435C30.6996 82.6442 30.7264 82.6558 30.7464 82.6758C30.7664 82.6958 30.7779 82.7227 30.7786 82.751V83.1579C30.7786 83.1867 30.7674 83.2144 30.7474 83.235C30.7273 83.2556 30.7 83.2676 30.6713 83.2684H30.6742ZM30.6742 82.4546C30.66 82.455 30.6459 82.4525 30.6327 82.4472C30.6195 82.4419 30.6075 82.434 30.5974 82.424C30.5874 82.4139 30.5795 82.4019 30.5743 82.3886C30.569 82.3754 30.5665 82.3613 30.5669 82.347V81.9401C30.5669 81.9113 30.5781 81.8837 30.5982 81.8631C30.6182 81.8424 30.6455 81.8304 30.6742 81.8297V81.8297C30.6886 81.8297 30.7028 81.8326 30.716 81.8381C30.7292 81.8437 30.7411 81.8519 30.7511 81.8622C30.7611 81.8725 30.769 81.8847 30.7742 81.8981C30.7794 81.9115 30.7819 81.9258 30.7815 81.9401V82.3354C30.7815 82.3639 30.7702 82.3913 30.7501 82.4114C30.73 82.4316 30.7027 82.4429 30.6742 82.4429V82.4546ZM30.6742 81.6408C30.6455 81.6408 30.6179 81.6295 30.5973 81.6095C30.5767 81.5894 30.5648 81.562 30.564 81.5332V81.1263C30.564 81.0978 30.5753 81.0705 30.5954 81.0503C30.6156 81.0301 30.6429 81.0188 30.6713 81.0188V81.0188C30.6857 81.0184 30.6999 81.0209 30.7133 81.0261C30.7266 81.0314 30.7388 81.0392 30.7491 81.0493C30.7594 81.0593 30.7675 81.0713 30.7731 81.0845C30.7787 81.0977 30.7815 81.112 30.7815 81.1263V81.5332C30.7808 81.5615 30.7693 81.5885 30.7493 81.6085C30.7293 81.6285 30.7024 81.64 30.6742 81.6408ZM30.6742 80.827C30.6458 80.827 30.6185 80.8157 30.5983 80.7955C30.5782 80.7753 30.5669 80.748 30.5669 80.7194V80.3009C30.5711 80.2751 30.5844 80.2516 30.6043 80.2346C30.6242 80.2176 30.6495 80.2083 30.6757 80.2083C30.7018 80.2083 30.7271 80.2176 30.747 80.2346C30.7669 80.2516 30.7802 80.2751 30.7844 80.3009V80.7078C30.7857 80.7232 30.7837 80.7386 30.7785 80.7531C30.7733 80.7676 30.765 80.7808 30.7543 80.7918C30.7436 80.8028 30.7306 80.8114 30.7163 80.817C30.702 80.8225 30.6867 80.825 30.6713 80.8241L30.6742 80.827ZM30.6742 80.0161C30.6455 80.0153 30.6182 80.0034 30.5982 79.9827C30.5781 79.9621 30.5669 79.9345 30.5669 79.9057V79.4988C30.5711 79.4729 30.5844 79.4494 30.6043 79.4324C30.6242 79.4155 30.6495 79.4062 30.6757 79.4062C30.7018 79.4062 30.7271 79.4155 30.747 79.4324C30.7669 79.4494 30.7802 79.4729 30.7844 79.4988V79.9057C30.7829 79.9344 30.7703 79.9615 30.7491 79.981C30.728 80.0006 30.7001 80.0111 30.6713 80.0103L30.6742 80.0161ZM30.6742 79.2023C30.6455 79.2015 30.6182 79.1896 30.5982 79.1689C30.5781 79.1483 30.5669 79.1207 30.5669 79.0919V78.6879C30.5643 78.6721 30.5652 78.6559 30.5695 78.6405C30.5738 78.625 30.5813 78.6107 30.5917 78.5985C30.602 78.5863 30.6149 78.5765 30.6294 78.5698C30.6439 78.5631 30.6597 78.5596 30.6757 78.5596C30.6917 78.5596 30.7074 78.5631 30.7219 78.5698C30.7364 78.5765 30.7493 78.5863 30.7597 78.5985C30.77 78.6107 30.7776 78.625 30.7819 78.6405C30.7861 78.6559 30.787 78.6721 30.7844 78.6879V79.0948C30.7829 79.123 30.7707 79.1497 30.7502 79.1691C30.7297 79.1886 30.7025 79.1994 30.6742 79.1994V79.2023Z" fill="white"/>
<path d="M30.8044 84.6953C30.7784 84.6949 30.7534 84.6854 30.7338 84.6684C30.7142 84.6514 30.7012 84.628 30.6971 84.6023L30.671 84.3843C30.6689 84.3701 30.6699 84.3556 30.6736 84.3418C30.6774 84.328 30.684 84.3151 30.693 84.3039C30.702 84.2927 30.7131 84.2835 30.7258 84.2768C30.7385 84.2702 30.7524 84.2662 30.7667 84.2651C30.7947 84.2618 30.8229 84.2698 30.8452 84.2872C30.8675 84.3046 30.882 84.3301 30.8856 84.3581L30.9117 84.5732C30.9137 84.5874 30.9129 84.6018 30.9094 84.6156C30.9058 84.6294 30.8995 84.6424 30.8909 84.6538C30.8822 84.6651 30.8714 84.6746 30.859 84.6818C30.8467 84.6889 30.833 84.6935 30.8189 84.6953H30.8044Z" fill="white"/>
<path opacity="0.4" d="M22.8751 79.0336C23.0811 78.9145 23.2493 78.9929 23.2493 79.2109C23.2384 79.3347 23.1989 79.4543 23.134 79.5603C23.069 79.6662 22.9804 79.7555 22.8751 79.8213C22.6692 79.9404 22.501 79.859 22.501 79.644C22.5112 79.52 22.5504 79.4001 22.6154 79.2941C22.6804 79.188 22.7694 79.0988 22.8751 79.0336V79.0336Z" fill="black"/>
<path opacity="0.4" d="M30.674 77.2258C30.8799 77.1066 31.0481 77.1851 31.0481 77.403C31.0374 77.5265 30.998 77.6458 30.933 77.7513C30.8681 77.8568 30.7793 77.9456 30.674 78.0105C30.468 78.1326 30.2998 78.0512 30.2998 77.8361C30.31 77.7121 30.3492 77.5922 30.4142 77.4862C30.4792 77.3802 30.5682 77.291 30.674 77.2258V77.2258Z" fill="black"/>
<path opacity="0.4" d="M38.4703 71.4132C38.6763 71.294 38.8445 71.3754 38.8445 71.5904C38.8343 71.7145 38.7951 71.8343 38.7301 71.9403C38.6651 72.0464 38.5761 72.1356 38.4703 72.2008C38.2615 72.32 38.0962 72.2415 38.0962 72.0235C38.1062 71.8994 38.1453 71.7795 38.2103 71.6734C38.2753 71.5674 38.3644 71.4782 38.4703 71.4132V71.4132Z" fill="black"/>
<path opacity="0.4" d="M19.4784 81.5564C19.4909 81.5495 19.5019 81.5401 19.5107 81.5288C19.5195 81.5176 19.526 81.5047 19.5298 81.4909C19.5336 81.477 19.5346 81.4626 19.5327 81.4484C19.5309 81.4342 19.5262 81.4205 19.519 81.4082C19.5118 81.3959 19.5023 81.3852 19.4909 81.3766C19.4796 81.3681 19.4667 81.3618 19.4529 81.3583C19.4391 81.3548 19.4248 81.3541 19.4108 81.3561C19.3967 81.3582 19.3832 81.3631 19.3711 81.3704L19.081 81.5332V80.4142L19.4726 80.1875C19.4851 80.1805 19.4961 80.1712 19.5049 80.1599C19.5137 80.1487 19.5202 80.1357 19.524 80.1219C19.5278 80.1081 19.5288 80.0937 19.5269 80.0795C19.5251 80.0653 19.5204 80.0516 19.5132 80.0393C19.4986 80.0146 19.4751 79.9965 19.4475 79.9889C19.4198 79.9813 19.3904 79.9848 19.3653 79.9986L19.0752 80.1642V78.9842C19.0745 78.956 19.063 78.929 19.043 78.909C19.023 78.889 18.9961 78.8774 18.9679 78.8767C18.9395 78.8767 18.9122 78.888 18.892 78.9082C18.8719 78.9284 18.8606 78.9557 18.8606 78.9842V80.3008L18.4662 80.5275C18.4539 80.5347 18.4432 80.5443 18.4347 80.5557C18.4261 80.567 18.4199 80.58 18.4164 80.5938C18.4129 80.6075 18.4122 80.6219 18.4142 80.636C18.4163 80.65 18.4211 80.6636 18.4284 80.6758C18.4378 80.692 18.4514 80.7055 18.4677 80.7147C18.484 80.7239 18.5025 80.7285 18.5213 80.7281C18.5407 80.7288 18.5598 80.7237 18.5764 80.7136L18.8664 80.5508V81.6698L18.472 81.8965C18.4514 81.9084 18.4355 81.9268 18.4265 81.9488C18.4175 81.9708 18.4161 81.9951 18.4223 82.018C18.4286 82.0409 18.4423 82.0611 18.4613 82.0754C18.4802 82.0897 18.5034 82.0973 18.5271 82.097C18.5465 82.0977 18.5656 82.0926 18.5822 82.0825L18.8722 81.9197V83.0387L18.4778 83.2654C18.4652 83.2723 18.4542 83.2817 18.4454 83.293C18.4367 83.3043 18.4303 83.3174 18.4268 83.3313C18.4232 83.3452 18.4226 83.3597 18.4249 83.3738C18.4272 83.388 18.4323 83.4015 18.44 83.4136C18.449 83.4304 18.4624 83.4444 18.4788 83.4542C18.4951 83.4639 18.5138 83.469 18.5329 83.4688C18.5512 83.4685 18.5692 83.4635 18.5851 83.4543L18.8751 83.2886V84.4076L18.4807 84.6343C18.4682 84.6412 18.4572 84.6506 18.4484 84.6619C18.4395 84.6731 18.433 84.686 18.4292 84.6998C18.4255 84.7136 18.4245 84.7281 18.4263 84.7423C18.4282 84.7565 18.4328 84.7701 18.44 84.7825C18.45 84.7991 18.464 84.8129 18.4807 84.8226C18.4975 84.8323 18.5164 84.8375 18.5358 84.8377C18.5541 84.8374 18.5721 84.8324 18.588 84.8232L18.878 84.6575V85.7765L18.4836 86.0032C18.4711 86.0101 18.4601 86.0195 18.4513 86.0308C18.4424 86.042 18.4359 86.0549 18.4321 86.0687C18.4284 86.0826 18.4274 86.097 18.4292 86.1112C18.4311 86.1254 18.4357 86.1391 18.443 86.1514C18.4529 86.1681 18.4669 86.1819 18.4836 86.1915C18.5004 86.2012 18.5193 86.2064 18.5387 86.2066C18.5559 86.2105 18.5737 86.2105 18.5909 86.2066L18.8809 86.041V87.1599L18.4865 87.3866C18.4618 87.4012 18.4438 87.4248 18.4362 87.4525C18.4286 87.4802 18.4321 87.5097 18.4458 87.5349C18.4558 87.5515 18.4698 87.5653 18.4865 87.575C18.5033 87.5846 18.5222 87.5898 18.5416 87.5901C18.5598 87.5893 18.5777 87.5844 18.5938 87.5756L18.8838 87.4099V88.5288L18.4894 88.7555C18.4647 88.7701 18.4467 88.7938 18.4391 88.8214C18.4315 88.8491 18.435 88.8786 18.4487 88.9038C18.4582 88.9202 18.4717 88.9339 18.488 88.9435C18.5042 88.9532 18.5227 88.9585 18.5416 88.959C18.5608 88.9587 18.5797 88.9537 18.5967 88.9445L18.8867 88.7788C18.8867 89.1508 18.8867 89.5228 18.8867 89.8919L18.4836 90.1245C18.4617 90.1355 18.4443 90.1537 18.4342 90.176C18.4241 90.1984 18.4219 90.2235 18.428 90.2472C18.4341 90.271 18.4481 90.2919 18.4677 90.3066C18.4873 90.3213 18.5113 90.3288 18.5358 90.3279C18.555 90.3276 18.5739 90.3226 18.5909 90.3134L18.9012 90.1332C18.9244 90.5401 18.9592 90.947 19.0085 91.3451C19.0126 91.3708 19.0256 91.3942 19.0453 91.4113C19.0649 91.4283 19.0899 91.4378 19.1158 91.4382V91.4382C19.13 91.4364 19.1436 91.4318 19.156 91.4246C19.1683 91.4175 19.1792 91.408 19.1878 91.3966C19.1964 91.3853 19.2027 91.3723 19.2063 91.3585C19.2099 91.3446 19.2107 91.3302 19.2086 91.3161C19.1564 90.8888 19.1187 90.4442 19.0955 90.014L19.4668 89.7989C19.4918 89.7847 19.5101 89.7611 19.5177 89.7333C19.5253 89.7055 19.5216 89.6758 19.5074 89.6507C19.4932 89.6257 19.4696 89.6073 19.4418 89.5997C19.4141 89.592 19.3845 89.5958 19.3595 89.61L19.0868 89.767C19.0868 89.3979 19.0694 89.0258 19.0868 88.6538L19.4755 88.4271C19.4999 88.4131 19.5179 88.39 19.5255 88.3628C19.5331 88.3356 19.5297 88.3065 19.5161 88.2818C19.5092 88.2693 19.4998 88.2583 19.4886 88.2494C19.4773 88.2406 19.4644 88.2341 19.4507 88.2303C19.4369 88.2265 19.4225 88.2255 19.4083 88.2274C19.3942 88.2292 19.3805 88.2339 19.3682 88.2411L19.0781 88.4039V87.2849L19.4668 87.0582C19.4796 87.0515 19.491 87.0423 19.5002 87.031C19.5094 87.0198 19.5163 87.0068 19.5203 86.9929C19.5244 86.9789 19.5256 86.9643 19.5238 86.9499C19.5221 86.9355 19.5174 86.9215 19.5102 86.909C19.5029 86.8964 19.4932 86.8854 19.4816 86.8767C19.47 86.868 19.4568 86.8617 19.4427 86.8583C19.4286 86.8549 19.4139 86.8543 19.3996 86.8567C19.3853 86.8591 19.3717 86.8644 19.3595 86.8722L19.0694 87.035V85.916L19.461 85.6893C19.4732 85.6821 19.4839 85.6726 19.4925 85.6612C19.501 85.6498 19.5072 85.6369 19.5107 85.6231C19.5142 85.6093 19.515 85.5949 19.5129 85.5809C19.5108 85.5668 19.506 85.5533 19.4987 85.5411C19.4837 85.5169 19.4599 85.4994 19.4323 85.4924C19.4047 85.4853 19.3755 85.4892 19.3508 85.5033L19.0607 85.666V84.5471L19.4523 84.3204C19.4769 84.3057 19.4947 84.2819 19.5018 84.2541C19.5088 84.2263 19.5046 84.1968 19.49 84.1722C19.4754 84.1475 19.4516 84.1297 19.4238 84.1226C19.3961 84.1155 19.3667 84.1197 19.3421 84.1344L19.052 84.2971V83.1782L19.4436 82.9515C19.4561 82.9446 19.4671 82.9352 19.4759 82.9238C19.4847 82.9125 19.491 82.8995 19.4946 82.8856C19.4981 82.8717 19.4987 82.8572 19.4965 82.843C19.4942 82.8289 19.489 82.8153 19.4813 82.8032C19.4747 82.7908 19.4656 82.7798 19.4545 82.771C19.4435 82.7623 19.4307 82.7559 19.4171 82.7523C19.4034 82.7488 19.3892 82.7481 19.3753 82.7504C19.3614 82.7526 19.3481 82.7578 19.3363 82.7655L19.0462 82.9282V81.7831L19.4784 81.5564Z" fill="black"/>
<path d="M46.5769 88.2701L25.7929 100.288C25.062 100.709 24.0034 100.66 23.4726 100.122C22.9418 99.5847 23.1622 98.7593 23.8931 98.3379L44.6598 86.3228C45.0094 86.122 45.4138 86.0379 45.8143 86.0829C46.2148 86.1278 46.5906 86.2994 46.8873 86.5728C47.4326 87.1134 47.3078 87.8574 46.5769 88.2701Z" fill="#27DEBF"/>
<path opacity="0.4" d="M19.7193 94.1149C19.6826 94.1201 19.6453 94.1116 19.6145 94.091C19.5837 94.0704 19.5615 94.0392 19.5522 94.0033C19.5429 93.9674 19.5471 93.9293 19.564 93.8963C19.5809 93.8633 19.6093 93.8376 19.6439 93.8243L43.0412 80.3008C43.0757 80.2856 43.1146 80.2837 43.1505 80.2954C43.1864 80.3071 43.2167 80.3317 43.2357 80.3644C43.2547 80.397 43.261 80.4356 43.2535 80.4726C43.246 80.5097 43.2251 80.5427 43.1949 80.5653L19.7947 94.1033C19.7711 94.1141 19.745 94.1181 19.7193 94.1149Z" fill="black"/>
<path opacity="0.4" d="M20.1978 95.3851C20.1706 95.3847 20.1441 95.3773 20.1207 95.3635C20.0973 95.3497 20.0779 95.3301 20.0643 95.3066C20.0442 95.2715 20.0387 95.2298 20.049 95.1906C20.0593 95.1515 20.0846 95.118 20.1194 95.0973L43.5225 81.5593C43.5398 81.549 43.559 81.5422 43.5789 81.5393C43.5988 81.5365 43.6191 81.5377 43.6386 81.5428C43.658 81.548 43.6763 81.557 43.6922 81.5693C43.7081 81.5816 43.7215 81.597 43.7314 81.6146C43.7515 81.6497 43.757 81.6914 43.7467 81.7305C43.7363 81.7697 43.7111 81.8032 43.6763 81.8238L20.2819 95.3618C20.2569 95.378 20.2275 95.3862 20.1978 95.3851V95.3851Z" fill="black"/>
<path opacity="0.4" d="M20.7866 96.5998C20.7518 96.6009 20.7177 96.59 20.6899 96.5691C20.6621 96.5482 20.6421 96.5184 20.6334 96.4846C20.6246 96.4509 20.6275 96.4151 20.6417 96.3833C20.6558 96.3514 20.6803 96.3253 20.7112 96.3092L44.1172 82.7654C44.1518 82.7502 44.1907 82.7483 44.2266 82.76C44.2625 82.7717 44.2928 82.7963 44.3118 82.829C44.3308 82.8616 44.3371 82.9002 44.3296 82.9372C44.322 82.9743 44.3012 83.0073 44.2709 83.0299L20.862 96.5766C20.8387 96.5894 20.8131 96.5973 20.7866 96.5998V96.5998Z" fill="black"/>
<path opacity="0.4" d="M21.4858 97.7566C21.4586 97.7562 21.4321 97.7488 21.4087 97.7351C21.3853 97.7213 21.3659 97.7017 21.3523 97.6782C21.3421 97.6611 21.3353 97.6421 21.3325 97.6224C21.3297 97.6026 21.3309 97.5825 21.3361 97.5632C21.3412 97.544 21.3502 97.5259 21.3625 97.5102C21.3747 97.4945 21.39 97.4814 21.4074 97.4718L44.8163 83.928C44.8509 83.9128 44.8898 83.9109 44.9257 83.9226C44.9616 83.9343 44.9919 83.9589 45.0109 83.9916C45.0299 84.0242 45.0362 84.0628 45.0287 84.0998C45.0212 84.1369 45.0003 84.1699 44.9701 84.1925L21.5612 97.7392C21.5382 97.752 21.512 97.7581 21.4858 97.7566V97.7566Z" fill="black"/>
<path d="M41.913 75.3309L61.1773 64.1907C61.9081 63.7692 63.0712 63.5193 63.7238 63.7838C64.3764 64.0482 64.2545 64.7342 63.5237 65.1556L44.0361 76.4237C43.3052 76.848 42.2668 76.8916 41.6868 76.5777C41.1067 76.2638 41.1821 75.7523 41.913 75.3309Z" fill="#27DEBF"/>
<path opacity="0.4" d="M44.1463 78.3943C44.1191 78.3939 44.0926 78.3864 44.0692 78.3727C44.0458 78.3589 44.0264 78.3393 44.0128 78.3158C43.993 78.2803 43.9879 78.2384 43.9988 78.1992C44.0096 78.16 44.0356 78.1267 44.0708 78.1065L66.2645 65.269C66.2995 65.2488 66.3411 65.2433 66.3802 65.2536C66.4193 65.264 66.4527 65.2893 66.4733 65.3242C66.4835 65.3417 66.4902 65.361 66.4928 65.3811C66.4954 65.4012 66.494 65.4216 66.4885 65.4411C66.4831 65.4607 66.4739 65.4789 66.4613 65.4947C66.4487 65.5106 66.4331 65.5238 66.4153 65.5334L44.2217 78.371C44.1991 78.3856 44.173 78.3936 44.1463 78.3943Z" fill="black"/>
<path opacity="0.4" d="M45.0657 79.3882C45.0386 79.3878 45.012 79.3804 44.9886 79.3666C44.9652 79.3528 44.9458 79.3332 44.9323 79.3097C44.9124 79.2742 44.9073 79.2323 44.9182 79.1931C44.9291 79.1539 44.955 79.1206 44.9903 79.1004L67.2187 66.2455C67.2358 66.2351 67.2547 66.2284 67.2744 66.2256C67.2941 66.2228 67.3142 66.224 67.3334 66.2292C67.3526 66.2343 67.3706 66.2433 67.3863 66.2556C67.402 66.2679 67.415 66.2832 67.4246 66.3007C67.4448 66.3358 67.4503 66.3775 67.4399 66.4166C67.4296 66.4558 67.4043 66.4893 67.3695 66.5099L45.1411 79.3678C45.1179 79.3803 45.092 79.3873 45.0657 79.3882Z" fill="black"/>
<path opacity="0.4" d="M48.7462 90.764C48.7318 90.764 48.7176 90.7612 48.7044 90.7556C48.6912 90.75 48.6793 90.7418 48.6693 90.7315C48.6593 90.7212 48.6514 90.709 48.6462 90.6956C48.641 90.6823 48.6385 90.668 48.6389 90.6536V89.4736C48.6389 88.5871 48.6389 88.5871 48.6157 87.9855V87.8867C48.5493 86.5135 48.2865 85.1569 47.8355 83.8584C47.3852 82.5794 46.7071 81.3928 45.8342 80.3562C45.8161 80.3339 45.8077 80.3052 45.8106 80.2766C45.8136 80.248 45.8279 80.2218 45.8502 80.2036C45.8725 80.1855 45.901 80.177 45.9296 80.18C45.9582 80.183 45.9844 80.1973 46.0024 80.2196C46.8886 81.2768 47.5765 82.4859 48.0327 83.7887C48.4923 85.0997 48.7619 86.4699 48.8332 87.8576V87.9594C48.8593 88.5639 48.8593 88.5639 48.8564 89.4591V90.6391C48.8585 90.6547 48.8572 90.6707 48.8526 90.6858C48.848 90.7009 48.8402 90.7149 48.8297 90.7267C48.8193 90.7386 48.8064 90.748 48.792 90.7545C48.7776 90.7609 48.762 90.7642 48.7462 90.764V90.764Z" fill="black"/>
<path d="M48.523 81.4634C48.4244 81.2891 48.317 81.1205 48.2039 80.9519C48.1752 80.9126 48.1551 80.8677 48.1451 80.82C48.135 80.7724 48.1352 80.7231 48.1457 80.6756C48.1561 80.628 48.1765 80.5832 48.2056 80.5442C48.2346 80.5051 48.2716 80.4727 48.3141 80.4491L56.7948 75.5431C56.8838 75.4905 56.9897 75.4745 57.0902 75.4983C57.1908 75.5222 57.2782 75.584 57.3343 75.671C57.4358 75.8367 57.5344 76.014 57.6243 76.1971C57.6701 76.2899 57.6791 76.3967 57.6495 76.4959C57.6199 76.5951 57.5539 76.6794 57.4648 76.7318L49.0305 81.6088C48.9878 81.6333 48.9407 81.649 48.8918 81.655C48.843 81.6609 48.7935 81.657 48.7461 81.6435C48.6988 81.6299 48.6547 81.607 48.6164 81.5761C48.578 81.5452 48.5463 81.5069 48.523 81.4634V81.4634Z" fill="#27DEBF"/>
<path d="M49.3495 83.434C49.4104 83.6287 49.4713 83.8205 49.5235 84.0152C49.5346 84.0588 49.5555 84.0992 49.5847 84.1333C49.6139 84.1674 49.6507 84.1942 49.692 84.2116C49.7333 84.2291 49.7781 84.2367 49.8228 84.2339C49.8676 84.2311 49.9111 84.2179 49.9499 84.1954L70.0698 72.5553C70.1621 72.4977 70.2343 72.4128 70.2763 72.3123C70.3184 72.2119 70.3283 72.1008 70.3047 71.9944C70.2496 71.7939 70.1916 71.5991 70.1336 71.4131C70.123 71.3663 70.101 71.3228 70.0695 71.2866C70.0381 71.2504 69.9981 71.2225 69.9533 71.2056C69.9085 71.1886 69.8602 71.183 69.8127 71.1893C69.7652 71.1956 69.72 71.2136 69.6811 71.2416L49.5554 82.8818C49.4658 82.9387 49.3971 83.0235 49.3599 83.1232C49.3228 83.2229 49.3191 83.332 49.3495 83.434V83.434Z" fill="#27DEBF"/>
<path opacity="0.7" d="M49.3495 83.434C49.4104 83.6287 49.4713 83.8205 49.5235 84.0152C49.5346 84.0588 49.5555 84.0992 49.5847 84.1333C49.6139 84.1674 49.6507 84.1942 49.692 84.2116C49.7333 84.2291 49.7781 84.2367 49.8228 84.2339C49.8676 84.2311 49.9111 84.2179 49.9499 84.1954L70.0698 72.5553C70.1621 72.4977 70.2343 72.4128 70.2763 72.3123C70.3184 72.2119 70.3283 72.1008 70.3047 71.9944C70.2496 71.7939 70.1916 71.5991 70.1336 71.4131C70.123 71.3663 70.101 71.3228 70.0695 71.2866C70.0381 71.2504 69.9981 71.2225 69.9533 71.2056C69.9085 71.1886 69.8602 71.183 69.8127 71.1893C69.7652 71.1956 69.72 71.2136 69.6811 71.2416L49.5554 82.8818C49.4658 82.9387 49.3971 83.0235 49.3599 83.1232C49.3228 83.2229 49.3191 83.332 49.3495 83.434V83.434Z" fill="white"/>
<path d="M49.9355 86.1137C49.9616 86.3288 49.9819 86.5381 49.9993 86.7386C49.9947 86.7816 50.003 86.8249 50.0231 86.8631C50.0432 86.9013 50.0742 86.9327 50.1121 86.9533C50.15 86.9738 50.1932 86.9826 50.2361 86.9785C50.279 86.9745 50.3197 86.9577 50.3531 86.9304L63.9849 79.0454C64.0818 78.9835 64.161 78.8974 64.2144 78.7954C64.2678 78.6934 64.2937 78.5792 64.2894 78.4641C64.272 78.2548 64.2488 78.0485 64.2256 77.8392C64.2251 77.795 64.2122 77.7517 64.1886 77.7143C64.1649 77.677 64.1313 77.647 64.0915 77.6276C64.0518 77.6083 64.0075 77.6005 63.9635 77.605C63.9196 77.6095 63.8778 77.6262 63.8427 77.6532L50.211 85.5354C50.117 85.5976 50.0417 85.6843 49.9932 85.7862C49.9446 85.8881 49.9247 86.0013 49.9355 86.1137V86.1137Z" fill="#27DEBF"/>
<path opacity="0.15" d="M49.9355 86.1137C49.9616 86.3288 49.9819 86.5381 49.9993 86.7386C49.9947 86.7816 50.003 86.8249 50.0231 86.8631C50.0432 86.9013 50.0742 86.9327 50.1121 86.9533C50.15 86.9738 50.1932 86.9826 50.2361 86.9785C50.279 86.9745 50.3197 86.9577 50.3531 86.9304L63.9849 79.0454C64.0818 78.9835 64.161 78.8974 64.2144 78.7954C64.2678 78.6934 64.2937 78.5792 64.2894 78.4641C64.272 78.2548 64.2488 78.0485 64.2256 77.8392C64.2251 77.795 64.2122 77.7517 64.1886 77.7143C64.1649 77.677 64.1313 77.647 64.0915 77.6276C64.0518 77.6083 64.0075 77.6005 63.9635 77.605C63.9196 77.6095 63.8778 77.6262 63.8427 77.6532L50.211 85.5354C50.117 85.5976 50.0417 85.6843 49.9932 85.7862C49.9446 85.8881 49.9247 86.0013 49.9355 86.1137V86.1137Z" fill="black"/>
<path d="M50.0459 88.901V89.5171C50.0459 89.7264 50.1938 89.8078 50.3765 89.706L56.2121 86.3317C56.3093 86.2681 56.39 86.1822 56.4475 86.0811C56.505 85.98 56.5377 85.8667 56.5427 85.7504V85.1343C56.5427 84.9221 56.3948 84.8436 56.2121 84.9425L50.3765 88.3197C50.2793 88.3833 50.1986 88.4692 50.1411 88.5703C50.0836 88.6714 50.051 88.7847 50.0459 88.901V88.901Z" fill="#27DEBF"/>
<path opacity="0.5" d="M50.0459 88.901V89.5171C50.0459 89.7264 50.1938 89.8078 50.3765 89.706L56.2121 86.3317C56.3093 86.2681 56.39 86.1822 56.4475 86.0811C56.505 85.98 56.5377 85.8667 56.5427 85.7504V85.1343C56.5427 84.9221 56.3948 84.8436 56.2121 84.9425L50.3765 88.3197C50.2793 88.3833 50.1986 88.4692 50.1411 88.5703C50.0836 88.6714 50.051 88.7847 50.0459 88.901V88.901Z" fill="white"/>
<path opacity="0.4" d="M70.8356 79.1907C70.8064 79.1907 70.7783 79.2023 70.7577 79.223C70.737 79.2437 70.7254 79.2718 70.7254 79.3011V79.8272L69.1708 80.7253V80.3329C69.1666 80.307 69.1533 80.2835 69.1334 80.2666C69.1135 80.2496 69.0882 80.2403 69.062 80.2403C69.0359 80.2403 69.0106 80.2496 68.9907 80.2666C68.9707 80.2835 68.9575 80.307 68.9533 80.3329V80.8502L67.3987 81.7512V81.3647C67.4013 81.3489 67.4004 81.3327 67.3961 81.3172C67.3918 81.3018 67.3843 81.2875 67.3739 81.2753C67.3636 81.2631 67.3507 81.2533 67.3362 81.2466C67.3217 81.2398 67.3059 81.2364 67.2899 81.2364C67.2739 81.2364 67.2581 81.2398 67.2436 81.2466C67.2291 81.2533 67.2163 81.2631 67.2059 81.2753C67.1956 81.2875 67.188 81.3018 67.1837 81.3172C67.1794 81.3327 67.1786 81.3489 67.1811 81.3647V81.8762L65.6265 82.7743V82.3964C65.6266 82.3676 65.6153 82.34 65.5953 82.3193C65.5753 82.2987 65.548 82.2867 65.5192 82.286C65.5049 82.286 65.4907 82.2889 65.4775 82.2944C65.4643 82.3 65.4523 82.3082 65.4423 82.3185C65.4323 82.3288 65.4245 82.341 65.4192 82.3544C65.414 82.3678 65.4115 82.3821 65.4119 82.3964V82.8992L63.8544 83.8002V83.4282C63.8544 83.3997 63.8431 83.3723 63.823 83.3522C63.8029 83.332 63.7756 83.3207 63.7471 83.3207C63.7186 83.3207 63.6913 83.332 63.6712 83.3522C63.6511 83.3723 63.6398 83.3997 63.6398 83.4282V83.9252L62.0823 84.8262V84.46C62.0827 84.4457 62.0802 84.4316 62.0749 84.4183C62.0697 84.4051 62.0618 84.3931 62.0518 84.383C62.0417 84.373 62.0297 84.3651 62.0165 84.3598C62.0033 84.3545 61.9892 84.352 61.975 84.3524C61.9609 84.3524 61.9469 84.3552 61.9339 84.3606C61.9209 84.366 61.9091 84.3739 61.8991 84.3839C61.8891 84.3939 61.8812 84.4058 61.8758 84.4188C61.8704 84.4319 61.8677 84.4458 61.8677 84.46V84.9512L60.3073 85.8492V85.4917C60.303 85.4659 60.2898 85.4424 60.2699 85.4254C60.2499 85.4085 60.2246 85.3992 60.1985 85.3992C60.1724 85.3992 60.1471 85.4085 60.1271 85.4254C60.1072 85.4424 60.094 85.4659 60.0897 85.4917V85.9742L58.5351 86.8752V86.5235C58.5309 86.4977 58.5177 86.4742 58.4977 86.4572C58.4778 86.4402 58.4525 86.4309 58.4264 86.4309C58.4002 86.4309 58.3749 86.4402 58.355 86.4572C58.3351 86.4742 58.3218 86.4977 58.3176 86.5235V87.0002L56.763 87.8982V87.5669C56.7588 87.5411 56.7455 87.5176 56.7256 87.5006C56.7057 87.4836 56.6804 87.4743 56.6542 87.4743C56.6281 87.4743 56.6028 87.4836 56.5829 87.5006C56.563 87.5176 56.5497 87.5411 56.5455 87.5669V88.0348L54.9909 88.9358V88.5987C54.9867 88.5728 54.9734 88.5493 54.9535 88.5324C54.9336 88.5154 54.9083 88.5061 54.8821 88.5061C54.856 88.5061 54.8307 88.5154 54.8108 88.5324C54.7908 88.5493 54.7776 88.5728 54.7734 88.5987V89.0608L53.2188 89.9618V89.6305C53.2145 89.6046 53.2013 89.5811 53.1813 89.5641C53.1614 89.5472 53.1361 89.5379 53.11 89.5379C53.0839 89.5379 53.0586 89.5472 53.0386 89.5641C53.0187 89.5811 53.0055 89.6046 53.0012 89.6305V90.0868L51.4466 90.9848V90.6622C51.4424 90.6364 51.4291 90.6129 51.4092 90.5959C51.3893 90.579 51.364 90.5696 51.3379 90.5696C51.3117 90.5696 51.2864 90.579 51.2665 90.5959C51.2466 90.6129 51.2333 90.6364 51.2291 90.6622V91.1098L49.8804 91.8916C49.8679 91.8986 49.857 91.908 49.8481 91.9192C49.8393 91.9305 49.8328 91.9434 49.829 91.9572C49.8252 91.971 49.8242 91.9854 49.8261 91.9996C49.828 92.0138 49.8326 92.0275 49.8398 92.0399C49.8497 92.0565 49.8637 92.0703 49.8805 92.08C49.8973 92.0896 49.9162 92.0948 49.9355 92.0951C49.9543 92.0947 49.9725 92.0886 49.9877 92.0776L51.2291 91.3598V91.8015C51.2333 91.8274 51.2466 91.8509 51.2665 91.8678C51.2864 91.8848 51.3117 91.8941 51.3379 91.8941C51.364 91.8941 51.3893 91.8848 51.4092 91.8678C51.4291 91.8509 51.4424 91.8274 51.4466 91.8015V91.2348L53.0012 90.3367V90.7639C53.0055 90.7898 53.0187 90.8133 53.0386 90.8303C53.0586 90.8472 53.0839 90.8565 53.11 90.8565C53.1361 90.8565 53.1614 90.8472 53.1813 90.8303C53.2013 90.8133 53.2145 90.7898 53.2188 90.7639V90.2059L54.7734 89.3049V89.7322C54.7776 89.758 54.7908 89.7815 54.8108 89.7985C54.8307 89.8154 54.856 89.8248 54.8821 89.8248C54.9083 89.8248 54.9336 89.8154 54.9535 89.7985C54.9734 89.7815 54.9867 89.758 54.9909 89.7322V89.18L56.5455 88.2819V88.7004C56.5497 88.7263 56.563 88.7498 56.5829 88.7667C56.6028 88.7837 56.6281 88.793 56.6542 88.793C56.6804 88.793 56.7057 88.7837 56.7256 88.7667C56.7455 88.7498 56.7588 88.7263 56.763 88.7004V88.1482L58.3176 87.2501V87.6628C58.3218 87.6887 58.3351 87.7122 58.355 87.7291C58.3749 87.7461 58.4002 87.7554 58.4264 87.7554C58.4525 87.7554 58.4778 87.7461 58.4977 87.7291C58.5177 87.7122 58.5309 87.6887 58.5351 87.6628V87.1251L60.0897 86.2242V86.631C60.094 86.6569 60.1072 86.6804 60.1271 86.6974C60.1471 86.7143 60.1724 86.7236 60.1985 86.7236C60.2246 86.7236 60.2499 86.7143 60.2699 86.6974C60.2898 86.6804 60.303 86.6569 60.3073 86.631V86.1137L61.8619 85.2156V85.6138C61.8626 85.6421 61.8741 85.669 61.8941 85.689C61.9141 85.709 61.9409 85.7206 61.9692 85.7213C61.9833 85.7213 61.9972 85.7186 62.0102 85.7132C62.0233 85.7078 62.0351 85.6998 62.0451 85.6899C62.055 85.6799 62.0629 85.668 62.0683 85.655C62.0737 85.6419 62.0765 85.6279 62.0765 85.6138V85.0907L63.634 84.1897V84.582C63.634 84.6106 63.6453 84.6379 63.6654 84.6581C63.6855 84.6783 63.7128 84.6896 63.7413 84.6896C63.7698 84.6896 63.7971 84.6783 63.8172 84.6581C63.8373 84.6379 63.8486 84.6106 63.8486 84.582V84.0502L65.4061 83.1492V83.5357C65.4061 83.5643 65.4174 83.5916 65.4376 83.6118C65.4577 83.6319 65.485 83.6433 65.5134 83.6433C65.5417 83.6425 65.5685 83.631 65.5885 83.611C65.6085 83.591 65.62 83.564 65.6207 83.5357V83.0242L67.1753 82.1261V82.504C67.1796 82.5298 67.1928 82.5533 67.2128 82.5703C67.2327 82.5872 67.258 82.5966 67.2841 82.5966C67.3102 82.5966 67.3355 82.5872 67.3555 82.5703C67.3754 82.5533 67.3886 82.5298 67.3929 82.504V82.0012L68.9475 81.1002V81.4635C68.9517 81.4893 68.965 81.5128 68.9849 81.5298C69.0048 81.5468 69.0301 81.5561 69.0562 81.5561C69.0824 81.5561 69.1077 81.5468 69.1276 81.5298C69.1475 81.5128 69.1608 81.4893 69.165 81.4635V80.9665L70.7196 80.0684V80.4317C70.7238 80.4576 70.7371 80.4811 70.757 80.498C70.7769 80.515 70.8022 80.5243 70.8284 80.5243C70.8545 80.5243 70.8798 80.515 70.8997 80.498C70.9196 80.4811 70.9329 80.4576 70.9371 80.4317V79.2924C70.9351 79.2661 70.9238 79.2414 70.9052 79.2227C70.8865 79.204 70.8619 79.1927 70.8356 79.1907V79.1907Z" fill="black"/>
<path d="M53.7783 93.4873C53.3794 93.5796 52.9977 93.7346 52.6471 93.9465C50.4951 95.2137 48.752 98.3846 48.752 101.026C48.752 101.099 48.752 101.166 48.752 101.233L52.6414 99.4483L53.7783 93.4873Z" fill="#27DEBF"/>
<path d="M53.7786 93.4873L52.6445 99.4483L56.4991 97.2075C56.5279 96.9673 56.5424 96.7257 56.5426 96.4838C56.5368 94.3098 55.3767 93.1531 53.7786 93.4873Z" fill="#27DEBF"/>
<path d="M56.0119 99.2158C56.2572 98.5694 56.4209 97.8947 56.4991 97.2075L52.6445 99.4483L56.0119 99.2158Z" fill="#27DEBF"/>
<path d="M48.7549 101.227C48.8419 103.726 50.5531 104.77 52.6472 103.552C54.0974 102.721 55.3387 101.032 56.0116 99.1924L52.6443 99.4249L48.7549 101.227Z" fill="#27DEBF"/>
<path opacity="0.7" d="M53.7786 93.4873L52.6445 99.4483L56.4991 97.2075C56.5279 96.9673 56.5424 96.7257 56.5426 96.4838C56.5368 94.3098 55.3767 93.1531 53.7786 93.4873Z" fill="white"/>
<path opacity="0.15" d="M56.0119 99.2158C56.2572 98.5694 56.4209 97.8947 56.4991 97.2075L52.6445 99.4483L56.0119 99.2158Z" fill="black"/>
<path opacity="0.5" d="M48.7549 101.227C48.8419 103.726 50.5531 104.77 52.6472 103.552C54.0974 102.721 55.3387 101.032 56.0116 99.1924L52.6443 99.4249L48.7549 101.227Z" fill="white"/>
<path d="M53.7783 93.4873C53.3794 93.5796 52.9977 93.7346 52.6471 93.9465C50.4951 95.2137 48.752 98.3846 48.752 101.026C48.752 101.099 48.752 101.166 48.752 101.233L52.6414 99.4483L53.7783 93.4873Z" stroke="white" stroke-width="1.05" stroke-linecap="round" stroke-linejoin="round"/>
<path d="M53.7786 93.4873L52.6445 99.4483L56.4991 97.2075C56.5279 96.9673 56.5424 96.7257 56.5426 96.4838C56.5368 94.3098 55.3767 93.1531 53.7786 93.4873Z" stroke="white" stroke-width="1.05" stroke-linecap="round" stroke-linejoin="round"/>
<path d="M56.0119 99.2158C56.2572 98.5694 56.4209 97.8947 56.4991 97.2075L52.6445 99.4483L56.0119 99.2158Z" stroke="white" stroke-width="1.05" stroke-linecap="round" stroke-linejoin="round"/>
<path d="M48.7549 101.227C48.8419 103.726 50.5531 104.77 52.6472 103.552C54.0974 102.721 55.3387 101.032 56.0116 99.1924L52.6443 99.4249L48.7549 101.227Z" stroke="white" stroke-width="1.05" stroke-linecap="round" stroke-linejoin="round"/>
<path d="M65.1742 87.1833C63.9068 88.7121 63.0396 90.8483 63.0396 92.7258C63.0143 93.4476 63.1847 94.1627 63.5326 94.7952L66.9377 90.4734L65.1742 87.1833Z" fill="#27DEBF"/>
<path d="M68.6954 85.1371C68.0738 85.1313 67.4636 85.3048 66.9377 85.637C66.2635 86.0441 65.6665 86.5676 65.1743 87.1832L66.9377 90.4674L68.6954 85.1371Z" fill="#27DEBF"/>
<path d="M70.4731 86.384C70.3248 86.029 70.079 85.7233 69.7643 85.5026C69.4496 85.2819 69.0788 85.1552 68.6951 85.1372L66.9375 90.4733L70.4731 86.384Z" fill="#27DEBF"/>
<path d="M70.4733 86.384L66.9377 90.4733L63.5327 94.801C64.1998 95.8909 65.4731 96.1524 66.9377 95.3067C69.0898 94.0598 70.8358 90.8889 70.8358 88.218C70.8533 87.5872 70.7295 86.9605 70.4733 86.384V86.384Z" fill="#27DEBF"/>
<path opacity="0.7" d="M68.6954 85.1371C68.0738 85.1313 67.4636 85.3048 66.9377 85.637C66.2635 86.0441 65.6665 86.5676 65.1743 87.1832L66.9377 90.4674L68.6954 85.1371Z" fill="white"/>
<path opacity="0.15" d="M70.4731 86.384C70.3248 86.029 70.079 85.7233 69.7643 85.5026C69.4496 85.2819 69.0788 85.1552 68.6951 85.1372L66.9375 90.4733L70.4731 86.384Z" fill="black"/>
<path opacity="0.5" d="M70.4733 86.384L66.9377 90.4733L63.5327 94.801C64.1998 95.8909 65.4731 96.1524 66.9377 95.3067C69.0898 94.0598 70.8358 90.8889 70.8358 88.218C70.8533 87.5872 70.7295 86.9605 70.4733 86.384V86.384Z" fill="white"/>
<path d="M65.1742 87.1833C63.9068 88.7121 63.0396 90.8483 63.0396 92.7258C63.0143 93.4476 63.1847 94.1627 63.5326 94.7952L66.9377 90.4734L65.1742 87.1833Z" stroke="white" stroke-width="1.05" stroke-linecap="round" stroke-linejoin="round"/>
<path d="M68.6954 85.1371C68.0738 85.1313 67.4636 85.3048 66.9377 85.637C66.2635 86.0441 65.6665 86.5676 65.1743 87.1832L66.9377 90.4674L68.6954 85.1371Z" stroke="white" stroke-width="1.05" stroke-linecap="round" stroke-linejoin="round"/>
<path d="M70.4731 86.384C70.3248 86.029 70.079 85.7233 69.7643 85.5026C69.4496 85.2819 69.0788 85.1552 68.6951 85.1372L66.9375 90.4733L70.4731 86.384Z" stroke="white" stroke-width="1.05" stroke-linecap="round" stroke-linejoin="round"/>
<path d="M70.4733 86.384L66.9377 90.4733L63.5327 94.801C64.1998 95.8909 65.4731 96.1524 66.9377 95.3067C69.0898 94.0598 70.8358 90.8889 70.8358 88.218C70.8533 87.5872 70.7295 86.9605 70.4733 86.384V86.384Z" stroke="white" stroke-width="1.05" stroke-linecap="round" stroke-linejoin="round"/>
<path d="M58.1724 90.7174L58.8105 90.3483C58.9932 90.2437 59.1412 90.3309 59.1412 90.5401V91.1563C59.1361 91.2725 59.1035 91.3859 59.046 91.487C58.9885 91.588 58.9077 91.6739 58.8105 91.7375L58.1724 92.1067C57.9897 92.2113 57.8418 92.127 57.8418 91.9148V91.3016C57.8467 91.1849 57.8792 91.071 57.9367 90.9695C57.9942 90.8679 58.075 90.7815 58.1724 90.7174Z" fill="#27DEBF"/>
<path d="M58.1724 93.4755L58.8105 93.1064C58.9932 92.9989 59.1412 93.0861 59.1412 93.2983V93.9115C59.1366 94.0278 59.1041 94.1414 59.0466 94.2425C58.989 94.3437 58.9081 94.4295 58.8105 94.4928L58.1724 94.8619C57.9897 94.9694 57.8418 94.8822 57.8418 94.6701V94.0481C57.8478 93.9333 57.8808 93.8215 57.9383 93.7219C57.9958 93.6224 58.076 93.5379 58.1724 93.4755V93.4755Z" fill="#27DEBF"/>
<path opacity="0.7" d="M58.1724 93.4755L58.8105 93.1064C58.9932 92.9989 59.1412 93.0861 59.1412 93.2983V93.9115C59.1366 94.0278 59.1041 94.1414 59.0466 94.2425C58.989 94.3437 58.9081 94.4295 58.8105 94.4928L58.1724 94.8619C57.9897 94.9694 57.8418 94.8822 57.8418 94.6701V94.0481C57.8478 93.9333 57.8808 93.8215 57.9383 93.7219C57.9958 93.6224 58.076 93.5379 58.1724 93.4755V93.4755Z" fill="white"/>
<path d="M58.1724 96.2309L58.8105 95.8617C58.9932 95.7571 59.1412 95.8414 59.1412 96.0536V96.6668C59.1359 96.783 59.1031 96.8963 59.0456 96.9973C58.9882 97.0984 58.9076 97.1843 58.8105 97.2481L58.1724 97.6172C57.9897 97.7218 57.8418 97.6347 57.8418 97.4254V96.8092C57.8473 96.6935 57.8802 96.5807 57.9377 96.4802C57.9951 96.3796 58.0756 96.2942 58.1724 96.2309V96.2309Z" fill="#27DEBF"/>
<path opacity="0.15" d="M58.1724 96.2309L58.8105 95.8617C58.9932 95.7571 59.1412 95.8414 59.1412 96.0536V96.6668C59.1359 96.783 59.1031 96.8963 59.0456 96.9973C58.9882 97.0984 58.9076 97.1843 58.8105 97.2481L58.1724 97.6172C57.9897 97.7218 57.8418 97.6347 57.8418 97.4254V96.8092C57.8473 96.6935 57.8802 96.5807 57.9377 96.4802C57.9951 96.3796 58.0756 96.2942 58.1724 96.2309V96.2309Z" fill="black"/>
<path d="M58.1724 98.9862L58.8105 98.6171C58.9932 98.5125 59.1412 98.5997 59.1412 98.8089V99.4251C59.1361 99.5413 59.1035 99.6547 59.046 99.7558C58.9885 99.8568 58.9077 99.9427 58.8105 100.006L58.1724 100.375C57.9897 100.48 57.8418 100.396 57.8418 100.184V99.5704C57.8467 99.4537 57.8792 99.3399 57.9367 99.2383C57.9942 99.1367 58.075 99.0503 58.1724 98.9862V98.9862Z" fill="#27DEBF"/>
<path opacity="0.5" d="M58.1724 98.9862L58.8105 98.6171C58.9932 98.5125 59.1412 98.5997 59.1412 98.8089V99.4251C59.1361 99.5413 59.1035 99.6547 59.046 99.7558C58.9885 99.8568 58.9077 99.9427 58.8105 100.006L58.1724 100.375C57.9897 100.48 57.8418 100.396 57.8418 100.184V99.5704C57.8467 99.4537 57.8792 99.3399 57.9367 99.2383C57.9942 99.1367 58.075 99.0503 58.1724 98.9862V98.9862Z" fill="white"/>
<path opacity="0.4" d="M59.7966 90.6563C59.7586 90.6563 59.7213 90.646 59.6887 90.6266C59.656 90.6071 59.6292 90.5793 59.611 90.5459C59.5835 90.4968 59.5763 90.4389 59.5909 90.3845C59.6056 90.3302 59.6409 90.2838 59.6893 90.2552L61.6296 89.1334C61.6787 89.1111 61.7342 89.1079 61.7855 89.1244C61.8368 89.1408 61.8802 89.1758 61.9073 89.2224C61.9343 89.2691 61.9432 89.3241 61.9321 89.3769C61.921 89.4297 61.8907 89.4765 61.8471 89.5083L59.9039 90.6331C59.8705 90.6494 59.8337 90.6574 59.7966 90.6563V90.6563Z" fill="black"/>
<path opacity="0.4" d="M59.7678 93.4379C59.7197 93.439 59.6726 93.4238 59.6341 93.3949C59.5956 93.3659 59.5679 93.3248 59.5556 93.2782C59.5432 93.2316 59.5468 93.1822 59.5658 93.1379C59.5849 93.0936 59.6182 93.057 59.6605 93.0339L61.6008 91.9121C61.6254 91.8941 61.6535 91.8816 61.6833 91.8752C61.7131 91.8688 61.7438 91.8688 61.7736 91.875C61.8034 91.8813 61.8315 91.8938 61.8562 91.9117C61.8809 91.9296 61.9015 91.9524 61.9168 91.9788C61.9321 92.0052 61.9417 92.0344 61.945 92.0648C61.9483 92.0951 61.9452 92.1258 61.9359 92.1548C61.9267 92.1839 61.9114 92.2106 61.8911 92.2334C61.8709 92.2562 61.8461 92.2744 61.8184 92.287L59.8751 93.4088C59.8427 93.4282 59.8056 93.4383 59.7678 93.4379V93.4379Z" fill="black"/>
<path opacity="0.4" d="M59.7271 96.2221C59.6799 96.2214 59.6343 96.2054 59.597 96.1764C59.5597 96.1475 59.5328 96.1072 59.5204 96.0616C59.508 96.016 59.5106 95.9676 59.528 95.9237C59.5454 95.8798 59.5766 95.8427 59.6168 95.8181L61.5601 94.6962C61.6091 94.6687 61.6669 94.6615 61.7211 94.6761C61.7753 94.6908 61.8217 94.7262 61.8501 94.7747C61.8762 94.8241 61.8826 94.8815 61.868 94.9355C61.8535 94.9894 61.8191 95.0358 61.7718 95.0653L59.8286 96.1872C59.7982 96.2073 59.7633 96.2193 59.7271 96.2221Z" fill="black"/>
<path opacity="0.4" d="M59.7067 99.0066C59.669 99.0071 59.6318 98.9974 59.5991 98.9785C59.5664 98.9595 59.5395 98.9321 59.5211 98.899C59.4936 98.8499 59.4864 98.792 59.5011 98.7377C59.5157 98.6833 59.551 98.6369 59.5994 98.6084L61.5427 97.4836C61.5675 97.4669 61.5955 97.4555 61.625 97.4501C61.6544 97.4447 61.6846 97.4455 61.7138 97.4523C61.7429 97.4592 61.7703 97.472 61.7943 97.4899C61.8183 97.5079 61.8383 97.5306 61.8531 97.5567C61.8679 97.5827 61.8772 97.6116 61.8803 97.6414C61.8835 97.6712 61.8805 97.7014 61.8715 97.73C61.8625 97.7586 61.8477 97.785 61.8281 97.8076C61.8084 97.8303 61.7843 97.8486 61.7573 97.8614L59.8141 98.9833C59.7812 99.0009 59.744 99.009 59.7067 99.0066Z" fill="black"/>
<path opacity="0.4" d="M48.9958 108.801C48.9578 108.801 48.9206 108.791 48.8879 108.771C48.8552 108.752 48.8284 108.724 48.8102 108.691C48.7827 108.641 48.7755 108.584 48.7901 108.529C48.8048 108.475 48.8401 108.428 48.8885 108.4L57.987 103.136C58.0359 103.109 58.0937 103.102 58.148 103.116C58.2022 103.131 58.2485 103.166 58.277 103.215C58.3035 103.264 58.3098 103.322 58.2947 103.377C58.2796 103.431 58.2441 103.477 58.1958 103.506L49.1002 108.784C49.0673 108.797 49.0315 108.803 48.9958 108.801V108.801Z" fill="black"/>
<path opacity="0.4" d="M49.2859 110.15C49.2377 110.151 49.1907 110.135 49.1522 110.106C49.1137 110.078 49.086 110.036 49.0736 109.99C49.0612 109.943 49.0649 109.894 49.0839 109.849C49.1029 109.805 49.1363 109.769 49.1786 109.746L58.277 104.485C58.3016 104.471 58.3287 104.462 58.3568 104.458C58.3849 104.454 58.4134 104.456 58.4407 104.464C58.4681 104.471 58.4937 104.484 58.5161 104.501C58.5385 104.519 58.5573 104.54 58.5714 104.565C58.5855 104.589 58.5946 104.617 58.5982 104.645C58.6018 104.673 58.5999 104.702 58.5925 104.729C58.5851 104.756 58.5724 104.782 58.5551 104.804C58.5378 104.827 58.5162 104.846 58.4916 104.86L49.3961 110.12C49.3629 110.141 49.3246 110.151 49.2859 110.15V110.15Z" fill="black"/>
<path opacity="0.4" d="M49.7066 111.455C49.6594 111.454 49.6138 111.438 49.5765 111.409C49.5392 111.38 49.5123 111.34 49.4999 111.294C49.4875 111.248 49.4901 111.2 49.5075 111.156C49.5249 111.112 49.5561 111.075 49.5963 111.051L58.6919 105.79C58.7165 105.772 58.7446 105.759 58.7744 105.753C58.8042 105.747 58.8349 105.747 58.8647 105.753C58.8945 105.759 58.9226 105.772 58.9473 105.79C58.972 105.807 58.9926 105.83 59.0079 105.857C59.0232 105.883 59.0328 105.912 59.0361 105.943C59.0394 105.973 59.0363 106.004 59.027 106.033C59.0177 106.062 59.0025 106.089 58.9822 106.111C58.962 106.134 58.9372 106.152 58.9094 106.165L49.8139 111.425C49.7813 111.444 49.7443 111.454 49.7066 111.455V111.455Z" fill="black"/>
<path opacity="0.4" d="M63.2688 100.544C63.2311 100.544 63.194 100.534 63.1614 100.515C63.1287 100.497 63.1017 100.469 63.0831 100.436C63.0556 100.387 63.0484 100.329 63.0631 100.275C63.0777 100.221 63.113 100.174 63.1614 100.146L72.257 94.8852C72.3063 94.8591 72.3636 94.8527 72.4174 94.8673C72.4712 94.8818 72.5176 94.9163 72.5471 94.9637C72.5736 95.0133 72.5799 95.0712 72.5648 95.1254C72.5496 95.1795 72.5142 95.2257 72.4658 95.2543L63.3732 100.515C63.3414 100.533 63.3055 100.543 63.2688 100.544Z" fill="black"/>
<path opacity="0.4" d="M63.5612 101.893C63.5235 101.893 63.4865 101.883 63.4538 101.864C63.4212 101.845 63.3942 101.818 63.3756 101.785C63.3481 101.736 63.3409 101.678 63.3556 101.624C63.3702 101.569 63.4055 101.523 63.4539 101.494L72.5495 96.2338C72.5988 96.2077 72.6561 96.2013 72.7099 96.2159C72.7637 96.2304 72.81 96.2649 72.8395 96.3123C72.866 96.3619 72.8724 96.4198 72.8572 96.474C72.8421 96.5282 72.8067 96.5744 72.7583 96.6029L63.6657 101.864C63.6339 101.882 63.5979 101.892 63.5612 101.893Z" fill="black"/>
<path opacity="0.4" d="M63.9821 103.197C63.9441 103.198 63.9066 103.188 63.8735 103.169C63.8404 103.15 63.8129 103.123 63.7936 103.09C63.7676 103.041 63.7612 102.983 63.7757 102.929C63.7902 102.875 63.8246 102.829 63.8719 102.799L72.9675 97.5387C72.9922 97.5244 73.0196 97.5151 73.0479 97.5114C73.0762 97.5076 73.105 97.5096 73.1326 97.517C73.1602 97.5244 73.1861 97.5372 73.2088 97.5546C73.2315 97.5721 73.2505 97.5938 73.2648 97.6186C73.279 97.6434 73.2883 97.6708 73.292 97.6992C73.2958 97.7276 73.2939 97.7565 73.2864 97.7841C73.279 97.8118 73.2663 97.8377 73.2489 97.8604C73.2315 97.8832 73.2098 97.9022 73.185 97.9165L64.0778 103.168C64.0488 103.186 64.0159 103.196 63.9821 103.197V103.197Z" fill="black"/>
<path d="M52.2009 112.934L72.9386 100.936C73.2709 100.735 73.6653 100.662 74.0476 100.731C74.43 100.8 74.774 101.006 75.0153 101.311C75.459 101.919 75.2792 102.715 74.5483 103.139L53.8048 115.134C53.074 115.556 52.0646 115.445 51.6267 114.844C51.1887 114.242 51.473 113.355 52.2009 112.934Z" fill="#27DEBF"/>
<path opacity="0.4" d="M55.623 118.811C55.5847 118.81 55.5472 118.8 55.5141 118.781C55.4811 118.761 55.4536 118.734 55.4345 118.7C55.4072 118.651 55.4005 118.593 55.4157 118.538C55.4309 118.484 55.4668 118.438 55.5157 118.41L64.6083 113.143C64.6576 113.117 64.715 113.111 64.7688 113.125C64.8226 113.14 64.8689 113.174 64.8984 113.222C64.9251 113.271 64.9319 113.329 64.9173 113.383C64.9028 113.437 64.8679 113.483 64.8201 113.512L55.7245 118.773C55.6946 118.794 55.6596 118.807 55.623 118.811V118.811Z" fill="black"/>
<path opacity="0.4" d="M54.4863 118.006C54.4392 118.005 54.3935 117.989 54.3563 117.96C54.319 117.931 54.2921 117.891 54.2797 117.845C54.2672 117.8 54.2699 117.751 54.2873 117.707C54.3047 117.663 54.3359 117.626 54.3761 117.602L63.4717 112.341C63.5212 112.314 63.579 112.308 63.633 112.323C63.6871 112.338 63.7332 112.374 63.7617 112.422C63.7878 112.472 63.7942 112.529 63.7796 112.583C63.7651 112.637 63.7307 112.683 63.6834 112.713L54.5937 117.977C54.561 117.995 54.524 118.006 54.4863 118.006V118.006Z" fill="black"/>
<path opacity="0.4" d="M56.8269 119.52C56.789 119.519 56.752 119.509 56.7194 119.489C56.6869 119.47 56.6599 119.442 56.6412 119.409C56.6137 119.36 56.6066 119.302 56.6212 119.248C56.6358 119.194 56.6711 119.147 56.7196 119.119L65.818 113.855C65.8673 113.829 65.9246 113.823 65.9784 113.837C66.0323 113.852 66.0786 113.886 66.1081 113.934C66.1346 113.983 66.1409 114.041 66.1258 114.095C66.1106 114.149 66.0752 114.196 66.0268 114.224L56.9342 119.485C56.9015 119.505 56.8648 119.516 56.8269 119.52V119.52Z" fill="black"/>
<path opacity="0.4" d="M68.6081 111.3C68.56 111.302 68.5129 111.286 68.4744 111.257C68.4359 111.228 68.4083 111.187 68.3959 111.141C68.3835 111.094 68.3871 111.045 68.4062 111C68.4252 110.956 68.4585 110.919 68.5008 110.896L77.5935 105.636C77.6435 105.607 77.7029 105.599 77.7586 105.614C77.8144 105.629 77.8619 105.666 77.8908 105.716C77.9196 105.766 77.9274 105.825 77.9125 105.881C77.8975 105.937 77.861 105.985 77.811 106.014L68.7183 111.271C68.6851 111.291 68.6469 111.301 68.6081 111.3Z" fill="black"/>
<path opacity="0.4" d="M67.4712 110.495C67.4241 110.495 67.3784 110.479 67.3411 110.45C67.3039 110.421 67.277 110.38 67.2645 110.335C67.2521 110.289 67.2548 110.241 67.2722 110.197C67.2896 110.153 67.3207 110.116 67.361 110.091L76.4565 104.834C76.5055 104.806 76.5633 104.799 76.6176 104.814C76.6718 104.828 76.7181 104.864 76.7466 104.912C76.7731 104.962 76.7794 105.02 76.7643 105.074C76.7492 105.128 76.7137 105.174 76.6654 105.203L67.5727 110.463C67.5416 110.481 67.507 110.492 67.4712 110.495V110.495Z" fill="black"/>
<path opacity="0.4" d="M69.8029 112.01C69.7652 112.01 69.7282 112 69.6955 111.981C69.6629 111.962 69.6359 111.935 69.6173 111.902C69.5898 111.853 69.5826 111.795 69.5973 111.741C69.6119 111.687 69.6472 111.64 69.6956 111.612L78.7912 106.351C78.816 106.334 78.844 106.323 78.8735 106.318C78.9029 106.312 78.9331 106.313 78.9623 106.32C78.9914 106.327 79.0188 106.339 79.0428 106.357C79.0668 106.375 79.0868 106.398 79.1016 106.424C79.1164 106.45 79.1257 106.479 79.1288 106.509C79.132 106.539 79.129 106.569 79.12 106.597C79.111 106.626 79.0962 106.652 79.0766 106.675C79.0569 106.698 79.0328 106.716 79.0058 106.729L69.9131 111.981C69.8796 112 69.8416 112.01 69.8029 112.01Z" fill="black"/>
<path d="M69.9394 118.566C67.9671 117.424 64.6201 117.508 62.468 118.752C60.316 119.996 60.1709 121.932 62.1461 123.074C64.1212 124.216 67.4654 124.135 69.6174 122.891C71.7695 121.647 71.9087 119.712 69.9394 118.566ZM68.5965 122.298C67.0593 123.188 64.6694 123.249 63.2598 122.432C61.8502 121.615 61.9518 120.232 63.489 119.342C65.0262 118.453 67.4161 118.395 68.8285 119.212C70.241 120.028 70.1337 121.409 68.5965 122.298Z" fill="#27DEBF"/>
<path d="M64.5098 119.935C65.4321 119.401 66.8678 119.354 67.7147 119.854C68.5616 120.354 68.4978 121.173 67.5755 121.708C66.6532 122.243 65.2175 122.289 64.3851 121.787C63.5527 121.284 63.5875 120.467 64.5098 119.935Z" fill="#27DEBF"/>
<path opacity="0.5" d="M64.5098 119.935C65.4321 119.401 66.8678 119.354 67.7147 119.854C68.5616 120.354 68.4978 121.173 67.5755 121.708C66.6532 122.243 65.2175 122.289 64.3851 121.787C63.5527 121.284 63.5875 120.467 64.5098 119.935Z" fill="black"/>
<path opacity="0.15" d="M69.9394 118.566C67.9671 117.424 64.6201 117.508 62.468 118.752C60.316 119.996 60.1709 121.932 62.1461 123.074C64.1212 124.216 67.4654 124.135 69.6174 122.891C71.7695 121.647 71.9087 119.712 69.9394 118.566ZM68.5965 122.298C67.0593 123.188 64.6694 123.249 63.2598 122.432C61.8502 121.615 61.9518 120.232 63.489 119.342C65.0262 118.453 67.4161 118.395 68.8285 119.212C70.241 120.028 70.1337 121.409 68.5965 122.298Z" fill="black"/>
<path d="M64.4604 117.994L64.91 118.802C65.7797 118.601 66.6815 118.585 67.558 118.752L68.1671 117.924C66.94 117.69 65.6779 117.714 64.4604 117.994V117.994Z" fill="#27DEBF"/>
<path opacity="0.7" d="M64.4604 117.994L64.91 118.802C65.7797 118.601 66.6815 118.585 67.558 118.752L68.1671 117.924C66.94 117.69 65.6779 117.714 64.4604 117.994V117.994Z" fill="white"/>
<path opacity="0.4" d="M66.3137 117.593C66.2565 117.589 66.2031 117.563 66.1651 117.52C66.1271 117.477 66.1075 117.421 66.1107 117.363L66.1716 116.369L70.1683 114.044C70.2183 114.015 70.2777 114.007 70.3335 114.022C70.3892 114.037 70.4367 114.074 70.4656 114.124C70.4944 114.174 70.5022 114.234 70.4873 114.29C70.4723 114.345 70.4358 114.393 70.3858 114.422L66.5747 116.631L66.5283 117.392C66.5247 117.447 66.5004 117.498 66.4606 117.535C66.4207 117.572 66.3682 117.593 66.3137 117.593V117.593Z" fill="black"/>
<path d="M81.6308 111.809C79.6556 110.667 76.3115 110.751 74.1565 111.995C72.0016 113.239 71.8595 115.175 73.8346 116.317C75.8098 117.459 79.1568 117.378 81.3089 116.134C83.4609 114.89 83.606 112.951 81.6308 111.809ZM80.2879 115.541C78.7507 116.43 76.3608 116.491 74.9484 115.675C73.5359 114.858 73.6432 113.474 75.1804 112.585C76.7176 111.696 79.1075 111.638 80.5171 112.454C81.9266 113.271 81.8251 114.652 80.2879 115.541Z" fill="#27DEBF"/>
<path d="M76.2014 113.178C77.1237 112.643 78.5565 112.597 79.3918 113.097C80.2271 113.596 80.1778 114.416 79.2526 114.951C78.3273 115.486 76.8975 115.532 76.0622 115.029C75.2269 114.527 75.2791 113.724 76.2014 113.178Z" fill="#27DEBF"/>
<path opacity="0.5" d="M76.2014 113.178C77.1237 112.643 78.5565 112.597 79.3918 113.097C80.2271 113.596 80.1778 114.416 79.2526 114.951C78.3273 115.486 76.8975 115.532 76.0622 115.029C75.2269 114.527 75.2791 113.724 76.2014 113.178Z" fill="black"/>
<path opacity="0.15" d="M81.6308 111.809C79.6556 110.667 76.3115 110.751 74.1565 111.995C72.0016 113.239 71.8595 115.175 73.8346 116.317C75.8098 117.459 79.1568 117.378 81.3089 116.134C83.4609 114.89 83.606 112.951 81.6308 111.809ZM80.2879 115.541C78.7507 116.43 76.3608 116.491 74.9484 115.675C73.5359 114.858 73.6432 113.474 75.1804 112.585C76.7176 111.696 79.1075 111.638 80.5171 112.454C81.9266 113.271 81.8251 114.652 80.2879 115.541Z" fill="black"/>
<path d="M81.6308 111.809C79.9631 110.844 77.318 110.757 75.25 111.504L75.9635 112.233C77.4485 111.702 79.3366 111.765 80.5287 112.454C80.7271 112.568 80.9095 112.708 81.071 112.87L82.4023 112.393C82.1726 112.165 81.9131 111.968 81.6308 111.809Z" fill="#27DEBF"/>
<path opacity="0.7" d="M81.6308 111.809C79.9631 110.844 77.318 110.757 75.25 111.504L75.9635 112.233C77.4485 111.702 79.3366 111.765 80.5287 112.454C80.7271 112.568 80.9095 112.708 81.071 112.87L82.4023 112.393C82.1726 112.165 81.9131 111.968 81.6308 111.809Z" fill="white"/>
<path opacity="0.4" d="M78.0372 110.818H78.0227C77.9655 110.814 77.9121 110.788 77.8741 110.745C77.836 110.702 77.8165 110.646 77.8197 110.589L77.8806 109.592L81.8773 107.281C81.9264 107.259 81.9819 107.256 82.0332 107.272C82.0845 107.289 82.1279 107.323 82.1549 107.37C82.182 107.417 82.1908 107.472 82.1797 107.525C82.1686 107.577 82.1384 107.624 82.0948 107.656L78.2895 109.847L78.2431 110.612C78.241 110.666 78.2186 110.717 78.1804 110.755C78.1423 110.794 78.0911 110.816 78.0372 110.818V110.818Z" fill="black"/>
<path opacity="0.4" d="M67.5581 125.728C67.51 125.728 67.4632 125.713 67.4249 125.684C67.3866 125.654 67.3591 125.613 67.3465 125.567C67.3339 125.52 67.337 125.471 67.3553 125.427C67.3737 125.382 67.4062 125.345 67.4479 125.321L89.5255 112.562C89.5751 112.533 89.634 112.526 89.6892 112.541C89.7166 112.548 89.7422 112.561 89.7646 112.578C89.787 112.596 89.8058 112.617 89.8199 112.642C89.834 112.666 89.8431 112.694 89.8467 112.722C89.8503 112.75 89.8484 112.778 89.841 112.806C89.8336 112.833 89.8209 112.859 89.8036 112.881C89.7863 112.904 89.7647 112.923 89.7401 112.937L67.6538 125.699C67.6242 125.715 67.5916 125.725 67.5581 125.728V125.728Z" fill="black"/>
<path opacity="0.4" d="M68.7384 126.414C68.6915 126.413 68.6463 126.396 68.6095 126.367C68.5727 126.338 68.5462 126.298 68.5342 126.252C68.5221 126.207 68.525 126.158 68.5425 126.115C68.56 126.071 68.591 126.034 68.6311 126.01L90.7174 113.239C90.742 113.221 90.7701 113.209 90.7999 113.202C90.8297 113.196 90.8604 113.196 90.8902 113.202C90.92 113.208 90.9481 113.221 90.9728 113.239C90.9975 113.257 91.0181 113.28 91.0334 113.306C91.0487 113.332 91.0583 113.362 91.0616 113.392C91.0649 113.422 91.0618 113.453 91.0525 113.482C91.0433 113.511 91.028 113.538 91.0077 113.561C90.9875 113.583 90.9627 113.602 90.935 113.614L68.8486 126.385C68.8151 126.404 68.7771 126.414 68.7384 126.414Z" fill="black"/>
<path opacity="0.4" d="M69.9309 127.094C69.893 127.093 69.856 127.083 69.8234 127.063C69.7909 127.044 69.7639 127.016 69.7452 126.983C69.7178 126.934 69.7106 126.876 69.7252 126.822C69.7398 126.768 69.7751 126.721 69.8236 126.693L91.9215 113.928C91.9711 113.899 92.03 113.892 92.0852 113.907C92.1404 113.922 92.1874 113.958 92.2159 114.008C92.2443 114.057 92.2519 114.116 92.237 114.172C92.222 114.227 92.1857 114.274 92.1361 114.303L70.0498 127.076C70.0122 127.092 69.9713 127.098 69.9309 127.094V127.094Z" fill="black"/>
</g>
<defs>
<clipPath id="clip0_44_2903">
<rect width="97" height="131" fill="white"/>
</clipPath>
</defs>
</svg>
