<svg width="36" height="28" viewBox="0 0 36 28" fill="none" xmlns="http://www.w3.org/2000/svg">
<g clip-path="url(#clip0_38_61)">
<path d="M30.0529 16.3902V26.6341C30.0529 27.0041 29.9178 27.3242 29.6474 27.5945C29.3771 27.8648 29.057 28 28.6871 28H20.4919V19.8049H15.0285V28H6.8334C6.46348 28 6.14336 27.8648 5.87304 27.5945C5.60271 27.3242 5.46755 27.0041 5.46755 26.6341V16.3902C5.46755 16.376 5.47111 16.3547 5.47822 16.3262C5.48533 16.2978 5.48889 16.2764 5.48889 16.2622L17.7602 6.14634L30.0316 16.2622C30.0458 16.2906 30.0529 16.3333 30.0529 16.3902ZM34.8121 14.9177L33.4889 16.4969C33.3751 16.625 33.2257 16.7032 33.0407 16.7317H32.9767C32.7917 16.7317 32.6423 16.6819 32.5285 16.5823L17.7602 4.26829L2.99194 16.5823C2.82121 16.6961 2.65048 16.7459 2.47974 16.7317C2.29478 16.7032 2.14539 16.625 2.03157 16.4969L0.708402 14.9177C0.594581 14.7754 0.544784 14.6082 0.559012 14.4162C0.57324 14.2241 0.651492 14.0711 0.793768 13.9573L16.1383 1.17377C16.5936 0.803856 17.1342 0.618896 17.7602 0.618896C18.3862 0.618896 18.9269 0.803856 19.3822 1.17377L24.5895 5.52743V1.36585C24.5895 1.16666 24.6535 1.00304 24.7816 0.874994C24.9096 0.746945 25.0732 0.682921 25.2724 0.682921H29.37C29.5692 0.682921 29.7328 0.746945 29.8608 0.874994C29.9889 1.00304 30.0529 1.16666 30.0529 1.36585V10.0732L34.7267 13.9573C34.869 14.0711 34.9472 14.2241 34.9614 14.4162C34.9757 14.6082 34.9259 14.7754 34.8121 14.9177Z" fill="#555555"/>
</g>
<defs>
<clipPath id="clip0_38_61">
<rect width="35.52" height="28" fill="white"/>
</clipPath>
</defs>
</svg>
