<svg width="28" height="28" viewBox="0 0 28 28" fill="none" xmlns="http://www.w3.org/2000/svg">
<path d="M15.1668 14H25.6668M25.6668 14L21.7783 9.33334M25.6668 14L21.7783 18.6667M16.3335 8.16668V6.03634C16.3335 5.71361 16.2665 5.39439 16.1368 5.09886C16.0072 4.80333 15.8176 4.53792 15.5801 4.3194C15.3426 4.10087 15.0623 3.93399 14.7571 3.8293C14.4518 3.72461 14.1281 3.68439 13.8065 3.71118L4.47316 4.48818C3.88989 4.53676 3.34617 4.80277 2.94985 5.23345C2.55352 5.66414 2.33353 6.22805 2.3335 6.81334V21.1867C2.33353 21.772 2.55352 22.3359 2.94985 22.7666C3.34617 23.1973 3.88989 23.4633 4.47316 23.5118L13.8065 24.29C14.1282 24.3168 14.452 24.2765 14.7573 24.1718C15.0627 24.067 15.343 23.9 15.5805 23.6814C15.818 23.4627 16.0076 23.1972 16.1372 22.9015C16.2668 22.6059 16.3336 22.2865 16.3335 21.9637V19.8333" stroke="black" stroke-width="2.33333" stroke-linecap="round" stroke-linejoin="round"/>
</svg>
