<svg width="28" height="28" viewBox="0 0 28 28" fill="none" xmlns="http://www.w3.org/2000/svg">
<path d="M14.8398 12.6C14.2798 12.46 13.7198 12.18 13.2998 11.76C12.8798 11.62 12.7398 11.2 12.7398 10.92C12.7398 10.64 12.8798 10.22 13.1598 10.08C13.5798 9.80005 13.9998 9.52005 14.4198 9.66005C15.2598 9.66005 15.9598 10.08 16.3798 10.64L17.6398 8.96005C17.2198 8.54005 16.7998 8.26005 16.3798 7.98005C15.9598 7.70005 15.3998 7.56005 14.8398 7.56005V5.60005H13.1598V7.56005C12.4598 7.70005 11.7598 8.12005 11.1998 8.68005C10.6398 9.38005 10.2198 10.22 10.3598 11.06C10.3598 11.9 10.6398 12.74 11.1998 13.3C11.8998 14 12.8798 14.42 13.7198 14.84C14.1398 14.98 14.6998 15.26 15.1198 15.54C15.3998 15.82 15.5398 16.24 15.5398 16.66C15.5398 17.08 15.3998 17.5 15.1198 17.92C14.6998 18.34 14.1398 18.48 13.7198 18.48C13.1598 18.48 12.4598 18.34 12.0398 17.92C11.6198 17.64 11.1998 17.22 10.9198 16.8L9.5198 18.34C9.93981 18.9 10.3598 19.32 10.9198 19.74C11.6198 20.16 12.4598 20.58 13.2998 20.58V22.4H14.8398V20.3C15.6798 20.16 16.3798 19.74 16.9398 19.18C17.6398 18.48 18.0598 17.36 18.0598 16.38C18.0598 15.54 17.7798 14.56 17.0798 14C16.3798 13.3 15.6798 12.88 14.8398 12.6ZM13.9998 2.80005C7.8398 2.80005 2.7998 7.84005 2.7998 14C2.7998 20.16 7.8398 25.2 13.9998 25.2C20.1598 25.2 25.1998 20.16 25.1998 14C25.1998 7.84005 20.1598 2.80005 13.9998 2.80005ZM13.9998 23.66C8.6798 23.66 4.3398 19.32 4.3398 14C4.3398 8.68005 8.6798 4.34005 13.9998 4.34005C19.3198 4.34005 23.6598 8.68005 23.6598 14C23.6598 19.32 19.3198 23.66 13.9998 23.66Z" fill="#555555"/>
</svg>
