<svg width="28" height="28" viewBox="0 0 28 28" fill="none" xmlns="http://www.w3.org/2000/svg">
<path d="M10.5035 7.00004C10.5035 6.07271 10.8719 5.18336 11.5276 4.52764C12.1833 3.87192 13.0727 3.50354 14 3.50354C14.9273 3.50354 15.8167 3.87192 16.4724 4.52764C17.1281 5.18336 17.4965 6.07271 17.4965 7.00004C17.4965 7.92737 17.1281 8.81672 16.4724 9.47244C15.8167 10.1282 14.9273 10.4965 14 10.4965C13.0727 10.4965 12.1833 10.1282 11.5276 9.47244C10.8719 8.81672 10.5035 7.92737 10.5035 7.00004ZM14 5.25354C13.7706 5.25354 13.5435 5.29871 13.3316 5.38648C13.1197 5.47425 12.9272 5.6029 12.765 5.76508C12.6029 5.92726 12.4742 6.11979 12.3864 6.33168C12.2987 6.54358 12.2535 6.77069 12.2535 7.00004C12.2535 7.22939 12.2987 7.4565 12.3864 7.6684C12.4742 7.88029 12.6029 8.07282 12.765 8.235C12.9272 8.39718 13.1197 8.52583 13.3316 8.6136C13.5435 8.70137 13.7706 8.74654 14 8.74654C14.4632 8.74654 14.9074 8.56253 15.235 8.235C15.5625 7.90747 15.7465 7.46324 15.7465 7.00004C15.7465 6.53684 15.5625 6.09261 15.235 5.76508C14.9074 5.43755 14.4632 5.25354 14 5.25354ZM19.25 7.87504C19.25 7.53032 19.3179 7.18898 19.4498 6.8705C19.5817 6.55202 19.7751 6.26264 20.0188 6.01888C20.2626 5.77513 20.552 5.58177 20.8705 5.44986C21.1889 5.31794 21.5303 5.25004 21.875 5.25004C22.2197 5.25004 22.5611 5.31794 22.8795 5.44986C23.198 5.58177 23.4874 5.77513 23.7312 6.01888C23.9749 6.26264 24.1683 6.55202 24.3002 6.8705C24.4321 7.18898 24.5 7.53032 24.5 7.87504C24.5 8.57123 24.2234 9.23891 23.7312 9.7312C23.2389 10.2235 22.5712 10.5 21.875 10.5C21.1788 10.5 20.5111 10.2235 20.0188 9.7312C19.5266 9.23891 19.25 8.57123 19.25 7.87504ZM21.875 7.00004C21.6429 7.00004 21.4204 7.09223 21.2563 7.25632C21.0922 7.42042 21 7.64298 21 7.87504C21 8.1071 21.0922 8.32966 21.2563 8.49376C21.4204 8.65785 21.6429 8.75004 21.875 8.75004C22.1071 8.75004 22.3296 8.65785 22.4937 8.49376C22.6578 8.32966 22.75 8.1071 22.75 7.87504C22.75 7.64298 22.6578 7.42042 22.4937 7.25632C22.3296 7.09223 22.1071 7.00004 21.875 7.00004ZM6.125 5.25004C5.42881 5.25004 4.76113 5.5266 4.26885 6.01888C3.77656 6.51117 3.5 7.17885 3.5 7.87504C3.5 8.57123 3.77656 9.23891 4.26885 9.7312C4.76113 10.2235 5.42881 10.5 6.125 10.5C6.82119 10.5 7.48887 10.2235 7.98116 9.7312C8.47344 9.23891 8.75 8.57123 8.75 7.87504C8.75 7.17885 8.47344 6.51117 7.98116 6.01888C7.48887 5.5266 6.82119 5.25004 6.125 5.25004ZM5.25 7.87504C5.25 7.64298 5.34219 7.42042 5.50628 7.25632C5.67038 7.09223 5.89294 7.00004 6.125 7.00004C6.35706 7.00004 6.57962 7.09223 6.74372 7.25632C6.90781 7.42042 7 7.64298 7 7.87504C7 8.1071 6.90781 8.32966 6.74372 8.49376C6.57962 8.65785 6.35706 8.75004 6.125 8.75004C5.89294 8.75004 5.67038 8.65785 5.50628 8.49376C5.34219 8.32966 5.25 8.1071 5.25 7.87504ZM7.469 12.25C7.16101 12.7818 6.9992 13.3855 7 14H3.5V18.375C3.49986 18.8103 3.60797 19.2388 3.81459 19.6219C4.02122 20.0051 4.31988 20.3308 4.68368 20.5698C5.04748 20.8088 5.46501 20.9536 5.89868 20.9911C6.33235 21.0287 6.76855 20.9577 7.168 20.7848C7.2975 21.364 7.5005 21.917 7.763 22.4333C7.09881 22.7015 6.37894 22.8025 5.6666 22.7274C4.95426 22.6524 4.27124 22.4036 3.67752 22.0029C3.08381 21.6021 2.59756 21.0618 2.26148 20.4293C1.9254 19.7967 1.74976 19.0913 1.75 18.375V14C1.75 13.5359 1.93437 13.0908 2.26256 12.7626C2.59075 12.4344 3.03587 12.25 3.5 12.25H7.469ZM20.237 22.4333C20.9012 22.7015 21.6211 22.8025 22.3334 22.7274C23.0457 22.6524 23.7288 22.4036 24.3225 22.0029C24.9162 21.6021 25.4024 21.0618 25.7385 20.4293C26.0746 19.7967 26.2502 19.0913 26.25 18.375V14C26.25 13.5359 26.0656 13.0908 25.7374 12.7626C25.4092 12.4344 24.9641 12.25 24.5 12.25H20.531C20.8285 12.7645 21 13.3613 21 14H24.5V18.375C24.5001 18.8103 24.392 19.2388 24.1854 19.6219C23.9788 20.0051 23.6801 20.3308 23.3163 20.5698C22.9525 20.8088 22.535 20.9536 22.1013 20.9911C21.6677 21.0287 21.2315 20.9577 20.832 20.7848C20.7008 21.364 20.4995 21.917 20.237 22.4333ZM10.5 12.2483C10.0359 12.2483 9.59075 12.4327 9.26256 12.7609C8.93437 13.089 8.75 13.5342 8.75 13.9983V19.25C8.75 20.6424 9.30312 21.9778 10.2877 22.9624C11.2723 23.9469 12.6076 24.5 14 24.5C15.3924 24.5 16.7277 23.9469 17.7123 22.9624C18.6969 21.9778 19.25 20.6424 19.25 19.25V14C19.25 13.5359 19.0656 13.0908 18.7374 12.7626C18.4092 12.4344 17.9641 12.25 17.5 12.25H10.5V12.2483ZM10.5 13.9983H17.5V19.25C17.5 20.1783 17.1313 21.0685 16.4749 21.7249C15.8185 22.3813 14.9283 22.75 14 22.75C13.0717 22.75 12.1815 22.3813 11.5251 21.7249C10.8687 21.0685 10.5 20.1783 10.5 19.25V14V13.9983Z" fill="#555555"/>
</svg>
