<svg width="28" height="28" viewBox="0 0 28 28" fill="none" xmlns="http://www.w3.org/2000/svg">
<path d="M14.4373 12.25H17.4998V10.5H15.7498V9.625H13.9998V10.5438C13.4681 10.6517 12.9956 10.9533 12.6738 11.3901C12.3521 11.8269 12.2041 12.3676 12.2586 12.9073C12.3132 13.4471 12.5663 13.9473 12.9689 14.3109C13.3715 14.6745 13.8948 14.8755 14.4373 14.875H15.3123C15.4283 14.875 15.5396 14.9211 15.6216 15.0031C15.7037 15.0852 15.7498 15.1965 15.7498 15.3125C15.7498 15.4285 15.7037 15.5398 15.6216 15.6219C15.5396 15.7039 15.4283 15.75 15.3123 15.75H12.2498V17.5H13.9998V18.375H15.7498V17.4563C16.2814 17.3483 16.7539 17.0467 17.0757 16.6099C17.3974 16.1731 17.5454 15.6324 17.4909 15.0927C17.4364 14.5529 17.1832 14.0527 16.7807 13.6891C16.3781 13.3255 15.8547 13.1245 15.3123 13.125H14.4373C14.3212 13.125 14.2099 13.0789 14.1279 12.9969C14.0459 12.9148 13.9998 12.8035 13.9998 12.6875C13.9998 12.5715 14.0459 12.4602 14.1279 12.3781C14.2099 12.2961 14.3212 12.25 14.4373 12.25Z" fill="#555555"/>
<path d="M25.375 11.375H23.6075C23.5823 10.6837 23.4156 10.0049 23.1176 9.3806C22.8196 8.75631 22.3967 8.1998 21.875 7.7455V4.375C21.875 4.2125 21.8298 4.05321 21.7443 3.91499C21.6589 3.77676 21.5367 3.66505 21.3913 3.59238C21.246 3.51971 21.0833 3.48894 20.9214 3.50354C20.7596 3.51813 20.605 3.5775 20.475 3.675L17.2086 6.125H13.125C8.30375 6.125 4.84488 8.96088 4.4205 13.125H4.375C4.14294 13.125 3.92038 13.0328 3.75628 12.8687C3.59219 12.7046 3.5 12.4821 3.5 12.25V10.5H1.75V12.25C1.75069 12.946 2.02748 13.6133 2.51961 14.1054C3.01174 14.5975 3.67902 14.8743 4.375 14.875H4.43625C4.56315 16.0224 4.93603 17.1288 5.52948 18.119C6.12292 19.1091 6.92296 19.9596 7.875 20.6124V23.625C7.875 23.8571 7.96719 24.0796 8.13128 24.2437C8.29538 24.4078 8.51794 24.5 8.75 24.5H12.25C12.4821 24.5 12.7046 24.4078 12.8687 24.2437C13.0328 24.0796 13.125 23.8571 13.125 23.625V21.875H15.75V23.625C15.75 23.8571 15.8422 24.0796 16.0063 24.2437C16.1704 24.4078 16.3929 24.5 16.625 24.5H20.125C20.3571 24.5 20.5796 24.4078 20.7437 24.2437C20.9078 24.0796 21 23.8571 21 23.625V20.6824C21.6321 20.3827 22.1847 19.9385 22.6132 19.3856C23.0417 18.8328 23.3341 18.1868 23.4666 17.5H25.375C25.6071 17.5 25.8296 17.4078 25.9937 17.2437C26.1578 17.0796 26.25 16.8571 26.25 16.625V12.25C26.25 12.0179 26.1578 11.7954 25.9937 11.6313C25.8296 11.4672 25.6071 11.375 25.375 11.375ZM24.5 15.75H21.9835C21.7166 18.1589 21.2625 18.7994 19.25 19.5256V22.75H17.5V20.125H11.375V22.75H9.625V19.5807C8.57141 19.0795 7.68256 18.2883 7.06266 17.2998C6.44275 16.3114 6.11749 15.1667 6.125 14C6.125 9.76937 9.64075 7.875 13.125 7.875H17.7914L20.125 6.125V8.554C22.2407 10.1815 21.7989 11.3418 21.8907 13.125H24.5V15.75Z" fill="#555555"/>
</svg>
