<svg width="28" height="28" viewBox="0 0 28 28" fill="none" xmlns="http://www.w3.org/2000/svg">
<g clip-path="url(#clip0_38_64)">
<path d="M13.8988 -0.0334973C13.8532 -0.0252731 13.8083 -0.0141218 13.7642 -0.000112683C13.521 0.0543815 13.3043 0.191497 13.1509 0.387869C12.9976 0.584241 12.917 0.827718 12.9231 1.07681V2.15373H3.23077C2.37392 2.15373 1.55216 2.49412 0.94627 3.1C0.340384 3.70589 0 4.52765 0 5.3845L0 19.3845C0 21.1679 1.44738 22.6153 3.23077 22.6153H12.9231V23.0191L7.06677 25.9473C6.808 26.0722 6.60947 26.2949 6.51485 26.5662C6.42023 26.8375 6.43727 27.1354 6.56223 27.3941C6.68719 27.6529 6.90982 27.8514 7.18116 27.946C7.4525 28.0407 7.75031 28.0236 8.00908 27.8987L12.9231 25.4422V25.846C12.9231 26.1317 13.0365 26.4056 13.2385 26.6075C13.4405 26.8095 13.7144 26.923 14 26.923C14.2856 26.923 14.5595 26.8095 14.7615 26.6075C14.9635 26.4056 15.0769 26.1317 15.0769 25.846V25.4422L19.9909 27.8987C20.2497 28.0236 20.5475 28.0407 20.8188 27.946C21.0902 27.8514 21.3128 27.6529 21.4378 27.3941C21.5627 27.1354 21.5798 26.8375 21.4852 26.5662C21.3905 26.2949 21.192 26.0722 20.9332 25.9473L15.0769 23.0191V22.6153H24.7692C26.5526 22.6153 28 21.1679 28 19.3845V5.3845C28 4.52765 27.6596 3.70589 27.0537 3.1C26.4478 2.49412 25.6261 2.15373 24.7692 2.15373H15.0769V1.07681C15.0824 0.92367 15.0551 0.771132 14.9968 0.629388C14.9386 0.487644 14.8508 0.359958 14.7393 0.254862C14.6278 0.149765 14.4951 0.0696779 14.3502 0.0199508C14.2052 -0.0297763 14.0513 -0.0479981 13.8988 -0.0334973ZM2.15385 5.3845H25.8462V19.3845H2.15385V5.3845ZM22.4808 6.46143C22.2395 6.48736 22.0141 6.59399 21.8411 6.76404L18.3077 10.2985L15.8512 7.83989C15.7336 7.71918 15.5893 7.62777 15.4298 7.57301C15.2704 7.51825 15.1004 7.50168 14.9334 7.52462C14.7664 7.54756 14.6072 7.60938 14.4684 7.7051C14.3297 7.80082 14.2153 7.92777 14.1346 8.07573L10.9372 13.6628L9.62446 10.3642C9.56071 10.1939 9.45487 10.0425 9.31681 9.92412C9.17875 9.80575 9.01296 9.72427 8.83491 9.68729C8.65685 9.6503 8.47233 9.65901 8.29855 9.71259C8.12477 9.76618 7.96738 9.8629 7.84108 9.99373L4.61031 13.2245C4.50848 13.3263 4.4277 13.4471 4.37256 13.58C4.31743 13.713 4.28903 13.8556 4.28898 13.9995C4.28893 14.1435 4.31723 14.286 4.37227 14.419C4.42731 14.552 4.50802 14.6729 4.60977 14.7747C4.71152 14.8766 4.83234 14.9573 4.96531 15.0125C5.09829 15.0676 5.24082 15.096 5.38477 15.0961C5.52873 15.0961 5.67128 15.0678 5.80429 15.0128C5.93731 14.9577 6.05818 14.877 6.16 14.7753L8.21262 12.7227L9.76123 16.5587C9.83432 16.751 9.961 16.9185 10.1263 17.0411C10.2916 17.1637 10.4885 17.2364 10.6938 17.2506C10.8991 17.2647 11.1042 17.2198 11.2848 17.121C11.4653 17.0222 11.6138 16.8738 11.7126 16.6933L15.3138 10.3997L17.5345 12.6214C17.6349 12.7253 17.7552 12.8079 17.8882 12.8644C18.0213 12.9208 18.1643 12.9499 18.3088 12.9499C18.4533 12.9499 18.5963 12.9208 18.7293 12.8644C18.8623 12.8079 18.9826 12.7253 19.0831 12.6214L23.3908 8.31373C23.5609 8.15624 23.6756 7.94806 23.718 7.72012C23.7603 7.49219 23.728 7.25669 23.6257 7.04861C23.5235 6.84054 23.3569 6.671 23.1506 6.56521C22.9443 6.45942 22.7094 6.42302 22.4808 6.46143Z" fill="#555555"/>
</g>
<defs>
<clipPath id="clip0_38_64">
<rect width="28" height="28" fill="white"/>
</clipPath>
</defs>
</svg>
