<svg width="407" height="453" viewBox="0 0 407 453" fill="none" xmlns="http://www.w3.org/2000/svg">
<path d="M392 226C392 305.529 323.723 370 239.5 370C155.277 370 87 305.529 87 226C87 146.471 155.277 82 239.5 82C323.723 82 392 146.471 392 226ZM119.091 226C119.091 288.794 173 339.698 239.5 339.698C306 339.698 359.909 288.794 359.909 226C359.909 163.206 306 112.302 239.5 112.302C173 112.302 119.091 163.206 119.091 226Z" fill="#FF7B4C" fill-opacity="0.8"/>
<path d="M480 226.5C480 351.592 372.548 453 240 453C107.452 453 0 351.592 0 226.5C0 101.408 107.452 0 240 0C372.548 0 480 101.408 480 226.5ZM44.524 226.5C44.524 328.386 132.042 410.981 240 410.981C347.958 410.981 435.476 328.386 435.476 226.5C435.476 124.614 347.958 42.0195 240 42.0195C132.042 42.0195 44.524 124.614 44.524 226.5Z" fill="#FF7B4C" fill-opacity="0.8"/>
<path d="M333 226C333 274.601 291.362 314 240 314C188.638 314 147 274.601 147 226C147 177.399 188.638 138 240 138C291.362 138 333 177.399 333 226ZM163.742 226C163.742 265.852 197.884 298.158 240 298.158C282.116 298.158 316.258 265.852 316.258 226C316.258 186.148 282.116 153.842 240 153.842C197.884 153.842 163.742 186.148 163.742 226Z" fill="#FF7B4C" fill-opacity="0.8"/>
</svg>
