<svg width="166" height="117" viewBox="0 0 166 117" fill="none" xmlns="http://www.w3.org/2000/svg">
<g clip-path="url(#clip0_24_165)">
<g opacity="0.5">
<path d="M41.8421 65.6186C40.9342 78.9639 41.1466 92.3976 42.4756 105.683C42.4901 106.182 42.6033 106.667 42.8041 107.093C43.0427 107.396 43.3315 107.626 43.6487 107.763C43.9658 107.9 44.3029 107.941 44.6342 107.884L70.3965 108.35L72.078 68.752C72.1577 68.1309 72.0693 67.4932 71.8277 66.947C71.629 66.6967 71.392 66.5032 71.132 66.3792C70.872 66.2552 70.5947 66.2034 70.3183 66.2271L46.8554 64.199" fill="#286D08"/>
</g>
<g opacity="0.5">
<path d="M47.403 64.0367C52.6659 65.8427 58.0507 66.9871 63.4829 67.454C68.5509 67.8799 72.4613 67.8697 75.5585 62.0897C80.7985 52.3346 86.1167 43.3097 94.798 38.5031C99.5532 35.8666 96.4561 27.6732 92.4517 27.1662C87.5167 26.5476 82.48 25.4828 77.5293 25.2902C73.173 25.1279 70.7094 27.8658 67.7453 31.6583C61.731 39.3144 55.8731 47.0008 48.0521 51.351C42.5149 54.3931 47.27 64.9087 52.7916 61.8666C59.9165 57.9118 65.7588 51.2395 71.2491 44.2831C72.5943 42.5694 73.9239 40.8253 75.2847 39.1217C76.9506 37.0226 76.1528 37.3167 78.2801 37.5499C83.0118 38.0874 87.7357 38.7363 92.4595 39.3346L90.1133 27.9977C82.7303 32.0538 76.9349 39.3143 72.125 47.4774C71.0066 49.3736 69.9195 51.3105 68.8872 53.298C68.6916 53.6732 67.1822 56.0257 67.8079 55.7215C68.6995 55.2753 65.4616 55.4173 65.0705 55.3971C59.9679 55.0662 54.9074 54.0259 49.9761 52.2941C44.126 50.266 41.6311 62.039 47.4812 64.0367H47.403Z" fill="#286D08"/>
</g>
<path d="M155.911 79.5007C154.824 64.9898 153.971 49.2215 155.77 34.7613C155.82 34.3897 155.805 34.0084 155.726 33.6453C155.648 33.2822 155.508 32.9463 155.317 32.6622C155.151 32.3775 154.942 32.1404 154.703 31.9658C154.463 31.7913 154.198 31.6831 153.925 31.6482C114.968 25.8174 75.4099 23.3635 36.2581 27.9469C36.031 27.8876 35.7969 27.8903 35.5706 27.9549C35.3444 28.0195 35.131 28.1446 34.9442 28.3221C22.6027 39.2028 11.1841 51.209 0.993358 65.4056C0.920698 65.5155 0.852827 65.6306 0.790029 65.7504C0.503244 66.0347 0.27975 66.4126 0.142355 66.8455C0.00496031 67.2784 -0.0414188 67.7508 0.00793217 68.2145C1.45829 82.9124 1.59998 97.7779 0.430247 112.518C0.390142 112.861 0.418721 113.212 0.513211 113.537C0.607702 113.862 0.76494 114.15 0.969896 114.374C1.14491 114.608 1.35989 114.786 1.59757 114.894C1.83525 115.001 2.08902 115.035 2.33856 114.992C40.0058 111.043 77.8768 111.722 115.445 117.02C115.755 117.083 116.072 117.019 116.352 116.837C116.633 116.655 116.862 116.365 117.01 116.006C128.952 103.27 140.817 91.2738 154.55 81.8229C154.759 81.7907 154.96 81.7044 155.142 81.5692C155.324 81.4341 155.484 81.2527 155.611 81.036C155.737 80.8194 155.83 80.5718 155.881 80.308C155.933 80.0442 155.943 79.7697 155.911 79.5007ZM97.379 37.3978C106.584 37.9149 115.891 38.4118 125.057 39.872C124.608 40.4605 124.343 41.2448 124.314 42.0725C124.309 42.7782 124.468 43.4696 124.771 44.056C125.073 44.6423 125.506 45.0962 126.012 45.358C122.586 48.2311 119.265 51.2935 116.048 54.5452C111.315 54.3434 106.637 55.9098 102.572 59.0577C94.9545 58.0436 87.3134 57.4656 79.6723 57.0296C85.2474 50.0054 91.1616 43.4482 97.379 37.3978ZM76.888 60.5686C85.4363 61.0148 93.9768 61.6334 102.486 62.7488C102.76 62.8854 103.064 62.8854 103.339 62.7488C103.583 62.6994 103.807 62.5418 103.972 62.3026C107.739 59.3663 112.096 57.954 116.486 58.2465C116.695 58.2756 116.906 58.2328 117.098 58.1225C117.29 58.0121 117.457 57.838 117.581 57.6177C121.614 53.5242 125.826 49.7355 130.196 46.2706C130.334 46.1658 130.456 46.0282 130.555 45.865L130.61 45.7839C130.698 45.6351 130.764 45.4667 130.806 45.287C130.823 45.2475 130.839 45.2069 130.853 45.1653C130.944 44.7162 130.904 44.2392 130.741 43.8257C130.578 43.4122 130.303 43.0912 129.969 42.9243C129.784 42.8356 129.586 42.8043 129.39 42.833C128.792 42.764 128.203 42.5936 127.638 42.326L127.419 42.2043C127.74 41.961 128.24 41.4945 128.358 41.4134L129.867 40.3993C130.119 40.2346 130.322 39.966 130.444 39.6357C130.566 39.3053 130.599 38.9319 130.54 38.574C130.555 38.3832 130.54 38.1904 130.497 38.007C130.454 37.8235 130.383 37.6531 130.288 37.5057C130.194 37.3584 130.077 37.237 129.946 37.1488C129.814 37.0606 129.671 37.0074 129.523 36.9921H129.375C129.317 36.9816 129.26 36.9816 129.202 36.9921C119.896 35.248 110.432 34.5483 101.047 33.95C102.001 33.0678 102.971 32.1957 103.941 31.3338C118.863 32.2059 133.762 33.7878 148.583 35.8868C136.515 44.8915 125.793 55.8026 115.007 67.3221C101.649 65.3954 88.2571 64.1008 74.8311 63.4383C75.5193 62.4142 76.2076 61.4812 76.888 60.5686ZM73.1418 102.935C82.5269 103.422 91.9121 104.081 101.297 105.318C103.135 105.562 103.12 101.84 101.297 101.597C91.9512 100.36 82.5739 99.7004 73.1887 99.2137L73.2356 92.1154C83.2778 92.7441 93.4059 93.3627 103.354 95.2589C105.161 95.6037 105.943 92.014 104.136 91.6692C93.969 89.7324 83.575 89.053 73.2826 88.404C73.2826 85.6255 73.3034 82.8538 73.3451 80.0889C81.9482 80.5756 90.4887 81.2145 99.037 82.34C100.867 82.5834 100.859 78.8619 99.037 78.6185C90.5043 77.4929 81.9404 76.8541 73.3686 76.3674L73.439 66.9571C86.938 67.5925 100.408 68.8567 113.85 70.7496C112.79 84.3877 112.79 98.1294 113.85 111.768C100.32 109.854 86.7503 108.58 73.1418 107.945C73.1183 106.302 73.1339 104.619 73.1418 102.935ZM116.736 70.2121C127.904 58.3073 139.026 47.0616 151.625 37.9149C150.429 51.0975 151.031 64.9391 151.977 78.0507C139.096 87.0452 127.818 98.2605 116.556 110.175C115.603 96.8791 115.663 83.4932 116.736 70.2121ZM99.2325 31.0397C89.2119 40.3114 79.9271 50.8518 71.515 62.5054C71.4068 62.6574 71.3195 62.8323 71.2569 63.0226C71.1867 63.0638 71.1188 63.1112 71.0536 63.1645C62.3619 62.7995 53.6702 62.6778 44.9785 62.7995C53.954 50.7676 63.8517 39.9527 74.5183 30.5226C82.7407 30.4415 90.9788 30.6037 99.2325 31.0093V31.0397ZM40.3641 75.5764C32.5432 75.6271 24.7222 75.8299 16.9403 76.3978C15.1024 76.5296 15.0946 80.2511 16.9403 80.1193C24.7613 79.5514 32.5353 79.3486 40.3328 79.2979C40.3328 82.0967 40.2937 84.8954 40.2624 87.6841C31.5812 87.7753 22.8999 88.039 14.2264 88.5967C12.3885 88.7082 12.3807 92.4297 14.2264 92.3182C22.8843 91.7706 31.5421 91.507 40.2077 91.4056C40.2077 93.7886 40.1373 96.1614 40.106 98.5039C33.1375 98.585 26.1769 98.7979 19.2162 99.2948C17.3861 99.4266 17.3705 103.158 19.2162 103.016C26.1612 102.519 33.1062 102.307 40.0513 102.225C40.0513 104.02 40.0044 105.825 39.9731 107.63C28.1165 107.921 16.2677 108.644 4.42677 109.8C5.34101 96.1574 5.16279 82.4283 3.89495 68.833C16.0539 67.65 28.2364 66.9064 40.4423 66.6021C40.4188 69.5936 40.3876 72.5749 40.3641 75.546V75.5764ZM27.8506 54.2106C27.1655 53.5262 26.3586 53.0764 25.5043 52.9024C28.2103 49.8603 30.8538 46.8182 33.3956 43.6037C38.0178 43.1271 42.4367 41.6365 46.05 37.7223C51.6263 37.3775 57.2105 37.1645 62.7946 37.0327C56.8731 42.9809 51.2343 49.3878 45.9092 56.2184C40.1999 56.2792 34.4906 56.4516 28.7812 56.8065C28.8171 56.3055 28.7533 55.801 28.5958 55.3412C28.4384 54.8813 28.1925 54.4816 27.8818 54.1801L27.8506 54.2106ZM36.5475 32.9157C47.4968 31.6482 58.4071 30.9383 69.3955 30.6848C68.457 31.5569 67.5341 32.4493 66.6035 33.3315C66.5036 33.2963 66.4015 33.2725 66.2984 33.2605C59.3769 33.3822 52.4631 33.6255 45.5494 34.0717C45.3555 34.1272 45.1625 34.188 44.9707 34.2543H44.9237C44.7822 34.338 44.6506 34.4472 44.5327 34.5787C41.2635 38.4118 37.0558 39.649 32.8012 39.9633C32.6179 39.9589 32.4358 40.0034 32.2662 40.0941C32.0967 40.1849 31.9434 40.3198 31.8158 40.4906C28.3433 44.9321 24.717 49.1539 20.9368 53.156C20.8031 53.2849 20.6918 53.4489 20.6102 53.6373C20.5285 53.8257 20.4783 54.0342 20.4628 54.2493C20.4473 54.4645 20.4669 54.6814 20.5203 54.8862C20.5736 55.0909 20.6596 55.2787 20.7726 55.4375C20.8823 55.7179 21.0521 55.9513 21.2616 56.1096C21.4711 56.2679 21.7113 56.3444 21.9536 56.3299C23.0522 56.2732 24.1523 56.3855 25.2305 56.6646C25.3557 56.6646 25.5825 56.8369 25.778 56.9282L25.559 57.2223C25.4484 57.3386 25.3487 57.4714 25.2618 57.6177C25.0884 57.8641 24.9711 58.1679 24.9228 58.4955C24.8744 58.823 24.8971 59.1615 24.9881 59.4734C25.0016 59.543 25.0199 59.6109 25.0428 59.6762C25.0428 59.6762 25.0428 59.7371 25.0428 59.7574L25.1132 59.8892C25.1967 60.0743 25.3097 60.2342 25.4445 60.3583C25.5793 60.4825 25.733 60.568 25.8953 60.6092C26.1123 60.7016 26.3441 60.719 26.5679 60.6599C32.0426 60.2644 37.5877 60.0717 43.1015 59.9703C42.4758 60.8221 41.8345 61.6638 41.2088 62.5257C41.1284 62.6408 41.0576 62.7665 40.9976 62.9009C29.5634 63.1646 18.1369 63.8406 6.71831 64.929C15.8296 52.9811 25.832 42.2338 36.5788 32.8447L36.5475 32.9157ZM42.8043 107.651C42.9763 97.7535 43.1014 87.8564 43.1797 77.9594C43.2304 77.6519 43.2304 77.334 43.1797 77.0265C43.2109 73.5585 43.2396 70.0904 43.2657 66.6224C52.338 66.4602 61.4129 66.5649 70.4905 66.9368C70.4018 78.2467 70.3184 89.5533 70.2402 100.856C70.2363 100.944 70.2363 101.032 70.2402 101.12L70.1933 107.934C61.1001 107.522 51.9835 107.404 42.8434 107.58L42.8043 107.651Z" fill="#4D4D4D"/>
<path d="M144.704 63.0429C136.644 69.4451 128.883 76.4576 121.46 84.0437C120.013 85.5242 122.054 88.0999 123.493 86.6701C130.736 79.2909 138.309 72.4748 146.174 66.2574C147.722 65.0102 146.283 61.7855 144.704 63.0429Z" fill="#4D4D4D"/>
<path d="M124.971 73.67C130.921 67.6082 137.141 62.0077 143.601 56.8978C145.165 55.6404 143.734 52.4259 142.154 53.6833C135.489 58.9722 129.073 64.7692 122.938 71.0437C121.491 72.5242 123.532 75.1404 124.971 73.67Z" fill="#4D4D4D"/>
<path d="M142.819 75.759C136.583 80.7057 130.576 86.1233 124.831 91.9836C123.384 93.4641 125.425 96.0398 126.864 94.61C132.419 88.9619 138.224 83.7408 144.25 78.9735C145.814 77.7262 144.399 74.5016 142.819 75.759Z" fill="#4D4D4D"/>
<path d="M70.2792 46.7472C67.5096 48.7761 64.8799 51.1102 62.4191 53.7238C60.9879 55.2348 63.0292 57.851 64.4526 56.3502C66.7316 53.9499 69.1679 51.8123 71.7339 49.9618C73.345 48.7956 71.8981 45.5811 70.2792 46.7472Z" fill="#4D4D4D"/>
<path d="M70.0915 53.7442L68.191 55.2044C66.6268 56.4314 68.0502 59.6459 69.6379 58.4189L71.5384 56.9587C73.126 55.7317 71.687 52.5172 70.0915 53.7442Z" fill="#4D4D4D"/>
<path d="M165.257 17.9586C162.402 15.8088 160.064 11.8744 160.001 7.47344C160.015 7.23112 159.987 6.98795 159.921 6.76083C159.854 6.53371 159.75 6.32808 159.616 6.15824C159.482 5.98841 159.321 5.85843 159.145 5.77734C158.968 5.69626 158.78 5.66602 158.593 5.68872C158.404 5.66382 158.213 5.69199 158.032 5.77131C157.852 5.85063 157.687 5.97926 157.548 6.14848C157.41 6.3177 157.301 6.52357 157.229 6.75216C157.157 6.98075 157.123 7.22673 157.131 7.47344C157.044 9.90367 156.404 12.2462 155.293 14.2067C154.464 15.6973 153.651 17.3502 152.258 17.8978C152.101 17.9268 151.95 17.9957 151.813 18.1006H151.766C151.53 18.2729 151.342 18.5369 151.228 18.8554C151.115 19.1738 151.081 19.5306 151.132 19.8751C151.13 20.2464 151.22 20.6089 151.389 20.9085C151.558 21.2081 151.797 21.429 152.071 21.5382C155.449 22.8361 156.443 28.0483 157.131 32.0132C157.134 32.2233 157.174 32.4297 157.249 32.6162C157.323 32.8027 157.43 32.9643 157.561 33.0881C157.772 33.2911 158.021 33.4188 158.282 33.4583C158.543 33.4979 158.807 33.4479 159.048 33.3135C159.29 33.179 159.5 32.9647 159.658 32.6921C159.815 32.4194 159.915 32.0979 159.946 31.7597C159.95 31.7294 159.95 31.6987 159.946 31.6684C160.291 27.6123 162.293 22.897 165.202 21.1528C165.48 21.0135 165.706 20.7415 165.834 20.3925C165.962 20.0436 165.982 19.6444 165.89 19.2769C165.873 19.0078 165.806 18.7479 165.696 18.5187C165.586 18.2895 165.436 18.0975 165.257 17.9586ZM158.562 25.2901C157.899 23.116 156.823 21.1942 155.434 19.7028C156.246 18.6643 156.98 17.5267 157.624 16.3057C157.989 15.6647 158.313 14.9865 158.593 14.2776C159.449 16.273 160.594 18.0358 161.964 19.4695C160.508 21.0544 159.345 23.0437 158.562 25.2901Z" fill="#4D4D4D"/>
<path d="M17.8553 13.6084C17.8373 13.3293 17.7656 13.0605 17.6467 12.8266C17.5279 12.5927 17.3656 12.4013 17.1748 12.2699C14.3124 10.1201 11.9739 6.18563 11.9191 1.78469C11.9326 1.54144 11.9049 1.2973 11.838 1.06939C11.771 0.841474 11.6665 0.635291 11.5316 0.465274C11.3968 0.295257 11.2349 0.165523 11.0573 0.0851481C10.8797 0.00477338 10.6907 -0.0243064 10.5035 -3.09376e-05C10.3144 -0.0250925 10.1234 0.0030454 9.94341 0.0824403C9.76344 0.161835 9.5988 0.290621 9.46071 0.460029C9.32263 0.629437 9.21435 0.835477 9.14327 1.06408C9.0722 1.29268 9.03999 1.53848 9.04885 1.78469C8.95874 4.21588 8.3166 6.55834 7.20309 8.51792C6.37407 10.0086 5.56069 11.6614 4.17638 12.209C4.0165 12.2381 3.86248 12.3069 3.72278 12.4118H3.67585C3.4378 12.5815 3.24743 12.8447 3.13217 13.1636C3.01692 13.4825 2.98272 13.8407 3.03453 14.1864C3.04469 14.5616 3.14743 14.9227 3.32762 15.2166C3.50782 15.5104 3.75597 15.7216 4.03561 15.819C7.41427 17.117 8.41535 22.3291 9.09578 26.294C9.0985 26.5041 9.13876 26.7105 9.2134 26.897C9.28803 27.0836 9.395 27.2451 9.52592 27.3689C9.73767 27.5714 9.98656 27.6985 10.2479 27.7378C10.5092 27.7771 10.7739 27.7272 11.0158 27.5929C11.2576 27.4587 11.4683 27.2448 11.6267 26.9725C11.7852 26.7002 11.886 26.3789 11.9191 26.0405C11.9158 26.0103 11.9158 25.9795 11.9191 25.9493C12.2554 21.8931 14.2654 17.1778 17.1748 15.4337C17.4426 15.2929 17.6605 15.0282 17.7862 14.691C17.9119 14.3537 17.9365 13.9679 17.8553 13.6084ZM10.5114 19.6014C9.85145 17.4247 8.77481 15.5018 7.38298 14.014C8.19103 12.9703 8.92401 11.8332 9.57284 10.617C9.93247 9.97335 10.254 9.29539 10.5348 8.58889C11.3931 10.5821 12.5372 12.3444 13.9057 13.7808C12.4504 15.3646 11.2901 17.3543 10.5114 19.6014Z" fill="#4D4D4D"/>
</g>
<defs>
<clipPath id="clip0_24_165">
<rect width="166" height="117" fill="white"/>
</clipPath>
</defs>
</svg>
