<svg width="101" height="129" viewBox="0 0 101 129" fill="none" xmlns="http://www.w3.org/2000/svg">
<g clip-path="url(#clip0_24_153)">
<path opacity="0.5" d="M80.6704 5.60242H20.2537C12.0281 5.60242 5.35986 10.8989 5.35986 17.4325V113.821C5.35986 120.354 12.0281 125.651 20.2537 125.651H80.6704C88.896 125.651 95.5642 120.354 95.5642 113.821V17.4325C95.5642 10.8989 88.896 5.60242 80.6704 5.60242Z" fill="#FF7B4C"/>
<path d="M83.3127 23.6259H10.1592V107.644H83.3127V23.6259Z" fill="white"/>
<path d="M63.4794 67.5968C61.5074 66.3509 59.3303 65.3249 57.0085 64.5471C56.9546 59.6387 57.0085 54.7387 57.0085 49.8302C58.8962 50.4341 60.6043 51.3444 62.0235 52.5029C63.6628 54.0534 66.456 51.8176 64.8167 50.2843C62.7509 48.4204 60.0622 47.06 57.0624 46.3609C57.0624 44.9903 57.0624 43.6282 57.1379 42.2576C57.1379 40.236 53.223 40.236 53.1799 42.2576C53.1799 43.4055 53.1799 44.5534 53.126 45.6841C51.9017 45.5731 50.6675 45.5473 49.4376 45.607C49.4376 44.4848 49.4376 43.3627 49.4376 42.2405C49.4915 40.2188 45.5334 40.2188 45.4795 42.2405C45.4795 43.5426 45.4795 44.8104 45.4148 46.1467C39.3645 47.5088 34.878 51.3465 36.5605 57.7112C37.5311 61.3605 41.1979 63.1508 45.307 64.4701C45.3573 70.1124 45.4903 75.7576 45.706 81.4056C40.9499 80.7375 37.0781 78.6473 37.0781 74.4326C37.0781 72.411 33.1417 72.411 33.1201 74.4326C33.1201 80.5833 38.89 83.8556 45.7923 84.6694C45.8462 85.8944 45.8786 87.1108 45.9325 88.3272C46.0188 90.3488 49.9768 90.3574 49.8905 88.3272C49.8366 87.1793 49.8043 86.0314 49.7611 84.9007C50.9928 84.8934 52.222 84.8132 53.4387 84.6608C53.4387 85.8944 53.5142 87.1194 53.5681 88.3443C53.6652 90.366 57.6233 90.3746 57.5262 88.3443C57.4615 86.8709 57.4183 85.3975 57.3644 83.9241C60.7536 83.1362 63.762 81.5502 65.9923 79.3754C70.2631 75.0923 68.5806 71.0233 63.4794 67.5968ZM53.1583 48.7509C53.0828 53.5823 53.0504 58.4137 53.0936 63.2451C51.8533 62.8681 50.6131 62.4998 49.4052 62.1229C49.4052 57.5199 49.4304 52.9198 49.4807 48.3226C50.7221 48.3683 51.9543 48.5147 53.1583 48.7595V48.7509ZM40.4538 55.3812C40.2812 51.4236 42.4598 49.4276 45.5119 48.6738C45.4472 52.7342 45.4256 56.7918 45.4472 60.8465C42.6215 59.9556 40.6479 59.1589 40.4538 55.3898V55.3812ZM49.815 81.6541C49.6209 76.3087 49.4699 70.9633 49.416 65.6179C50.5808 65.9435 51.7347 66.2604 52.8024 66.6031L53.1152 66.7144C53.1799 71.6029 53.3021 76.4971 53.4819 81.3971C52.2691 81.5546 51.0437 81.6433 49.815 81.6626V81.6541ZM62.2176 78.416C60.881 79.4498 59.2492 80.211 57.4615 80.6347C57.3249 76.5114 57.2206 72.391 57.1487 68.2735C62.2176 70.6121 66.8551 74.2785 62.2176 78.416Z" fill="#4D4D4D"/>
<path d="M100.892 100.414C100.892 98.701 100.795 96.9877 100.795 95.3516C100.795 87.402 100.601 79.0756 100.256 69.8668C99.6087 52.1688 98.7352 36.304 97.6027 21.3644C96.686 9.14883 90.1181 2.95538 76.3135 1.27638C59.4352 -0.770966 41.6834 0.0771083 26.013 0.830943C17.8057 1.23356 10.6662 1.97882 6.23364 7.2214C2.37267 11.7958 1.71475 18.0407 1.13237 23.5574C1.0353 24.414 0.949015 25.2706 0.851952 26.0673C-0.388305 36.3468 -0.0107932 46.9262 0.355891 57.1544C0.593158 63.7676 0.841219 70.6035 0.636308 77.2852C0.636308 79.4782 0.636308 81.6626 0.636308 83.8556C0.528459 92.756 0.431385 101.948 1.43438 110.934C2.28638 118.506 4.41096 123.578 12.7261 127.064C16.7057 128.777 22.1305 129 27.0915 129C28.2455 129 29.3779 129 30.4563 129C31.5348 129 32.8722 129 33.9722 129C40.9716 129 48.0572 128.82 54.9163 128.606C59.0577 128.477 63.3501 128.349 67.567 128.272H69.6161C82.2128 128.083 97.8724 127.861 100.31 115.311C101.183 110.454 101.043 105.348 100.892 100.414ZM5.80222 43.8766C5.47061 37.96 5.6544 32.0323 6.35226 26.1358C6.43854 25.4591 6.514 24.7481 6.58949 24.0114C7.31208 17.244 8.19646 8.8233 16.5979 6.20201C20.7069 4.91706 26.0777 4.78 31.0927 4.78H33.1633C35.0507 4.78 36.841 4.78 38.5558 4.78C46.2885 4.56584 53.1045 4.54016 59.4137 4.69436L61.9912 4.7543C67.8366 4.88279 73.8546 5.01129 79.3548 6.20201C89.1475 8.32645 91.5417 13.826 92.1348 21.4329C94.2918 49.0935 95.3056 73.6874 95.3164 96.5851C95.3164 98.1699 95.3811 99.7718 95.4566 101.459C95.6291 105.82 95.8017 110.325 94.831 114.386C92.5986 123.663 81.2421 123.749 72.1182 123.809C66.4453 123.809 60.6862 124.032 55.1105 124.211C45.1776 124.528 34.8997 124.854 24.8159 124.383C16.0586 123.98 10.677 121.813 8.34743 117.864C6.9454 115.457 6.81602 112.236 6.70818 109.392C6.70818 108.655 6.70814 107.944 6.60029 107.259C6.01791 99.0865 6.08263 90.7514 6.14734 82.682V77.3109C6.48167 66.0462 6.36303 54.8072 5.80222 43.8766Z" fill="#4D4D4D"/>
<path d="M41.414 15.3851H41.5218C47.4643 15.1623 53.4498 15.0424 59.3923 15.0595C59.7244 15.0675 60.053 15.004 60.3435 14.8759C60.6339 14.7477 60.8754 14.5596 61.0423 14.3314C61.2246 14.0691 61.3201 13.7744 61.3201 13.4748C61.3201 13.1752 61.2246 12.8805 61.0423 12.6182C60.8768 12.3864 60.6345 12.1952 60.3416 12.0653C60.0488 11.9354 59.7167 11.8718 59.3815 11.8814H58.8746C53.1048 11.8814 47.2594 11.9928 41.4787 12.2155C41.129 12.2262 40.7892 12.3113 40.4951 12.462C40.201 12.6127 39.9634 12.8235 39.807 13.0722C39.6362 13.3395 39.5536 13.6369 39.5668 13.9365C39.58 14.2361 39.6886 14.5282 39.8825 14.7854C40.0519 14.9811 40.2816 15.139 40.5498 15.244C40.8179 15.349 41.1155 15.3975 41.414 15.3851Z" fill="#4D4D4D"/>
<path d="M65.2483 15.1281C65.5713 15.1988 65.9126 15.197 66.2344 15.1229C66.5561 15.0488 66.8457 14.9053 67.0709 14.7084L67.1788 14.6313C67.5328 14.3306 67.7257 13.9323 67.7166 13.5207C67.7075 13.1091 67.497 12.7165 67.1298 12.4259C66.7626 12.1353 66.2675 11.9697 65.7493 11.964C65.231 11.9583 64.7303 12.1131 64.3531 12.3955L64.2561 12.4726C64.0111 12.6532 63.8325 12.8833 63.7394 13.1383C63.6464 13.3933 63.6423 13.6636 63.7277 13.9203C63.8335 14.2067 64.0282 14.4673 64.2939 14.6784C64.5596 14.8894 64.8877 15.0441 65.2483 15.1281Z" fill="#4D4D4D"/>
<path d="M72.5496 15.2309C72.8001 15.2286 73.0475 15.1865 73.2772 15.107C73.5069 15.0276 73.7142 14.9124 73.8869 14.7683L73.984 14.6826C74.3572 14.3873 74.5675 13.9863 74.5686 13.5678C74.5696 13.1493 74.3612 12.7476 73.9894 12.4511C73.8052 12.3043 73.5866 12.1878 73.3457 12.1081C73.1049 12.0284 72.8466 11.9872 72.5858 11.9868C72.0589 11.986 71.5532 12.1515 71.1799 12.4468L71.0613 12.5239C70.8713 12.6657 70.7198 12.8369 70.6163 13.027C70.5128 13.217 70.4595 13.4219 70.4595 13.629C70.4595 13.8361 70.5128 14.0409 70.6163 14.231C70.7198 14.4211 70.8713 14.5923 71.0613 14.7341C71.2556 14.891 71.4872 15.0158 71.7427 15.1011C71.9982 15.1864 72.2725 15.2305 72.5496 15.2309Z" fill="#4D4D4D"/>
<path d="M53.277 111.902H51.7671H50.1817C45.1668 111.782 37.6066 111.602 37.0565 116.605C36.9709 117.094 37.0233 117.592 37.2099 118.063C37.3964 118.534 37.7124 118.966 38.135 119.329C40.0439 120.931 44.0452 121.205 47.2806 121.205C48.2728 121.205 49.2003 121.205 49.966 121.162H50.5915H51.7887C55.9408 121.11 63.652 121.025 63.9108 116.879C64 116.252 63.9222 115.618 63.6825 115.018C63.4428 114.417 63.0466 113.863 62.5196 113.392C60.4597 111.705 56.4801 111.816 53.277 111.902ZM59.392 116.999C58.2164 118.069 53.5573 118.026 51.066 118.001H49.1572C43.2039 118.112 41.7588 117.787 41.6078 117.487C41.4686 117.306 41.3949 117.099 41.3949 116.887C41.3949 116.676 41.4686 116.468 41.6078 116.288C42.5137 115.217 46.0727 115.028 48.7258 115.028C49.6964 115.028 50.5484 115.028 51.0984 115.028H51.7779H52.3279C56.9223 114.908 59.4675 115.208 59.8773 115.885C60.0606 116.219 59.8665 116.562 59.392 116.999Z" fill="#4D4D4D"/>
<path d="M9.78186 77.4908C9.37204 87.856 8.94062 98.5724 9.35044 109.135C9.35546 109.399 9.45252 109.657 9.63086 109.88C9.7673 110.139 9.99872 110.359 10.295 110.512C10.5912 110.665 10.9386 110.743 11.2918 110.737H11.3457C16.6734 110.634 22.1305 110.642 27.318 110.642C34.986 110.642 42.9236 110.642 50.7426 110.308C58.2273 109.974 65.8415 110.06 73.1644 110.146C78.8803 110.214 84.7796 110.274 90.5926 110.146C90.8905 110.148 91.184 110.089 91.4446 109.974C91.7923 109.86 92.0847 109.66 92.2788 109.404C92.473 109.148 92.5586 108.85 92.5231 108.552C91.7035 94.0409 91.3368 79.2212 90.9809 64.9154C90.625 50.6097 90.2583 35.9356 89.3955 21.4586C89.3857 21.2564 89.3233 21.0581 89.2122 20.876V20.8247C89.186 20.7891 89.1571 20.7548 89.1259 20.7219C88.9857 20.4617 88.7503 20.241 88.4504 20.0883C88.1504 19.9355 87.7997 19.8578 87.4435 19.8652C78.0391 19.9252 68.4729 20.0879 59.2195 20.2507C43.7325 20.5163 27.717 20.7904 11.9819 20.6019C11.6219 20.5898 11.2657 20.6654 10.9612 20.8185C10.6567 20.9716 10.4183 21.1949 10.278 21.4586V21.5271C10.2754 21.5699 10.2754 21.6128 10.278 21.6556C10.194 21.8111 10.1395 21.9757 10.1162 22.1439C9.47988 30.1962 9.80343 38.4198 10.1162 46.3094C10.3427 52.203 10.5799 58.3022 10.4289 64.2987C10.127 68.7274 9.95442 73.1819 9.78186 77.4908ZM13.9232 46.3779C13.6428 38.9766 13.3516 31.3269 13.8262 23.8143C29.0004 23.9599 44.412 23.7029 59.3166 23.4459C67.9445 23.3003 76.7773 23.1547 85.5022 23.0776C86.3003 37.015 86.6562 51.2093 87.0013 64.9326C87.3464 78.6558 87.7023 92.9701 88.5112 106.976C83.356 107.053 78.1362 106.976 73.0781 106.976C65.7444 106.899 58.1842 106.813 50.7103 107.13C42.9237 107.464 35.0184 107.464 27.3719 107.464C22.756 107.464 17.9891 107.464 13.2869 107.541C12.985 97.4931 13.384 87.2906 13.7723 77.4222C13.9448 73.1391 14.1174 68.7274 14.2252 64.3758C14.387 58.3536 14.1497 52.263 13.9232 46.3779Z" fill="#4D4D4D"/>
<path d="M19.898 36.2269C20.228 36.2239 20.5508 36.1498 20.8319 36.0125C21.113 35.8753 21.3419 35.6799 21.4942 35.4474C23.41 32.7823 25.9249 30.4189 28.9141 28.4744C29.1058 28.3621 29.2655 28.2189 29.3828 28.0542C29.5001 27.8895 29.5722 27.707 29.5946 27.5186C29.617 27.3302 29.5891 27.1402 29.5128 26.961C29.4364 26.7817 29.3133 26.6173 29.1514 26.4785C28.7958 26.1279 28.2808 25.9027 27.7177 25.8514C27.1546 25.8001 26.5887 25.9269 26.1424 26.2043C22.8791 28.3392 20.1373 30.9322 18.0538 33.8541C17.8797 34.0827 17.7876 34.3449 17.7876 34.6122C17.7876 34.8794 17.8797 35.1416 18.0538 35.3703C18.2411 35.628 18.5097 35.8425 18.833 35.9927C19.1564 36.1429 19.5234 36.2236 19.898 36.2269Z" fill="#4D4D4D"/>
<path d="M24.1798 37.9145C24.5198 38.1528 24.9559 38.2865 25.4093 38.2914C25.667 38.2887 25.9208 38.2403 26.1521 38.1499C26.3834 38.0596 26.5865 37.9294 26.7466 37.7689L32.8508 32.0637C33.0905 31.8524 33.2532 31.5933 33.3216 31.3141C33.39 31.0349 33.3614 30.7462 33.2391 30.479C33.1198 30.1965 32.9098 29.9437 32.6299 29.7454C32.35 29.5471 32.0098 29.4102 31.6429 29.3482C31.3378 29.3089 31.025 29.335 30.7368 29.4239C30.4486 29.5127 30.1955 29.6611 30.0036 29.8536L23.8886 35.5588C23.7083 35.727 23.5725 35.9223 23.4893 36.1331C23.4062 36.3439 23.3773 36.5659 23.4044 36.7858C23.4316 37.0056 23.5143 37.2189 23.6475 37.4128C23.7807 37.6068 23.9617 37.7774 24.1798 37.9145Z" fill="#4D4D4D"/>
</g>
<defs>
<clipPath id="clip0_24_153">
<rect width="101" height="129" fill="white"/>
</clipPath>
</defs>
</svg>
