<svg width="131" height="117" viewBox="0 0 131 117" fill="none" xmlns="http://www.w3.org/2000/svg">
<g clip-path="url(#clip0_24_132)">
<g opacity="0.5">
<path d="M20.9231 92.0987C23.031 95.9864 24.6205 100.151 25.6482 104.478C27.2407 102.838 28.6024 100.976 29.6937 98.9447C30.7896 100.129 31.5507 101.6 31.8944 103.199C36.1583 99.6301 42.008 102.088 47.1053 103.592C56.507 106.367 66.3779 105.356 76.0384 104.328C80.359 103.868 85.0922 103.174 88.0211 99.463C88.2373 103.152 89.3174 106.732 91.1684 109.895L94.7204 99.6636C95.9872 100.947 96.9795 102.49 97.6331 104.194C106.371 94.3974 115.19 84.5339 122.391 73.1156C123.107 72.1233 123.607 70.9827 123.856 69.772C124.204 67.2643 122.577 64.9907 120.797 63.5279C119.017 62.0651 116.946 60.9701 115.627 58.9556C113.135 55.194 114.139 49.3929 111.711 45.5311C110.053 42.9231 107.148 41.803 105.15 39.5294C102.132 36.119 101.638 30.7943 101.225 25.9378C101.23 25.4319 101.086 24.9366 100.813 24.5167C100.141 23.7226 98.9843 24.4081 98.2885 25.1688C96.1929 27.4925 94.4938 30.5937 91.7348 31.6302C89.3075 32.5497 86.6214 31.5717 84.1213 30.7943C75.5044 28.0776 66.4831 27.7684 57.5588 27.4507C53.8532 27.3253 50.1152 27.2 46.4581 27.9606C42.1132 28.8718 38.0354 31.0033 34.087 33.3103C30.1387 35.6174 26.2146 38.1418 22.4119 40.8334C19.3859 42.9733 16.3356 45.3221 14.3857 48.7493C13.0246 51.348 12.131 54.1801 11.748 57.1082C9.42595 71.5107 14.1187 87.6267 24.5317 95.9355" fill="#286D08"/>
</g>
<g opacity="0.5">
<path d="M69.0317 4.57238C65.0266 4.38849 60.8356 4.89839 57.4374 7.22218C54.0392 9.54596 51.6604 14.0347 52.51 18.3145C52.8324 19.7823 53.4348 21.1691 54.2819 22.3936C55.8527 24.7535 58.0724 26.5724 60.6541 27.6154C63.2359 28.6585 66.0611 28.8778 68.7647 28.2449C74.0642 26.8573 78.3928 21.7751 79.2829 15.8904C79.6097 14.3139 79.4189 12.6698 78.7407 11.2177C77.5757 9.12801 75.1241 8.46765 72.9234 7.99955" fill="#FF7B4C"/>
</g>
<path d="M130.061 59.5992C129.749 59.2151 129.355 58.91 128.91 58.7071C128.466 58.5043 127.982 58.4091 127.497 58.4289C126.783 58.4547 126.075 58.5641 125.385 58.755C124.761 58.9475 124.11 59.0294 123.459 58.9973C120.142 58.4289 119.349 54.8931 118.605 51.4743C118.371 50.303 118.06 49.1496 117.674 48.0221C115.627 42.5303 111.088 37.7155 105.174 34.723C106.12 29.833 106.687 21.8586 101.064 19.3677C100.555 19.131 100.004 19.0058 99.4455 18.9999C97.9163 18.9999 96.7674 19.9862 95.6589 20.9391L95.3757 21.1732C92.9189 23.2415 90.5972 25.4755 88.4256 27.8603L87.8593 27.6932C84.9371 26.7735 81.9653 26.031 78.9593 25.4697C80.7183 23.0854 81.92 20.3133 82.4707 17.3699C82.8249 15.3994 82.744 13.3718 82.2341 11.4382C81.7242 9.50458 80.7983 7.71483 79.5256 6.20234C78.045 4.32747 76.1896 2.80549 74.0864 1.74072C71.9833 0.675943 69.6821 0.0935442 67.3407 0.0334473H67.0414C56.0701 0.593496 49.6297 5.73424 47.9225 15.3136C47.6218 17.1127 47.6941 18.9573 48.1349 20.7254C48.5756 22.4935 49.3747 24.1448 50.4793 25.57C39.7993 27.6597 25.7939 32.5664 17.08 44.0432C15.8115 43.4434 14.7137 42.5165 13.8921 41.3517C16.5136 40.1647 19.4101 37.7907 20.1383 35.0741C20.3473 34.2837 20.3719 33.4535 20.2102 32.6514C20.0484 31.8494 19.705 31.0983 19.2079 30.46C18.724 29.7263 18.0735 29.1263 17.3133 28.7124C16.553 28.2986 15.7062 28.0835 14.8469 28.086C13.2688 28.1727 11.7619 28.7921 10.5575 29.8492C9.35315 30.9062 8.51788 32.3424 8.17996 33.9373C7.90525 35.3881 7.92177 36.8818 8.2285 38.3257C7.31291 38.3007 6.41844 38.036 5.62883 37.5565C4.83923 37.077 4.1803 36.3983 3.71376 35.584C3.55458 35.2821 3.32118 35.0288 3.03709 34.8498C2.753 34.6708 2.42826 34.5723 2.09558 34.5642C1.72841 34.5684 1.36854 34.6707 1.05095 34.8611C0.73337 35.0515 0.468888 35.3236 0.28322 35.6509C0.110149 35.9518 0.0187988 36.2955 0.0187988 36.6456C0.0187988 36.9957 0.110149 37.3393 0.28322 37.6403C1.97422 40.6746 5.13776 42.4132 8.87577 42.4132C9.18322 42.4132 9.49069 42.4132 9.79814 42.4132C11.0173 44.4941 12.7481 46.2043 14.8145 47.3701C13.3794 49.7328 12.2094 52.2568 11.3273 54.8931C7.28186 67.0554 10.9713 78.6492 14.5637 89.8669C17.0395 97.6407 19.6043 105.665 19.5396 113.799C19.5361 114.062 19.5837 114.323 19.6796 114.567C19.7755 114.811 19.9177 115.033 20.0979 115.22C20.3175 115.431 20.5789 115.591 20.864 115.688C21.1491 115.785 21.4512 115.817 21.7495 115.782C22.0477 115.747 22.3352 115.646 22.592 115.485C22.8488 115.325 23.0689 115.109 23.2371 114.852C24.1106 113.52 25.2065 112.36 26.4735 111.425C26.9185 111.074 27.3959 110.689 27.8085 110.321C28.8434 111.491 29.7876 112.743 30.6322 114.066C31.158 114.883 31.7364 115.662 32.3637 116.398C32.5396 116.588 32.7506 116.738 32.9841 116.842C33.2176 116.945 33.4689 116.999 33.723 117C34.2328 116.984 34.7195 116.777 35.0919 116.417C35.4642 116.057 35.6967 115.568 35.7457 115.044C36.192 111.907 36.9484 108.826 38.0031 105.849C38.4157 104.537 38.8121 103.183 39.2167 101.82C46.7806 103.617 54.5145 104.539 62.2758 104.57C68.3839 104.632 74.4754 103.902 80.4075 102.397C81.4699 106.041 82.2624 109.763 82.7782 113.531C82.8306 114.047 83.0618 114.525 83.4291 114.879C83.7964 115.232 84.275 115.436 84.7766 115.454C85.2776 115.449 85.7591 115.252 86.1278 114.902C87.1828 113.932 88.1798 112.896 89.1134 111.801L89.4127 111.475C89.6069 111.274 89.8577 111.015 90.0924 110.748L90.2704 110.915C90.4285 111.054 90.5797 111.202 90.7235 111.358C92.0524 112.828 93.4569 114.223 94.9307 115.537C95.3042 115.878 95.7839 116.067 96.2819 116.072C96.7994 116.075 97.2972 115.868 97.6691 115.496C98.041 115.124 98.2575 114.617 98.2723 114.083L98.3208 112.921C98.5959 106.167 98.8791 99.1871 104.567 95.0244C106.298 93.7538 108.054 92.7089 109.769 91.6808C113.661 89.3486 117.334 87.1503 120.15 82.8621C125.66 82.6949 127.432 78.5991 128.403 74.5868C128.516 74.1103 128.718 73.45 128.961 72.6809L129.026 72.472C130.32 68.1003 132.133 62.1654 130.061 59.5992ZM77.9884 18.6404C77.0491 21.5506 75.2455 24.0808 72.8343 25.8711C70.423 27.6614 67.5268 28.6207 64.5574 28.6126C63.4965 28.6121 62.4387 28.4944 61.402 28.2616C59.6232 27.9199 57.9446 27.1592 56.4965 26.0386C55.0484 24.918 53.8697 23.4676 53.0522 21.8001C52.3388 20.1884 52.0009 18.4264 52.0655 16.6555C52.1301 14.8845 52.5955 13.1538 53.4243 11.6022C56.2804 5.81783 60.9651 4.43024 67.0899 4.07917H67.3245C69.1474 4.0908 70.9413 4.55196 72.5568 5.42431C74.1724 6.29665 75.563 7.55496 76.6129 9.09453C77.5744 10.4511 78.202 12.0289 78.4417 13.692C78.6813 15.355 78.5257 17.0533 77.9884 18.6404ZM53.9179 29.0557C56.4656 31.0438 59.4949 32.2673 62.6723 32.5915C67.1403 33.064 71.6194 31.8104 75.2455 29.0724C78.907 29.4126 82.518 30.1896 86.0065 31.3878L86.144 31.4296C86.9531 31.6553 87.7056 31.8893 88.5066 32.1067C88.7872 32.2037 89.0869 32.2262 89.3782 32.1722C89.6695 32.1181 89.9429 31.9893 90.1733 31.7974L90.4726 31.5383C92.8028 28.8467 95.4566 25.7957 98.3451 23.9316C99.3646 23.2713 100.028 23.1626 100.538 23.8313C102.083 25.8709 101.533 32.9091 100.967 35.4085C100.811 35.8476 100.83 36.3322 101.017 36.7576C101.205 37.183 101.547 37.5151 101.97 37.6821C108.281 40.4572 112.755 45.3556 114.567 51.4743C114.786 52.2015 114.964 53.1043 115.15 54.0656C115.692 56.8742 116.315 60.0673 118.386 61.7224C119.794 62.8508 121.485 62.9679 122.998 63.0682H123.467C123.863 63.0576 124.257 63.0241 124.649 62.9678C125.11 62.9064 125.575 62.8701 126.04 62.8592C126.314 62.8453 126.588 62.882 126.849 62.9678C126.732 63.6637 126.57 64.3507 126.364 65.0242C126.299 65.2833 126.243 65.4923 126.226 65.5675C126.089 66.2947 125.959 67.0972 125.822 67.9498C125.013 73.0237 124.09 78.7746 119.462 78.7746H118.977C118.642 78.7737 118.314 78.8685 118.029 79.0485C117.743 79.2285 117.511 79.4867 117.359 79.7944C114.734 83.9522 110.995 87.2313 106.598 89.2316C103.62 90.6694 100.505 92.3411 98.2237 95.6847C95.4 99.7555 94.7204 104.595 94.4372 109.335C93.4625 108.209 92.4308 107.138 91.3464 106.125C90.9617 105.774 90.4642 105.584 89.9511 105.592C89.4379 105.6 88.946 105.805 88.5713 106.167C87.8107 107.003 87.0906 107.839 86.4515 108.599L86.0307 109.109C85.4725 106.158 84.6957 102.965 83.6682 99.4045C83.5045 98.9004 83.1657 98.477 82.7174 98.2161C82.269 97.9551 81.743 97.8752 81.2409 97.9918C75.0878 99.7637 68.7192 100.608 62.3324 100.499C54.2058 100.446 46.1143 99.3908 38.2296 97.3565C37.7194 97.2304 37.1818 97.3131 36.7293 97.5873C36.2769 97.8616 35.9447 98.3061 35.8023 98.8277C35.3492 100.851 34.7182 102.873 34.1194 104.838C33.5612 106.635 32.9948 108.482 32.5012 110.363C32.1291 109.853 31.7488 109.335 31.3604 108.783C30.7212 107.889 30.074 106.986 29.3862 106.108C29.218 105.894 29.0043 105.722 28.7616 105.606C28.519 105.49 28.2538 105.433 27.9865 105.44C27.4564 105.439 26.9444 105.638 26.5463 106C25.9233 106.576 25.268 107.12 24.5802 107.671C24.1191 108.056 23.6498 108.44 23.1886 108.85C22.4766 102.28 20.373 95.877 18.334 89.6663C15.4294 80.6386 12.3063 71.2181 13.8112 61.5803C17.4602 37.7155 42.8495 30.903 53.9179 29.0557ZM15.575 35.2998C14.6566 36.3602 13.5051 37.1772 12.2173 37.6821C11.7642 35.6258 12.0151 34.1212 12.9617 33.2017C13.4032 32.7271 14.0077 32.4509 14.6446 32.4327C14.9376 32.4173 15.2289 32.4876 15.4851 32.6355C15.7412 32.7833 15.9519 33.0027 16.0929 33.2686C16.2076 33.6224 16.2197 34.0032 16.1277 34.3641C16.0357 34.725 15.8436 35.0502 15.575 35.2998Z" fill="#4D4D4D"/>
<path d="M99.0167 57.6432C99.4134 57.6583 99.8009 57.5175 100.101 57.2491C100.401 56.9808 100.592 56.6049 100.635 56.1971C100.772 54.8848 101.565 53.4888 102.779 53.4888C102.923 53.4924 103.067 53.512 103.208 53.5473C104.543 53.8817 105.02 55.3946 105.182 56.6067C105.207 56.9318 105.352 57.2347 105.587 57.4525C105.822 57.6704 106.129 57.7865 106.444 57.7769C106.684 57.7748 106.92 57.72 107.138 57.6162C107.355 57.5124 107.549 57.3621 107.706 57.1751C107.857 57.0026 107.969 56.7976 108.033 56.5749C108.097 56.3522 108.113 56.1175 108.078 55.8878C107.714 53.1712 105.756 50.4127 102.706 50.4127C99.6316 50.4796 97.9567 53.3216 97.6574 56.1135C97.6254 56.3115 97.6356 56.5143 97.6873 56.7077C97.739 56.9012 97.831 57.0807 97.9567 57.2336C98.0983 57.3711 98.2649 57.4781 98.4468 57.5485C98.6288 57.6188 98.8225 57.651 99.0167 57.6432Z" fill="#4D4D4D"/>
<path d="M66.2726 6.62024C61.7336 6.85429 56.0862 8.64309 54.9454 15.7733C54.777 16.9202 54.8551 18.0914 55.1739 19.2037C55.4927 20.316 56.0445 21.3423 56.7901 22.2096C57.7693 23.3763 58.9761 24.316 60.3314 24.9671C61.6867 25.6183 63.1599 25.9661 64.6545 25.9879C70.5608 25.9879 75.2455 21.6329 75.5529 15.8485C75.5911 14.7278 75.4061 13.6109 75.0095 12.567C74.6128 11.5231 74.013 10.5745 73.247 9.77992C72.3506 8.79482 71.2707 8.00712 70.0722 7.46414C68.8737 6.92116 67.5813 6.63411 66.2726 6.62024ZM72.1709 17.5537C71.6709 19.143 70.6834 20.5207 69.3578 21.4784C68.0323 22.4361 66.4409 22.9217 64.8244 22.8616H64.1933C63.1327 22.7908 62.1001 22.4809 61.1678 21.9538C60.2355 21.4267 59.4262 20.6952 58.7967 19.8106C58.3547 19.1694 58.0651 18.4296 57.9513 17.6513C57.8374 16.8729 57.9025 16.0778 58.1413 15.3302C59.2578 11.6439 61.6932 9.97217 66.2807 9.72976H66.4021C67.3798 9.7446 68.3406 9.99577 69.2075 10.4632C70.0744 10.9306 70.8233 11.6012 71.3942 12.4213C71.911 13.1506 72.2511 13.9971 72.3863 14.89C72.5214 15.7829 72.4476 16.6963 72.1709 17.5537Z" fill="#4D4D4D"/>
<path d="M47.6796 44.177C48.3298 44.2514 48.9835 44.2877 49.6376 44.2857C51.878 44.2226 54.1112 43.9964 56.3208 43.6086C58.3184 43.2676 60.3339 43.0499 62.3566 42.9566H63.4407C66.9198 42.9566 70.4151 43.3077 73.7971 43.642C76.2244 43.8844 78.6517 44.1352 81.1194 44.2522C81.4053 44.2522 81.6965 44.2522 81.9932 44.2522C83.7085 44.2522 86.0387 43.9513 86.4999 41.335C86.5932 40.8715 86.5834 40.3921 86.4713 39.9331C86.3592 39.4741 86.1476 39.0474 85.8526 38.6852C83.1098 35.2246 72.9071 35.0407 68.6109 34.9571C67.9879 34.9571 67.4862 34.9571 67.0412 34.9153C66.1108 34.9153 64.2903 34.8066 62.0572 34.8066C54.1847 34.8066 44.6617 35.7428 44.0306 40.2065C43.9677 40.6125 43.9863 41.0276 44.0851 41.4259C44.1839 41.8242 44.3609 42.1972 44.6051 42.5219C45.3826 43.4657 46.4854 44.0594 47.6796 44.177ZM47.8819 39.9139C48.4968 39.078 51.3772 38.7353 52.9307 38.5682C53.3676 38.518 53.7397 38.4846 53.9825 38.4428C57.3705 37.8887 60.7953 37.6092 64.2256 37.6069C65.1884 37.6069 66.1593 37.6069 67.1221 37.6654L68.8536 37.7406C71.4377 37.7802 74.0163 37.998 76.5723 38.3926H76.7989C81.2246 39.1616 82.2764 39.939 82.3735 40.4573C82.4463 40.8418 81.9528 41.243 81.5239 41.5189C81.1316 41.6933 80.7036 41.7651 80.2779 41.7278C78.4244 41.6134 76.5823 41.3507 74.768 40.9421C73.8942 40.7666 73.1499 40.6244 72.7858 40.591C69.6222 40.2901 66.7337 40.1396 63.9667 40.1396H62.3485C59.7108 40.1981 56.6848 40.2567 53.7802 40.591L52.7608 40.7582C51.5385 41.0048 50.2996 41.1529 49.0551 41.2012C47.9305 41.2012 47.6311 40.9504 47.5583 40.8C47.4855 40.6495 47.5745 40.3486 47.8819 39.9139Z" fill="#4D4D4D"/>
<path d="M22.5576 74.5116C20.8666 67.8245 21.2064 62.015 24.4509 55.9046C25.3732 54.1743 22.8327 52.6279 21.8941 54.3582C18.2532 61.2042 17.8001 67.8412 19.6934 75.3308C20.1708 77.2366 23.035 76.4592 22.5576 74.5116Z" fill="#4D4D4D"/>
<path d="M26.6432 51.2402C27.018 51.2116 27.3685 51.0376 27.6243 50.7531C27.8801 50.4686 28.0223 50.0946 28.0223 49.7063C28.0223 49.318 27.8801 48.9441 27.6243 48.6596C27.3685 48.3751 27.018 48.2011 26.6432 48.1725C26.2684 48.2011 25.9179 48.3751 25.6621 48.6596C25.4063 48.9441 25.2642 49.318 25.2642 49.7063C25.2642 50.0946 25.4063 50.4686 25.6621 50.7531C25.9179 51.0376 26.2684 51.2116 26.6432 51.2402Z" fill="#4D4D4D"/>
</g>
<defs>
<clipPath id="clip0_24_132">
<rect width="131" height="117" fill="white"/>
</clipPath>
</defs>
</svg>
