<svg width="129" height="122" viewBox="0 0 129 122" fill="none" xmlns="http://www.w3.org/2000/svg">
<g clip-path="url(#clip0_22_107)">
<path opacity="0.5" d="M100.38 30.9524H17.7013C9.65509 30.9524 3.13232 37.4716 3.13232 45.5133V98.2968C3.13232 106.339 9.65509 112.858 17.7013 112.858H100.38C108.427 112.858 114.949 106.339 114.949 98.2968V45.5133C114.949 37.4716 108.427 30.9524 100.38 30.9524Z" fill="#286D08"/>
<path d="M123.462 86.9601C128.759 82.1758 129.04 71.9415 128.832 65.3683C128.634 59.2007 126.355 55.1444 119.965 53.8339C119.798 53.7966 119.627 53.7791 119.455 53.7819H119.289L118.363 53.6675C118.779 44.1405 119.601 29.2675 109.601 25.4505C106.973 24.465 104.268 23.6963 101.515 23.1519C100.074 17.0517 98.2066 11.0601 95.9264 5.22114C95.7833 4.73797 95.4582 4.32916 95.0195 4.08084C94.5808 3.83251 94.0628 3.76404 93.5746 3.88985C88.9749 5.29395 84.3545 6.66684 79.7445 8.05013C78.529 5.34569 76.9193 2.83615 74.9679 0.603234C74.6806 0.308641 74.3072 0.112687 73.9015 0.0435406C73.4957 -0.0256059 73.0785 0.0356216 72.7097 0.218414C57.3602 7.14527 42.3646 14.8418 27.0151 21.7686C26.8414 21.8492 26.6802 21.9542 26.5364 22.0806C23.3966 22.2416 20.2691 22.5889 17.1706 23.1207C4.39149 25.3464 2.86174 36.496 1.36321 47.7079C-1.00945 65.4827 0.0207832 83.4551 2.40386 101.178C3.02824 105.889 2.82011 112.431 6.04611 116.248C8.98072 119.722 13.9966 120.107 18.2216 120.554C39.5965 122.79 61.6581 121.802 83.1474 121.594C92.4403 121.511 107.082 121.771 113.982 113.96C118.977 108.292 117.509 97.184 117.686 89.8515C119.825 89.3901 121.812 88.3954 123.462 86.9601ZM122.671 77.3187C120.319 84.1103 114.346 85.452 108.237 85.3584C102.347 85.2544 93.5954 86.18 88.1112 83.7463C80.1711 80.2205 77.8921 68.5925 84.24 62.2169C87.9655 58.4726 94.6464 58.0566 99.5479 57.9422C105.946 57.741 112.35 58.0191 118.706 58.7742C125.335 60.2511 124.419 72.2847 122.661 77.3187H122.671ZM97.4041 22.4343C86.2693 20.895 74.2915 21.8726 63.6665 22.3511C56.996 22.6527 50.1381 22.3511 43.2803 22.1015C59.9306 17.7332 76.4768 13.0424 92.919 8.02932C94.6832 12.7431 96.1806 17.5523 97.4041 22.4343ZM66.6532 7.17647C67.7666 6.65644 70.8158 4.5659 71.9605 4.72191C74.2603 5.00273 75.2281 7.17646 76.123 9.06939C65.5224 12.1827 54.88 15.1261 44.1961 17.8996L54.4672 12.9592C58.5257 11.0351 62.5738 9.0798 66.6532 7.17647ZM112.108 100.377C111.713 106.753 111.557 110.622 105.084 113.586C95.1147 118.131 82.3044 116.519 71.6586 116.456C62.5738 116.394 53.4994 116.581 44.425 116.508C35.9126 116.446 15.7033 119.088 10.5521 111.558C5.65068 104.392 6.20221 92.0044 5.59864 83.3511C4.99853 75.245 4.91861 67.1089 5.35931 58.9927C5.79638 51.5874 5.46335 36.652 11.3222 30.9108C16.7335 25.6481 29.4918 27.4162 36.3809 27.489C51.6263 27.645 66.8405 26.7298 82.0755 26.8858C89.5473 26.969 100.297 26.3345 107.051 29.8916C114.075 33.5838 113.638 45.1598 113.295 52.9811C102.316 51.785 87.8927 51.2233 80.629 58.5766C70.7012 68.6341 74.1458 85.7328 87.9759 88.9258C93.918 90.2987 100.308 90.1947 106.364 90.3507C108.341 90.4131 110.433 90.5067 112.504 90.4443C112.389 93.8245 112.317 97.0799 112.108 100.377Z" fill="#4D4D4D"/>
<path d="M93.3561 62.3313C81.909 62.2273 82.5021 81.5725 94.2302 79.8356C96.6108 79.5029 98.7953 78.3346 100.393 76.5396C101.991 74.7446 102.897 72.4401 102.951 70.0382C102.888 64.9939 97.9557 62.2065 93.3561 62.3313ZM94.6465 75.8522C87.466 78.0675 86.696 66.0963 93.3561 66.1587C95.8224 66.0859 99.0484 67.126 99.1316 70.0486C99.1082 71.3683 98.659 72.6451 97.8508 73.689C97.0426 74.7328 95.9187 75.4879 94.6465 75.8418V75.8522Z" fill="#4D4D4D"/>
<path d="M101.151 94.8647C101.151 97.4024 101.66 100.46 100.276 102.738C99.0068 104.818 102.358 106.773 103.575 104.673C105.365 101.708 104.99 98.1721 104.959 94.8647C104.97 92.3685 101.13 92.3685 101.151 94.8647Z" fill="#4D4D4D"/>
<path d="M93.2937 106.898C90.608 107.529 87.8326 107.683 85.0934 107.356C82.6479 107.127 82.6687 110.944 85.0934 111.173C88.1779 111.513 91.298 111.312 94.3135 110.58C96.6446 109.966 95.6872 106.305 93.2937 106.898Z" fill="#4D4D4D"/>
<path d="M75.9773 107.179C72.7201 107.179 69.4525 107.325 66.1848 107.345C65.6798 107.345 65.1954 107.546 64.8382 107.903C64.4811 108.26 64.2805 108.744 64.2805 109.249C64.2805 109.753 64.4811 110.238 64.8382 110.595C65.1954 110.951 65.6798 111.152 66.1848 111.152C69.4525 111.152 72.7201 111.006 75.9773 110.996C78.4333 110.986 78.4437 107.169 75.9773 107.179Z" fill="#4D4D4D"/>
<path d="M56.1426 107.345C53.2809 107.397 50.4399 107.106 47.5885 107.002C45.1326 106.909 45.1326 110.726 47.5885 110.819C50.4399 110.923 53.2809 111.214 56.1426 111.162C58.5986 111.11 58.5986 107.345 56.1426 107.345Z" fill="#4D4D4D"/>
<path d="M37.6818 107.137C34.5574 107.314 31.4234 107.217 28.316 106.846C25.9121 106.43 24.8819 110.112 27.2754 110.528C30.7248 110.977 34.2072 111.12 37.6818 110.954C40.1377 110.944 40.1481 107.127 37.6818 107.137Z" fill="#4D4D4D"/>
<path d="M17.7742 96.8304C17.7742 94.3759 13.9238 94.3655 13.955 96.8304C14.0175 100.668 14.8292 104.839 17.7638 107.564C19.5641 109.228 22.2698 106.524 20.4695 104.86C18.2737 102.821 17.8159 99.6802 17.7742 96.8304Z" fill="#4D4D4D"/>
<path d="M17.285 87.5841C17.285 84.4015 17.285 81.2189 17.285 78.0363C17.2493 77.5545 17.0327 77.1039 16.6785 76.7751C16.3243 76.4463 15.8588 76.2635 15.3754 76.2635C14.892 76.2635 14.4265 76.4463 14.0723 76.7751C13.7181 77.1039 13.5014 77.5545 13.4658 78.0363C13.4658 81.2189 13.4658 84.4015 13.4658 87.5841C13.4762 90.0075 17.2954 90.0179 17.285 87.5841Z" fill="#4D4D4D"/>
<path d="M17.2642 68.9461C17.2642 65.6803 17.2642 62.4249 17.2642 59.1591C17.2286 58.6773 17.012 58.2267 16.6578 57.8979C16.3036 57.5691 15.8381 57.3864 15.3547 57.3864C14.8713 57.3864 14.4057 57.5691 14.0516 57.8979C13.6974 58.2267 13.4807 58.6773 13.4451 59.1591C13.4451 62.4249 13.4451 65.6803 13.4451 68.9461C13.3931 71.4007 17.2538 71.4007 17.2642 68.9461Z" fill="#4D4D4D"/>
<path d="M17.4099 50.1937C17.36 47.5968 18.1281 45.05 19.6056 42.9133C20.9585 40.8331 17.6493 38.9402 16.3068 40.9892C14.4768 43.7134 13.5286 46.9339 13.5908 50.2146C13.6428 52.6483 17.4619 52.6587 17.4099 50.1937Z" fill="#4D4D4D"/>
<path d="M31.6356 36.5064C34.0915 36.6624 34.0811 32.8453 31.6356 32.6893C28.8363 32.5125 25.6519 32.2109 23.3105 33.9998C21.3645 35.4455 23.3105 38.7633 25.2461 37.2864C27.0047 35.9344 29.5127 36.3712 31.6356 36.5064Z" fill="#4D4D4D"/>
<path d="M49.3993 36.1944C51.8552 36.3608 51.8448 32.5438 49.3993 32.3774C46.5063 32.1902 43.6133 32.3774 40.7204 32.4502C38.2644 32.4502 38.254 36.3088 40.7204 36.2672C43.5717 36.2152 46.5063 36.0072 49.3993 36.1944Z" fill="#4D4D4D"/>
<path d="M68.1724 32.7829C64.8216 32.6997 61.4602 32.6061 58.1094 32.5957C57.6273 32.6313 57.1765 32.8478 56.8475 33.2018C56.5185 33.5558 56.3357 34.0211 56.3357 34.5042C56.3357 34.9874 56.5185 35.4526 56.8475 35.8066C57.1765 36.1606 57.6273 36.3771 58.1094 36.4127C61.4602 36.4127 64.8216 36.5168 68.1724 36.6C70.6284 36.6728 70.6284 32.8557 68.1724 32.7829Z" fill="#4D4D4D"/>
<path d="M77.2365 36.548C80.681 36.548 84.1152 36.6624 87.5597 36.548C90.0156 36.4648 90.026 32.6477 87.5597 32.731C84.1152 32.8454 80.681 32.731 77.2365 32.731C74.791 32.7518 74.791 36.6208 77.2365 36.548Z" fill="#4D4D4D"/>
<path d="M96.1033 38.1289C100.432 38.7842 101.109 42.1956 101.15 46.0646C101.15 48.5192 104.98 48.5192 104.959 46.0646C104.959 40.6251 103.149 35.3624 97.1128 34.4471C94.7089 34.0831 93.6682 37.7545 96.1033 38.1289Z" fill="#4D4D4D"/>
</g>
<defs>
<clipPath id="clip0_22_107">
<rect width="128.873" height="122" fill="white"/>
</clipPath>
</defs>
</svg>
