<svg width="80" height="80" viewBox="0 0 80 80" fill="none" xmlns="http://www.w3.org/2000/svg">
<path d="M23.8472 30.9174H56.1528L44.8194 9.24661C43.9722 7.61327 44.6111 5.60091 46.2361 4.75161C47.875 3.9023 49.8889 4.53786 50.7361 6.17161L63.6667 30.9174H75.5556C78.0139 30.9174 80 33.0286 80 35.3619C80 37.9452 78.0139 39.8063 75.5556 39.8063L68.3472 68.7508C67.2361 72.7091 63.8056 75.4869 59.7222 75.4869H20.1528C16.1944 75.4869 12.6389 72.7091 11.65 68.7508L4.44444 39.8063C1.99028 39.8063 0 37.9452 0 35.3619C0 33.0286 1.99028 30.9174 4.44444 30.9174H16.3333L29.2639 6.17161C30.1111 4.53786 32.125 3.9023 33.7639 4.75161C35.3889 5.60091 36.0278 7.61327 35.1806 9.24661L23.8472 30.9174ZM26.5417 46.473C26.5417 45.3619 25.6667 44.2508 24.3194 44.2508C23.2222 44.2508 22.0972 45.3619 22.0972 46.473V59.8063C22.0972 61.1536 23.2222 62.0286 24.3194 62.0286C25.6667 62.0286 26.5417 61.1536 26.5417 59.8063V46.473ZM37.6528 46.473V59.8063C37.6528 61.1536 38.7778 62.0286 39.875 62.0286C41.2222 62.0286 42.2222 61.1536 42.2222 59.8063V46.473C42.2222 45.3619 41.2222 44.2508 39.875 44.2508C38.7778 44.2508 37.6528 45.3619 37.6528 46.473ZM57.7778 46.473C57.7778 45.3619 56.7778 44.2508 55.5556 44.2508C54.3333 44.2508 53.3333 45.3619 53.3333 46.473V59.8063C53.3333 61.1536 54.3333 62.0286 55.5556 62.0286C56.7778 62.0286 57.7778 61.1536 57.7778 59.8063V46.473Z" fill="#FF5A1F"/>
</svg>
