<svg width="80" height="64" viewBox="0 0 80 64" fill="none" xmlns="http://www.w3.org/2000/svg">
<path d="M6.75833 7.45184C17.8333 10.4754 28.9167 7.65461 40 4.82961C52.0833 1.75045 64.1667 -1.33011 76.25 3.181C78.5972 4.05739 80 6.40878 80 8.91434V51.9477C80 55.2671 76.4444 57.4616 73.2361 56.5866C62.1667 53.5588 51.0833 56.3782 40 59.1977C27.7917 62.281 15.7083 65.3643 3.74583 60.8505C1.39722 59.9755 0 57.6282 0 55.1143V12.0866C0 8.76573 3.55694 6.57684 6.75833 7.45184ZM39.875 45.3505C46.1389 45.3505 51.1111 39.3782 51.1111 31.8921C51.1111 24.531 46.1389 18.5588 39.875 18.5588C33.8611 18.5588 28.7639 24.531 28.7639 31.8921C28.7639 39.3782 33.8611 45.3505 39.875 45.3505ZM8.76389 54.2393H17.6528C17.6528 49.3366 13.7986 45.3505 8.76389 45.3505V54.2393ZM8.76389 16.3366V25.2254C13.7986 25.2254 17.6528 21.3643 17.6528 16.3366H8.76389ZM71.1111 38.5588C66.2083 38.5588 62.2222 42.6699 62.2222 47.5727H71.1111V38.5588ZM62.2222 9.66989C62.2222 14.6977 66.2083 18.5588 71.1111 18.5588V9.66989H62.2222Z" fill="#379563"/>
</svg>
