<svg width="99" height="99" viewBox="0 0 99 99" fill="none" xmlns="http://www.w3.org/2000/svg">
<g filter="url(#filter0_d_18_49)">
<path d="M72.3574 6H26.6426C16.3466 6 8 14.3466 8 24.6426V70.3574C8 80.6534 16.3466 89 26.6426 89H72.3574C82.6534 89 91 80.6534 91 70.3574V24.6426C91 14.3466 82.6534 6 72.3574 6Z" fill="url(#paint0_linear_18_49)"/>
</g>
<g filter="url(#filter1_i_18_49)">
<path d="M79.7495 64.0125C79.7495 47.3007 66.2021 33.7532 49.4886 33.7532C32.7751 33.7532 19.2293 47.3007 19.2293 64.0125C19.2253 68.9364 20.4244 73.7867 22.7222 78.1416C25.02 82.4964 28.3469 86.224 32.4136 89.0001H66.562C70.6294 86.2244 73.957 82.4971 76.2554 78.1422C78.5537 73.7872 79.7532 68.9367 79.7495 64.0125ZM55.5093 78.1663C54.3871 78.6154 53.2083 78.9073 52.0061 79.0336V81.6646C51.9917 82.3235 51.7193 82.9504 51.2475 83.4105C50.7777 83.8737 50.1451 84.1344 49.4853 84.1368C48.8262 84.1369 48.1932 83.8791 47.7216 83.4186C47.2478 82.9565 46.9753 82.3263 46.9629 81.6646V78.9087C46.9321 78.9087 46.8932 78.8293 46.8608 78.8925H46.8446C44.9349 78.5926 41.7722 77.7578 39.6388 76.8224C39.336 76.6874 39.0628 76.4941 38.8347 76.2535C38.6066 76.0129 38.4281 75.7297 38.3095 75.4201C38.0698 74.7949 38.0872 74.1002 38.3582 73.4878C38.9239 72.2185 40.4137 71.6446 41.6166 72.2104C43.3333 72.9431 46.0454 73.6596 47.6146 73.906C50.1354 74.2838 52.2088 74.0682 53.6127 73.5008C54.9452 72.9626 55.558 72.1699 55.7201 71.2231C55.8692 70.3802 55.7606 69.9003 55.6179 69.602C55.3778 69.167 55.0272 68.803 54.6015 68.5467C53.3176 67.7021 51.3691 67.1347 48.8256 66.449L48.6035 66.3858C46.3664 65.7795 43.6202 65.0306 41.589 63.685C40.4753 62.9442 39.4329 61.9424 38.7861 60.5563C38.1393 59.1703 37.9885 57.5768 38.2998 55.8973C38.8639 52.8172 41.0654 50.8719 43.6591 49.8782C44.7245 49.4851 45.834 49.2243 46.9629 49.1017V46.3653C46.9791 45.7068 47.2512 45.0805 47.7216 44.6194C48.1934 44.1592 48.8263 43.9015 49.4853 43.9012C50.1445 43.9011 50.7775 44.1589 51.2491 44.6194C51.7206 45.08 51.994 45.7063 52.011 46.3653V49.1763L52.3806 49.2314C53.2155 49.3546 55.7071 49.7566 56.73 50.0144C58.0074 50.3564 58.8974 51.7327 58.5521 53.0799C58.3872 53.7287 57.9715 54.2855 57.3963 54.628C57.1118 54.7981 56.7965 54.9104 56.4686 54.9586C56.1406 55.0067 55.8064 54.9897 55.485 54.9084C54.7539 54.6475 52.5233 54.3492 51.6398 54.2227C49.1109 53.8434 46.9386 54.0347 45.4537 54.6004C44.0125 55.1516 43.4144 55.933 43.2571 56.8067C43.1031 57.6497 43.2198 58.1312 43.3576 58.4278C43.4954 58.7245 43.7985 59.1022 44.3773 59.4848C45.6596 60.3278 47.6097 60.8951 50.15 61.5809L50.3721 61.6441C52.6092 62.2504 55.3553 62.9993 57.3849 64.3465C58.4954 65.0873 59.5394 66.0875 60.191 67.4752C60.8427 68.8628 60.987 70.4596 60.6774 72.0677C60.1359 75.1235 58.0074 77.1255 55.5093 78.1663Z" fill="white"/>
<path d="M24.4071 88.8638C17.8553 82.2612 14.1836 73.3335 14.1942 64.0319C14.1942 44.535 30.0047 28.7294 49.4984 28.7294C68.992 28.7294 84.8058 44.535 84.8058 64.0319C84.8169 73.3332 81.145 82.2605 74.5929 88.8622C79.1167 88.3158 83.2836 86.1315 86.3066 82.7221C89.3296 79.3126 90.9992 74.914 91 70.3574V45.6228C83.9401 29.728 68.0178 18.6445 49.5 18.6445C30.9822 18.6445 15.0615 29.7312 8 45.6276V70.3574C8.0004 74.9143 9.66983 79.3133 12.6928 82.7231C15.7158 86.1329 19.8831 88.3174 24.4071 88.8638Z" fill="white"/>
</g>
<g filter="url(#filter2_d_18_49)">
<path d="M62.1439 20.3615C62.1439 15.5738 62.1439 10.7866 62.1439 6H36.8555C36.8555 13.0416 36.8555 20.0832 36.8555 27.1249C36.8555 30.2481 36.8555 33.371 36.8555 36.4936C36.8555 37.4387 37.3301 38.1174 38.153 38.3524C38.8022 38.5374 39.3624 38.3355 39.8964 37.9528C42.9788 35.7402 46.0714 33.5412 49.1479 31.3227C49.4361 31.1157 49.6031 31.1462 49.8666 31.3371C51.7405 32.6945 53.6254 34.0333 55.5078 35.378C56.7587 36.2713 58.0012 37.1766 59.2623 38.0555C60.3488 38.8114 61.7387 38.3304 62.0845 37.1011C62.1583 36.8389 62.143 36.5691 62.143 36.301C62.1447 30.9884 62.145 25.6753 62.1439 20.3615Z" fill="#FF7B4C"/>
</g>
<defs>
<filter id="filter0_d_18_49" x="0" y="2" width="99" height="99" filterUnits="userSpaceOnUse" color-interpolation-filters="sRGB">
<feFlood flood-opacity="0" result="BackgroundImageFix"/>
<feColorMatrix in="SourceAlpha" type="matrix" values="0 0 0 0 0 0 0 0 0 0 0 0 0 0 0 0 0 0 127 0" result="hardAlpha"/>
<feOffset dy="4"/>
<feGaussianBlur stdDeviation="4"/>
<feComposite in2="hardAlpha" operator="out"/>
<feColorMatrix type="matrix" values="0 0 0 0 0.172549 0 0 0 0 0.172549 0 0 0 0 0.172549 0 0 0 0.125 0"/>
<feBlend mode="normal" in2="BackgroundImageFix" result="effect1_dropShadow_18_49"/>
<feBlend mode="normal" in="SourceGraphic" in2="effect1_dropShadow_18_49" result="shape"/>
</filter>
<filter id="filter1_i_18_49" x="8" y="18.6445" width="83" height="74.3555" filterUnits="userSpaceOnUse" color-interpolation-filters="sRGB">
<feFlood flood-opacity="0" result="BackgroundImageFix"/>
<feBlend mode="normal" in="SourceGraphic" in2="BackgroundImageFix" result="shape"/>
<feColorMatrix in="SourceAlpha" type="matrix" values="0 0 0 0 0 0 0 0 0 0 0 0 0 0 0 0 0 0 127 0" result="hardAlpha"/>
<feOffset dy="4"/>
<feGaussianBlur stdDeviation="8"/>
<feComposite in2="hardAlpha" operator="arithmetic" k2="-1" k3="1"/>
<feColorMatrix type="matrix" values="0 0 0 0 0.172549 0 0 0 0 0.172549 0 0 0 0 0.172549 0 0 0 0.08 0"/>
<feBlend mode="normal" in2="shape" result="effect1_innerShadow_18_49"/>
</filter>
<filter id="filter2_d_18_49" x="28.8555" y="0" width="41.2891" height="48.4219" filterUnits="userSpaceOnUse" color-interpolation-filters="sRGB">
<feFlood flood-opacity="0" result="BackgroundImageFix"/>
<feColorMatrix in="SourceAlpha" type="matrix" values="0 0 0 0 0 0 0 0 0 0 0 0 0 0 0 0 0 0 127 0" result="hardAlpha"/>
<feOffset dy="2"/>
<feGaussianBlur stdDeviation="4"/>
<feComposite in2="hardAlpha" operator="out"/>
<feColorMatrix type="matrix" values="0 0 0 0 0.172549 0 0 0 0 0.172549 0 0 0 0 0.172549 0 0 0 0.25 0"/>
<feBlend mode="normal" in2="BackgroundImageFix" result="effect1_dropShadow_18_49"/>
<feBlend mode="normal" in="SourceGraphic" in2="effect1_dropShadow_18_49" result="shape"/>
</filter>
<linearGradient id="paint0_linear_18_49" x1="49.5" y1="-6.56348" x2="49.5" y2="102.212" gradientUnits="userSpaceOnUse">
<stop stop-color="#42B377"/>
<stop offset="0.532317" stop-color="#379563"/>
<stop offset="1" stop-color="#2C774F"/>
</linearGradient>
</defs>
</svg>
